G04 #@! TF.GenerationSoftware,KiCad,Pcbnew,5.1.10-88a1d61d58~88~ubuntu18.04.1*
G04 #@! TF.CreationDate,2021-09-29T08:18:59+02:00*
G04 #@! TF.ProjectId,rf_phase_shifter_5_8GHz,72665f70-6861-4736-955f-736869667465,1.0.0*
G04 #@! TF.SameCoordinates,Original*
G04 #@! TF.FileFunction,Legend,Top*
G04 #@! TF.FilePolarity,Positive*
%FSLAX46Y46*%
G04 Gerber Fmt 4.6, Leading zero omitted, Abs format (unit mm)*
G04 Created by KiCad (PCBNEW 5.1.10-88a1d61d58~88~ubuntu18.04.1) date 2021-09-29 08:18:59*
%MOMM*%
%LPD*%
G01*
G04 APERTURE LIST*
%ADD10C,0.150000*%
%ADD11C,0.250000*%
%ADD12C,0.100000*%
%ADD13C,0.120000*%
%ADD14R,5.000000X1.200000*%
%ADD15R,5.000000X1.600000*%
%ADD16R,1.200000X5.000000*%
%ADD17R,1.600000X5.000000*%
%ADD18R,0.330000X0.350000*%
%ADD19R,0.700000X0.600000*%
G04 APERTURE END LIST*
D10*
X79938571Y-57459428D02*
X79986190Y-57316571D01*
X80033809Y-57268952D01*
X80129047Y-57221333D01*
X80271904Y-57221333D01*
X80367142Y-57268952D01*
X80414761Y-57316571D01*
X80462380Y-57411809D01*
X80462380Y-57792761D01*
X79462380Y-57792761D01*
X79462380Y-57459428D01*
X79510000Y-57364190D01*
X79557619Y-57316571D01*
X79652857Y-57268952D01*
X79748095Y-57268952D01*
X79843333Y-57316571D01*
X79890952Y-57364190D01*
X79938571Y-57459428D01*
X79938571Y-57792761D01*
X80462380Y-56792761D02*
X79462380Y-56792761D01*
X80176666Y-56364190D02*
X80176666Y-55888000D01*
X80462380Y-56459428D02*
X79462380Y-56126095D01*
X80462380Y-55792761D01*
X80414761Y-55507047D02*
X80462380Y-55364190D01*
X80462380Y-55126095D01*
X80414761Y-55030857D01*
X80367142Y-54983238D01*
X80271904Y-54935619D01*
X80176666Y-54935619D01*
X80081428Y-54983238D01*
X80033809Y-55030857D01*
X79986190Y-55126095D01*
X79938571Y-55316571D01*
X79890952Y-55411809D01*
X79843333Y-55459428D01*
X79748095Y-55507047D01*
X79652857Y-55507047D01*
X79557619Y-55459428D01*
X79510000Y-55411809D01*
X79462380Y-55316571D01*
X79462380Y-55078476D01*
X79510000Y-54935619D01*
X89932000Y-50633380D02*
X90122476Y-50633380D01*
X90217714Y-50681000D01*
X90312952Y-50776238D01*
X90360571Y-50966714D01*
X90360571Y-51300047D01*
X90312952Y-51490523D01*
X90217714Y-51585761D01*
X90122476Y-51633380D01*
X89932000Y-51633380D01*
X89836761Y-51585761D01*
X89741523Y-51490523D01*
X89693904Y-51300047D01*
X89693904Y-50966714D01*
X89741523Y-50776238D01*
X89836761Y-50681000D01*
X89932000Y-50633380D01*
X90789142Y-50633380D02*
X90789142Y-51442904D01*
X90836761Y-51538142D01*
X90884380Y-51585761D01*
X90979619Y-51633380D01*
X91170095Y-51633380D01*
X91265333Y-51585761D01*
X91312952Y-51538142D01*
X91360571Y-51442904D01*
X91360571Y-50633380D01*
X91693904Y-50633380D02*
X92265333Y-50633380D01*
X91979619Y-51633380D02*
X91979619Y-50633380D01*
X89646190Y-68524380D02*
X89646190Y-67524380D01*
X90122380Y-68524380D02*
X90122380Y-67524380D01*
X90693809Y-68524380D01*
X90693809Y-67524380D01*
X74186000Y-54928000D02*
X78886000Y-54928000D01*
X78886000Y-62928000D02*
X78886000Y-54928000D01*
X74186000Y-62928000D02*
X78886000Y-62928000D01*
D11*
X79646000Y-58928000D02*
G75*
G03*
X79646000Y-58928000I-125000J0D01*
G01*
D10*
X80455000Y-68414000D02*
X80455000Y-63714000D01*
X88455000Y-63714000D02*
X80455000Y-63714000D01*
X88455000Y-68414000D02*
X88455000Y-63714000D01*
D11*
X84580000Y-63079000D02*
G75*
G03*
X84580000Y-63079000I-125000J0D01*
G01*
D10*
X88455000Y-49294000D02*
X88455000Y-53994000D01*
X80455000Y-53994000D02*
X88455000Y-53994000D01*
X80455000Y-49294000D02*
X80455000Y-53994000D01*
D11*
X84580000Y-54629000D02*
G75*
G03*
X84580000Y-54629000I-125000J0D01*
G01*
D12*
X84498000Y-58278000D02*
G75*
G02*
X84598000Y-58278000I50000J0D01*
G01*
X84598000Y-58278000D02*
G75*
G02*
X84498000Y-58278000I-50000J0D01*
G01*
X84498000Y-58278000D02*
X84498000Y-58278000D01*
X84598000Y-58278000D02*
X84598000Y-58278000D01*
X84973000Y-59928000D02*
X86223000Y-59928000D01*
X84973000Y-57928000D02*
X86223000Y-57928000D01*
D13*
X101285600Y-59136900D02*
X100085600Y-59136900D01*
X101285600Y-60986900D02*
X101285600Y-59136900D01*
X100085600Y-60986900D02*
X100085600Y-59136900D01*
X87374000Y-60767279D02*
X87374000Y-60441721D01*
X88394000Y-60767279D02*
X88394000Y-60441721D01*
X88394000Y-57088721D02*
X88394000Y-57414279D01*
X87374000Y-57088721D02*
X87374000Y-57414279D01*
X100085600Y-58719100D02*
X101285600Y-58719100D01*
X100085600Y-56869100D02*
X100085600Y-58719100D01*
X101285600Y-56869100D02*
X101285600Y-58719100D01*
X94084700Y-59136900D02*
X92884700Y-59136900D01*
X94084700Y-60986900D02*
X94084700Y-59136900D01*
X92884700Y-60986900D02*
X92884700Y-59136900D01*
X92872000Y-58719100D02*
X94072000Y-58719100D01*
X92872000Y-56869100D02*
X92872000Y-58719100D01*
X94072000Y-56869100D02*
X94072000Y-58719100D01*
X83945000Y-62370580D02*
X83945000Y-62089420D01*
X84965000Y-62370580D02*
X84965000Y-62089420D01*
X83945000Y-55766580D02*
X83945000Y-55485420D01*
X84965000Y-55766580D02*
X84965000Y-55485420D01*
D10*
X95988333Y-60539380D02*
X96559761Y-60539380D01*
X96274047Y-61539380D02*
X96274047Y-60539380D01*
X97369285Y-61539380D02*
X96893095Y-61539380D01*
X96893095Y-60539380D01*
X98131190Y-60872714D02*
X98131190Y-61539380D01*
X97893095Y-60491761D02*
X97655000Y-61206047D01*
X98274047Y-61206047D01*
X95861333Y-56348380D02*
X96432761Y-56348380D01*
X96147047Y-57348380D02*
X96147047Y-56348380D01*
X97242285Y-57348380D02*
X96766095Y-57348380D01*
X96766095Y-56348380D01*
X97480380Y-56348380D02*
X98099428Y-56348380D01*
X97766095Y-56729333D01*
X97908952Y-56729333D01*
X98004190Y-56776952D01*
X98051809Y-56824571D01*
X98099428Y-56919809D01*
X98099428Y-57157904D01*
X98051809Y-57253142D01*
X98004190Y-57300761D01*
X97908952Y-57348380D01*
X97623238Y-57348380D01*
X97528000Y-57300761D01*
X97480380Y-57253142D01*
X89511333Y-60539380D02*
X90082761Y-60539380D01*
X89797047Y-61539380D02*
X89797047Y-60539380D01*
X90892285Y-61539380D02*
X90416095Y-61539380D01*
X90416095Y-60539380D01*
X91178000Y-60634619D02*
X91225619Y-60587000D01*
X91320857Y-60539380D01*
X91558952Y-60539380D01*
X91654190Y-60587000D01*
X91701809Y-60634619D01*
X91749428Y-60729857D01*
X91749428Y-60825095D01*
X91701809Y-60967952D01*
X91130380Y-61539380D01*
X91749428Y-61539380D01*
X89257333Y-56348380D02*
X89828761Y-56348380D01*
X89543047Y-57348380D02*
X89543047Y-56348380D01*
X90638285Y-57348380D02*
X90162095Y-57348380D01*
X90162095Y-56348380D01*
X91495428Y-57348380D02*
X90924000Y-57348380D01*
X91209714Y-57348380D02*
X91209714Y-56348380D01*
X91114476Y-56491238D01*
X91019238Y-56586476D01*
X90924000Y-56634095D01*
X78091309Y-53554380D02*
X78091309Y-54268666D01*
X78043690Y-54411523D01*
X77948452Y-54506761D01*
X77805595Y-54554380D01*
X77710357Y-54554380D01*
X78472261Y-53554380D02*
X79091309Y-53554380D01*
X78757976Y-53935333D01*
X78900833Y-53935333D01*
X78996071Y-53982952D01*
X79043690Y-54030571D01*
X79091309Y-54125809D01*
X79091309Y-54363904D01*
X79043690Y-54459142D01*
X78996071Y-54506761D01*
X78900833Y-54554380D01*
X78615119Y-54554380D01*
X78519880Y-54506761D01*
X78472261Y-54459142D01*
X89898023Y-66000380D02*
X89898023Y-66714666D01*
X89850404Y-66857523D01*
X89755166Y-66952761D01*
X89612309Y-67000380D01*
X89517071Y-67000380D01*
X90326595Y-66095619D02*
X90374214Y-66048000D01*
X90469452Y-66000380D01*
X90707547Y-66000380D01*
X90802785Y-66048000D01*
X90850404Y-66095619D01*
X90898023Y-66190857D01*
X90898023Y-66286095D01*
X90850404Y-66428952D01*
X90278976Y-67000380D01*
X90898023Y-67000380D01*
X90029309Y-49109380D02*
X90029309Y-49823666D01*
X89981690Y-49966523D01*
X89886452Y-50061761D01*
X89743595Y-50109380D01*
X89648357Y-50109380D01*
X91029309Y-50109380D02*
X90457880Y-50109380D01*
X90743595Y-50109380D02*
X90743595Y-49109380D01*
X90648357Y-49252238D01*
X90553119Y-49347476D01*
X90457880Y-49395095D01*
X82192904Y-57840571D02*
X81859571Y-57840571D01*
X81859571Y-58364380D02*
X81859571Y-57364380D01*
X82335761Y-57364380D01*
X83192904Y-58364380D02*
X82716714Y-58364380D01*
X82716714Y-57364380D01*
X84050047Y-58364380D02*
X83478619Y-58364380D01*
X83764333Y-58364380D02*
X83764333Y-57364380D01*
X83669095Y-57507238D01*
X83573857Y-57602476D01*
X83478619Y-57650095D01*
X101623904Y-60650380D02*
X101623904Y-59650380D01*
X101862000Y-59650380D01*
X102004857Y-59698000D01*
X102100095Y-59793238D01*
X102147714Y-59888476D01*
X102195333Y-60078952D01*
X102195333Y-60221809D01*
X102147714Y-60412285D01*
X102100095Y-60507523D01*
X102004857Y-60602761D01*
X101862000Y-60650380D01*
X101623904Y-60650380D01*
X103052476Y-59983714D02*
X103052476Y-60650380D01*
X102814380Y-59602761D02*
X102576285Y-60317047D01*
X103195333Y-60317047D01*
X87717333Y-63190380D02*
X87241142Y-63190380D01*
X87241142Y-62190380D01*
X88003047Y-62285619D02*
X88050666Y-62238000D01*
X88145904Y-62190380D01*
X88384000Y-62190380D01*
X88479238Y-62238000D01*
X88526857Y-62285619D01*
X88574476Y-62380857D01*
X88574476Y-62476095D01*
X88526857Y-62618952D01*
X87955428Y-63190380D01*
X88574476Y-63190380D01*
X87717333Y-55570380D02*
X87241142Y-55570380D01*
X87241142Y-54570380D01*
X88574476Y-55570380D02*
X88003047Y-55570380D01*
X88288761Y-55570380D02*
X88288761Y-54570380D01*
X88193523Y-54713238D01*
X88098285Y-54808476D01*
X88003047Y-54856095D01*
X101623904Y-57983380D02*
X101623904Y-56983380D01*
X101862000Y-56983380D01*
X102004857Y-57031000D01*
X102100095Y-57126238D01*
X102147714Y-57221476D01*
X102195333Y-57411952D01*
X102195333Y-57554809D01*
X102147714Y-57745285D01*
X102100095Y-57840523D01*
X102004857Y-57935761D01*
X101862000Y-57983380D01*
X101623904Y-57983380D01*
X102528666Y-56983380D02*
X103147714Y-56983380D01*
X102814380Y-57364333D01*
X102957238Y-57364333D01*
X103052476Y-57411952D01*
X103100095Y-57459571D01*
X103147714Y-57554809D01*
X103147714Y-57792904D01*
X103100095Y-57888142D01*
X103052476Y-57935761D01*
X102957238Y-57983380D01*
X102671523Y-57983380D01*
X102576285Y-57935761D01*
X102528666Y-57888142D01*
X92733904Y-63444380D02*
X92733904Y-62444380D01*
X92972000Y-62444380D01*
X93114857Y-62492000D01*
X93210095Y-62587238D01*
X93257714Y-62682476D01*
X93305333Y-62872952D01*
X93305333Y-63015809D01*
X93257714Y-63206285D01*
X93210095Y-63301523D01*
X93114857Y-63396761D01*
X92972000Y-63444380D01*
X92733904Y-63444380D01*
X93686285Y-62539619D02*
X93733904Y-62492000D01*
X93829142Y-62444380D01*
X94067238Y-62444380D01*
X94162476Y-62492000D01*
X94210095Y-62539619D01*
X94257714Y-62634857D01*
X94257714Y-62730095D01*
X94210095Y-62872952D01*
X93638666Y-63444380D01*
X94257714Y-63444380D01*
X92733904Y-55443380D02*
X92733904Y-54443380D01*
X92972000Y-54443380D01*
X93114857Y-54491000D01*
X93210095Y-54586238D01*
X93257714Y-54681476D01*
X93305333Y-54871952D01*
X93305333Y-55014809D01*
X93257714Y-55205285D01*
X93210095Y-55300523D01*
X93114857Y-55395761D01*
X92972000Y-55443380D01*
X92733904Y-55443380D01*
X94257714Y-55443380D02*
X93686285Y-55443380D01*
X93972000Y-55443380D02*
X93972000Y-54443380D01*
X93876761Y-54586238D01*
X93781523Y-54681476D01*
X93686285Y-54729095D01*
X83415142Y-62396666D02*
X83462761Y-62444285D01*
X83510380Y-62587142D01*
X83510380Y-62682380D01*
X83462761Y-62825238D01*
X83367523Y-62920476D01*
X83272285Y-62968095D01*
X83081809Y-63015714D01*
X82938952Y-63015714D01*
X82748476Y-62968095D01*
X82653238Y-62920476D01*
X82558000Y-62825238D01*
X82510380Y-62682380D01*
X82510380Y-62587142D01*
X82558000Y-62444285D01*
X82605619Y-62396666D01*
X82605619Y-62015714D02*
X82558000Y-61968095D01*
X82510380Y-61872857D01*
X82510380Y-61634761D01*
X82558000Y-61539523D01*
X82605619Y-61491904D01*
X82700857Y-61444285D01*
X82796095Y-61444285D01*
X82938952Y-61491904D01*
X83510380Y-62063333D01*
X83510380Y-61444285D01*
X83415142Y-55792666D02*
X83462761Y-55840285D01*
X83510380Y-55983142D01*
X83510380Y-56078380D01*
X83462761Y-56221238D01*
X83367523Y-56316476D01*
X83272285Y-56364095D01*
X83081809Y-56411714D01*
X82938952Y-56411714D01*
X82748476Y-56364095D01*
X82653238Y-56316476D01*
X82558000Y-56221238D01*
X82510380Y-56078380D01*
X82510380Y-55983142D01*
X82558000Y-55840285D01*
X82605619Y-55792666D01*
X83510380Y-54840285D02*
X83510380Y-55411714D01*
X83510380Y-55126000D02*
X82510380Y-55126000D01*
X82653238Y-55221238D01*
X82748476Y-55316476D01*
X82796095Y-55411714D01*
%LPC*%
D14*
X75946000Y-58928000D03*
D15*
X75946000Y-61698000D03*
X75946000Y-56158000D03*
D16*
X84455000Y-66654000D03*
D17*
X87225000Y-66654000D03*
X81685000Y-66654000D03*
D16*
X84455000Y-51054000D03*
D17*
X81685000Y-51054000D03*
X87225000Y-51054000D03*
D18*
X85103000Y-58278000D03*
X85103000Y-58928000D03*
X85103000Y-59578000D03*
X86093000Y-59578000D03*
X86093000Y-58928000D03*
X86093000Y-58278000D03*
D19*
X100685600Y-59586900D03*
X100685600Y-60986900D03*
G36*
G01*
X88140250Y-60254500D02*
X87627750Y-60254500D01*
G75*
G02*
X87409000Y-60035750I0J218750D01*
G01*
X87409000Y-59598250D01*
G75*
G02*
X87627750Y-59379500I218750J0D01*
G01*
X88140250Y-59379500D01*
G75*
G02*
X88359000Y-59598250I0J-218750D01*
G01*
X88359000Y-60035750D01*
G75*
G02*
X88140250Y-60254500I-218750J0D01*
G01*
G37*
G36*
G01*
X88140250Y-61829500D02*
X87627750Y-61829500D01*
G75*
G02*
X87409000Y-61610750I0J218750D01*
G01*
X87409000Y-61173250D01*
G75*
G02*
X87627750Y-60954500I218750J0D01*
G01*
X88140250Y-60954500D01*
G75*
G02*
X88359000Y-61173250I0J-218750D01*
G01*
X88359000Y-61610750D01*
G75*
G02*
X88140250Y-61829500I-218750J0D01*
G01*
G37*
G36*
G01*
X87627750Y-57601500D02*
X88140250Y-57601500D01*
G75*
G02*
X88359000Y-57820250I0J-218750D01*
G01*
X88359000Y-58257750D01*
G75*
G02*
X88140250Y-58476500I-218750J0D01*
G01*
X87627750Y-58476500D01*
G75*
G02*
X87409000Y-58257750I0J218750D01*
G01*
X87409000Y-57820250D01*
G75*
G02*
X87627750Y-57601500I218750J0D01*
G01*
G37*
G36*
G01*
X87627750Y-56026500D02*
X88140250Y-56026500D01*
G75*
G02*
X88359000Y-56245250I0J-218750D01*
G01*
X88359000Y-56682750D01*
G75*
G02*
X88140250Y-56901500I-218750J0D01*
G01*
X87627750Y-56901500D01*
G75*
G02*
X87409000Y-56682750I0J218750D01*
G01*
X87409000Y-56245250D01*
G75*
G02*
X87627750Y-56026500I218750J0D01*
G01*
G37*
X100685600Y-58269100D03*
X100685600Y-56869100D03*
X93484700Y-59586900D03*
X93484700Y-60986900D03*
X93472000Y-58269100D03*
X93472000Y-56869100D03*
G36*
G01*
X84705000Y-61905000D02*
X84205000Y-61905000D01*
G75*
G02*
X83980000Y-61680000I0J225000D01*
G01*
X83980000Y-61230000D01*
G75*
G02*
X84205000Y-61005000I225000J0D01*
G01*
X84705000Y-61005000D01*
G75*
G02*
X84930000Y-61230000I0J-225000D01*
G01*
X84930000Y-61680000D01*
G75*
G02*
X84705000Y-61905000I-225000J0D01*
G01*
G37*
G36*
G01*
X84705000Y-63455000D02*
X84205000Y-63455000D01*
G75*
G02*
X83980000Y-63230000I0J225000D01*
G01*
X83980000Y-62780000D01*
G75*
G02*
X84205000Y-62555000I225000J0D01*
G01*
X84705000Y-62555000D01*
G75*
G02*
X84930000Y-62780000I0J-225000D01*
G01*
X84930000Y-63230000D01*
G75*
G02*
X84705000Y-63455000I-225000J0D01*
G01*
G37*
G36*
G01*
X84705000Y-55301000D02*
X84205000Y-55301000D01*
G75*
G02*
X83980000Y-55076000I0J225000D01*
G01*
X83980000Y-54626000D01*
G75*
G02*
X84205000Y-54401000I225000J0D01*
G01*
X84705000Y-54401000D01*
G75*
G02*
X84930000Y-54626000I0J-225000D01*
G01*
X84930000Y-55076000D01*
G75*
G02*
X84705000Y-55301000I-225000J0D01*
G01*
G37*
G36*
G01*
X84705000Y-56851000D02*
X84205000Y-56851000D01*
G75*
G02*
X83980000Y-56626000I0J225000D01*
G01*
X83980000Y-56176000D01*
G75*
G02*
X84205000Y-55951000I225000J0D01*
G01*
X84705000Y-55951000D01*
G75*
G02*
X84930000Y-56176000I0J-225000D01*
G01*
X84930000Y-56626000D01*
G75*
G02*
X84705000Y-56851000I-225000J0D01*
G01*
G37*
M02*
