M48
; DRILL file {KiCad 5.1.10-88a1d61d58~88~ubuntu18.04.1} date Sat Nov 13 13:01:01 2021
; FORMAT={-:-/ absolute / metric / decimal}
; #@! TF.CreationDate,2021-11-13T13:01:01+01:00
; #@! TF.GenerationSoftware,Kicad,Pcbnew,5.1.10-88a1d61d58~88~ubuntu18.04.1
; #@! TF.FileFunction,Plated,1,2,PTH
FMAT,2
METRIC
T1C0.400
T2C3.000
%
G90
G05
T1
X74.803Y-54.61
X74.803Y-63.246
X75.946Y-54.61
X75.946Y-63.246
X77.089Y-54.61
X77.089Y-63.246
X78.994Y-57.658
X78.994Y-60.198
X80.01Y-50.038
X80.01Y-51.181
X80.01Y-52.324
X80.01Y-65.532
X80.01Y-66.675
X80.01Y-67.818
X83.82Y-58.928
X85.852Y-55.626
X85.852Y-62.23
X88.9Y-50.038
X88.9Y-51.181
X88.9Y-52.324
X88.9Y-65.532
X88.9Y-66.675
X88.9Y-67.818
X93.231Y-51.473
X93.243Y-66.383
X94.12Y-51.473
X94.132Y-66.383
X102.268Y-55.27
X102.268Y-56.159
X102.281Y-61.824
X102.281Y-62.713
T2
X76.073Y-51.181
X76.073Y-66.548
X104.521Y-51.181
X104.521Y-66.548
T0
M30
