G04 #@! TF.GenerationSoftware,KiCad,Pcbnew,5.1.10-88a1d61d58~88~ubuntu18.04.1*
G04 #@! TF.CreationDate,2021-11-13T13:00:57+01:00*
G04 #@! TF.ProjectId,rf_phase_shifter_5_8GHz,72665f70-6861-4736-955f-736869667465,1.0.0*
G04 #@! TF.SameCoordinates,Original*
G04 #@! TF.FileFunction,Legend,Bot*
G04 #@! TF.FilePolarity,Positive*
%FSLAX46Y46*%
G04 Gerber Fmt 4.6, Leading zero omitted, Abs format (unit mm)*
G04 Created by KiCad (PCBNEW 5.1.10-88a1d61d58~88~ubuntu18.04.1) date 2021-11-13 13:00:57*
%MOMM*%
%LPD*%
G01*
G04 APERTURE LIST*
%ADD10C,0.150000*%
%ADD11R,5.000000X1.600000*%
%ADD12R,1.600000X5.000000*%
G04 APERTURE END LIST*
D10*
X106138023Y-57444666D02*
X105661833Y-57444666D01*
X106233261Y-57730380D02*
X105899928Y-56730380D01*
X105566595Y-57730380D01*
X105233261Y-57063714D02*
X105233261Y-57730380D01*
X105233261Y-57158952D02*
X105185642Y-57111333D01*
X105090404Y-57063714D01*
X104947547Y-57063714D01*
X104852309Y-57111333D01*
X104804690Y-57206571D01*
X104804690Y-57730380D01*
X103899928Y-57730380D02*
X103899928Y-57206571D01*
X103947547Y-57111333D01*
X104042785Y-57063714D01*
X104233261Y-57063714D01*
X104328500Y-57111333D01*
X103899928Y-57682761D02*
X103995166Y-57730380D01*
X104233261Y-57730380D01*
X104328500Y-57682761D01*
X104376119Y-57587523D01*
X104376119Y-57492285D01*
X104328500Y-57397047D01*
X104233261Y-57349428D01*
X103995166Y-57349428D01*
X103899928Y-57301809D01*
X103280880Y-57730380D02*
X103376119Y-57682761D01*
X103423738Y-57587523D01*
X103423738Y-56730380D01*
X102757071Y-57730380D02*
X102852309Y-57682761D01*
X102899928Y-57635142D01*
X102947547Y-57539904D01*
X102947547Y-57254190D01*
X102899928Y-57158952D01*
X102852309Y-57111333D01*
X102757071Y-57063714D01*
X102614214Y-57063714D01*
X102518976Y-57111333D01*
X102471357Y-57158952D01*
X102423738Y-57254190D01*
X102423738Y-57539904D01*
X102471357Y-57635142D01*
X102518976Y-57682761D01*
X102614214Y-57730380D01*
X102757071Y-57730380D01*
X101566595Y-57063714D02*
X101566595Y-57873238D01*
X101614214Y-57968476D01*
X101661833Y-58016095D01*
X101757071Y-58063714D01*
X101899928Y-58063714D01*
X101995166Y-58016095D01*
X101566595Y-57682761D02*
X101661833Y-57730380D01*
X101852309Y-57730380D01*
X101947547Y-57682761D01*
X101995166Y-57635142D01*
X102042785Y-57539904D01*
X102042785Y-57254190D01*
X101995166Y-57158952D01*
X101947547Y-57111333D01*
X101852309Y-57063714D01*
X101661833Y-57063714D01*
X101566595Y-57111333D01*
X99757071Y-57730380D02*
X100090404Y-57254190D01*
X100328500Y-57730380D02*
X100328500Y-56730380D01*
X99947547Y-56730380D01*
X99852309Y-56778000D01*
X99804690Y-56825619D01*
X99757071Y-56920857D01*
X99757071Y-57063714D01*
X99804690Y-57158952D01*
X99852309Y-57206571D01*
X99947547Y-57254190D01*
X100328500Y-57254190D01*
X98995166Y-57206571D02*
X99328499Y-57206571D01*
X99328499Y-57730380D02*
X99328499Y-56730380D01*
X98852309Y-56730380D01*
X106090404Y-58713714D02*
X106090404Y-59713714D01*
X106090404Y-58761333D02*
X105995166Y-58713714D01*
X105804690Y-58713714D01*
X105709452Y-58761333D01*
X105661833Y-58808952D01*
X105614214Y-58904190D01*
X105614214Y-59189904D01*
X105661833Y-59285142D01*
X105709452Y-59332761D01*
X105804690Y-59380380D01*
X105995166Y-59380380D01*
X106090404Y-59332761D01*
X105185642Y-59380380D02*
X105185642Y-58380380D01*
X104757071Y-59380380D02*
X104757071Y-58856571D01*
X104804690Y-58761333D01*
X104899928Y-58713714D01*
X105042785Y-58713714D01*
X105138023Y-58761333D01*
X105185642Y-58808952D01*
X103852309Y-59380380D02*
X103852309Y-58856571D01*
X103899928Y-58761333D01*
X103995166Y-58713714D01*
X104185642Y-58713714D01*
X104280880Y-58761333D01*
X103852309Y-59332761D02*
X103947547Y-59380380D01*
X104185642Y-59380380D01*
X104280880Y-59332761D01*
X104328500Y-59237523D01*
X104328500Y-59142285D01*
X104280880Y-59047047D01*
X104185642Y-58999428D01*
X103947547Y-58999428D01*
X103852309Y-58951809D01*
X103423738Y-59332761D02*
X103328500Y-59380380D01*
X103138023Y-59380380D01*
X103042785Y-59332761D01*
X102995166Y-59237523D01*
X102995166Y-59189904D01*
X103042785Y-59094666D01*
X103138023Y-59047047D01*
X103280880Y-59047047D01*
X103376119Y-58999428D01*
X103423738Y-58904190D01*
X103423738Y-58856571D01*
X103376119Y-58761333D01*
X103280880Y-58713714D01*
X103138023Y-58713714D01*
X103042785Y-58761333D01*
X102185642Y-59332761D02*
X102280880Y-59380380D01*
X102471357Y-59380380D01*
X102566595Y-59332761D01*
X102614214Y-59237523D01*
X102614214Y-58856571D01*
X102566595Y-58761333D01*
X102471357Y-58713714D01*
X102280880Y-58713714D01*
X102185642Y-58761333D01*
X102138023Y-58856571D01*
X102138023Y-58951809D01*
X102614214Y-59047047D01*
X100995166Y-59332761D02*
X100899928Y-59380380D01*
X100709452Y-59380380D01*
X100614214Y-59332761D01*
X100566595Y-59237523D01*
X100566595Y-59189904D01*
X100614214Y-59094666D01*
X100709452Y-59047047D01*
X100852309Y-59047047D01*
X100947547Y-58999428D01*
X100995166Y-58904190D01*
X100995166Y-58856571D01*
X100947547Y-58761333D01*
X100852309Y-58713714D01*
X100709452Y-58713714D01*
X100614214Y-58761333D01*
X100138023Y-59380380D02*
X100138023Y-58380380D01*
X99709452Y-59380380D02*
X99709452Y-58856571D01*
X99757071Y-58761333D01*
X99852309Y-58713714D01*
X99995166Y-58713714D01*
X100090404Y-58761333D01*
X100138023Y-58808952D01*
X99233261Y-59380380D02*
X99233261Y-58713714D01*
X99233261Y-58380380D02*
X99280880Y-58428000D01*
X99233261Y-58475619D01*
X99185642Y-58428000D01*
X99233261Y-58380380D01*
X99233261Y-58475619D01*
X98899928Y-58713714D02*
X98518976Y-58713714D01*
X98757071Y-59380380D02*
X98757071Y-58523238D01*
X98709452Y-58428000D01*
X98614214Y-58380380D01*
X98518976Y-58380380D01*
X98328500Y-58713714D02*
X97947547Y-58713714D01*
X98185642Y-58380380D02*
X98185642Y-59237523D01*
X98138023Y-59332761D01*
X98042785Y-59380380D01*
X97947547Y-59380380D01*
X97233261Y-59332761D02*
X97328500Y-59380380D01*
X97518976Y-59380380D01*
X97614214Y-59332761D01*
X97661833Y-59237523D01*
X97661833Y-58856571D01*
X97614214Y-58761333D01*
X97518976Y-58713714D01*
X97328500Y-58713714D01*
X97233261Y-58761333D01*
X97185642Y-58856571D01*
X97185642Y-58951809D01*
X97661833Y-59047047D01*
X96757071Y-59380380D02*
X96757071Y-58713714D01*
X96757071Y-58904190D02*
X96709452Y-58808952D01*
X96661833Y-58761333D01*
X96566595Y-58713714D01*
X96471357Y-58713714D01*
X94899928Y-58380380D02*
X95376119Y-58380380D01*
X95423738Y-58856571D01*
X95376119Y-58808952D01*
X95280880Y-58761333D01*
X95042785Y-58761333D01*
X94947547Y-58808952D01*
X94899928Y-58856571D01*
X94852309Y-58951809D01*
X94852309Y-59189904D01*
X94899928Y-59285142D01*
X94947547Y-59332761D01*
X95042785Y-59380380D01*
X95280880Y-59380380D01*
X95376119Y-59332761D01*
X95423738Y-59285142D01*
X94423738Y-59285142D02*
X94376119Y-59332761D01*
X94423738Y-59380380D01*
X94471357Y-59332761D01*
X94423738Y-59285142D01*
X94423738Y-59380380D01*
X93804690Y-58808952D02*
X93899928Y-58761333D01*
X93947547Y-58713714D01*
X93995166Y-58618476D01*
X93995166Y-58570857D01*
X93947547Y-58475619D01*
X93899928Y-58428000D01*
X93804690Y-58380380D01*
X93614214Y-58380380D01*
X93518976Y-58428000D01*
X93471357Y-58475619D01*
X93423738Y-58570857D01*
X93423738Y-58618476D01*
X93471357Y-58713714D01*
X93518976Y-58761333D01*
X93614214Y-58808952D01*
X93804690Y-58808952D01*
X93899928Y-58856571D01*
X93947547Y-58904190D01*
X93995166Y-58999428D01*
X93995166Y-59189904D01*
X93947547Y-59285142D01*
X93899928Y-59332761D01*
X93804690Y-59380380D01*
X93614214Y-59380380D01*
X93518976Y-59332761D01*
X93471357Y-59285142D01*
X93423738Y-59189904D01*
X93423738Y-58999428D01*
X93471357Y-58904190D01*
X93518976Y-58856571D01*
X93614214Y-58808952D01*
X91709452Y-58428000D02*
X91804690Y-58380380D01*
X91947547Y-58380380D01*
X92090404Y-58428000D01*
X92185642Y-58523238D01*
X92233261Y-58618476D01*
X92280880Y-58808952D01*
X92280880Y-58951809D01*
X92233261Y-59142285D01*
X92185642Y-59237523D01*
X92090404Y-59332761D01*
X91947547Y-59380380D01*
X91852309Y-59380380D01*
X91709452Y-59332761D01*
X91661833Y-59285142D01*
X91661833Y-58951809D01*
X91852309Y-58951809D01*
X91233261Y-59380380D02*
X91233261Y-58380380D01*
X91233261Y-58856571D02*
X90661833Y-58856571D01*
X90661833Y-59380380D02*
X90661833Y-58380380D01*
X90280880Y-58713714D02*
X89757071Y-58713714D01*
X90280880Y-59380380D01*
X89757071Y-59380380D01*
X106090404Y-61030380D02*
X106090404Y-60030380D01*
X105757071Y-60744666D01*
X105423738Y-60030380D01*
X105423738Y-61030380D01*
X104518976Y-61030380D02*
X104518976Y-60506571D01*
X104566595Y-60411333D01*
X104661833Y-60363714D01*
X104852309Y-60363714D01*
X104947547Y-60411333D01*
X104518976Y-60982761D02*
X104614214Y-61030380D01*
X104852309Y-61030380D01*
X104947547Y-60982761D01*
X104995166Y-60887523D01*
X104995166Y-60792285D01*
X104947547Y-60697047D01*
X104852309Y-60649428D01*
X104614214Y-60649428D01*
X104518976Y-60601809D01*
X104042785Y-61030380D02*
X104042785Y-60363714D01*
X104042785Y-60554190D02*
X103995166Y-60458952D01*
X103947547Y-60411333D01*
X103852309Y-60363714D01*
X103757071Y-60363714D01*
X102995166Y-60982761D02*
X103090404Y-61030380D01*
X103280880Y-61030380D01*
X103376119Y-60982761D01*
X103423738Y-60935142D01*
X103471357Y-60839904D01*
X103471357Y-60554190D01*
X103423738Y-60458952D01*
X103376119Y-60411333D01*
X103280880Y-60363714D01*
X103090404Y-60363714D01*
X102995166Y-60411333D01*
X102566595Y-61030380D02*
X102566595Y-60363714D01*
X102566595Y-60030380D02*
X102614214Y-60078000D01*
X102566595Y-60125619D01*
X102518976Y-60078000D01*
X102566595Y-60030380D01*
X102566595Y-60125619D01*
X102090404Y-60363714D02*
X102090404Y-61030380D01*
X102090404Y-60458952D02*
X102042785Y-60411333D01*
X101947547Y-60363714D01*
X101804690Y-60363714D01*
X101709452Y-60411333D01*
X101661833Y-60506571D01*
X101661833Y-61030380D01*
X100518976Y-60030380D02*
X100280880Y-61030380D01*
X100090404Y-60316095D01*
X99899928Y-61030380D01*
X99661833Y-60030380D01*
X98852309Y-61030380D02*
X98852309Y-60506571D01*
X98899928Y-60411333D01*
X98995166Y-60363714D01*
X99185642Y-60363714D01*
X99280880Y-60411333D01*
X98852309Y-60982761D02*
X98947547Y-61030380D01*
X99185642Y-61030380D01*
X99280880Y-60982761D01*
X99328500Y-60887523D01*
X99328500Y-60792285D01*
X99280880Y-60697047D01*
X99185642Y-60649428D01*
X98947547Y-60649428D01*
X98852309Y-60601809D01*
X97947547Y-60982761D02*
X98042785Y-61030380D01*
X98233261Y-61030380D01*
X98328500Y-60982761D01*
X98376119Y-60935142D01*
X98423738Y-60839904D01*
X98423738Y-60554190D01*
X98376119Y-60458952D01*
X98328500Y-60411333D01*
X98233261Y-60363714D01*
X98042785Y-60363714D01*
X97947547Y-60411333D01*
X97518976Y-61030380D02*
X97518976Y-60030380D01*
X97090404Y-61030380D02*
X97090404Y-60506571D01*
X97138023Y-60411333D01*
X97233261Y-60363714D01*
X97376119Y-60363714D01*
X97471357Y-60411333D01*
X97518976Y-60458952D01*
X96471357Y-61030380D02*
X96566595Y-60982761D01*
X96614214Y-60935142D01*
X96661833Y-60839904D01*
X96661833Y-60554190D01*
X96614214Y-60458952D01*
X96566595Y-60411333D01*
X96471357Y-60363714D01*
X96328500Y-60363714D01*
X96233261Y-60411333D01*
X96185642Y-60458952D01*
X96138023Y-60554190D01*
X96138023Y-60839904D01*
X96185642Y-60935142D01*
X96233261Y-60982761D01*
X96328500Y-61030380D01*
X96471357Y-61030380D01*
X95804690Y-60363714D02*
X95614214Y-61030380D01*
X95423738Y-60554190D01*
X95233261Y-61030380D01*
X95042785Y-60363714D01*
X94661833Y-61030380D02*
X94661833Y-60363714D01*
X94661833Y-60030380D02*
X94709452Y-60078000D01*
X94661833Y-60125619D01*
X94614214Y-60078000D01*
X94661833Y-60030380D01*
X94661833Y-60125619D01*
X93757071Y-61030380D02*
X93757071Y-60506571D01*
X93804690Y-60411333D01*
X93899928Y-60363714D01*
X94090404Y-60363714D01*
X94185642Y-60411333D01*
X93757071Y-60982761D02*
X93852309Y-61030380D01*
X94090404Y-61030380D01*
X94185642Y-60982761D01*
X94233261Y-60887523D01*
X94233261Y-60792285D01*
X94185642Y-60697047D01*
X94090404Y-60649428D01*
X93852309Y-60649428D01*
X93757071Y-60601809D01*
X93280880Y-61030380D02*
X93280880Y-60030380D01*
X93185642Y-60649428D02*
X92899928Y-61030380D01*
X92899928Y-60363714D02*
X93280880Y-60744666D01*
X92423738Y-60982761D02*
X92423738Y-61030380D01*
X92471357Y-61125619D01*
X92518976Y-61173238D01*
X91233261Y-61030380D02*
X91233261Y-60030380D01*
X90852309Y-60030380D01*
X90757071Y-60078000D01*
X90709452Y-60125619D01*
X90661833Y-60220857D01*
X90661833Y-60363714D01*
X90709452Y-60458952D01*
X90757071Y-60506571D01*
X90852309Y-60554190D01*
X91233261Y-60554190D01*
X90090404Y-61030380D02*
X90185642Y-60982761D01*
X90233261Y-60935142D01*
X90280880Y-60839904D01*
X90280880Y-60554190D01*
X90233261Y-60458952D01*
X90185642Y-60411333D01*
X90090404Y-60363714D01*
X89947547Y-60363714D01*
X89852309Y-60411333D01*
X89804690Y-60458952D01*
X89757071Y-60554190D01*
X89757071Y-60839904D01*
X89804690Y-60935142D01*
X89852309Y-60982761D01*
X89947547Y-61030380D01*
X90090404Y-61030380D01*
X89185642Y-61030380D02*
X89280880Y-60982761D01*
X89328500Y-60887523D01*
X89328500Y-60030380D01*
X88376119Y-61030380D02*
X88376119Y-60506571D01*
X88423738Y-60411333D01*
X88518976Y-60363714D01*
X88709452Y-60363714D01*
X88804690Y-60411333D01*
X88376119Y-60982761D02*
X88471357Y-61030380D01*
X88709452Y-61030380D01*
X88804690Y-60982761D01*
X88852309Y-60887523D01*
X88852309Y-60792285D01*
X88804690Y-60697047D01*
X88709452Y-60649428D01*
X88471357Y-60649428D01*
X88376119Y-60601809D01*
X87899928Y-60363714D02*
X87899928Y-61030380D01*
X87899928Y-60458952D02*
X87852309Y-60411333D01*
X87757071Y-60363714D01*
X87614214Y-60363714D01*
X87518976Y-60411333D01*
X87471357Y-60506571D01*
X87471357Y-61030380D01*
X86566595Y-61030380D02*
X86566595Y-60030380D01*
X86566595Y-60982761D02*
X86661833Y-61030380D01*
X86852309Y-61030380D01*
X86947547Y-60982761D01*
X86995166Y-60935142D01*
X87042785Y-60839904D01*
X87042785Y-60554190D01*
X86995166Y-60458952D01*
X86947547Y-60411333D01*
X86852309Y-60363714D01*
X86661833Y-60363714D01*
X86566595Y-60411333D01*
%LPC*%
D11*
X75946000Y-61698000D03*
X75946000Y-56158000D03*
D12*
X87225000Y-66654000D03*
X81685000Y-66654000D03*
X81685000Y-51054000D03*
X87225000Y-51054000D03*
M02*
