M48
; DRILL file {KiCad 5.1.10-88a1d61d58~88~ubuntu18.04.1} date Mon Sep 27 17:31:07 2021
; FORMAT={-:-/ absolute / inch / decimal}
; #@! TF.CreationDate,2021-09-27T17:31:07+02:00
; #@! TF.GenerationSoftware,Kicad,Pcbnew,5.1.10-88a1d61d58~88~ubuntu18.04.1
; #@! TF.FileFunction,Plated,1,2,PTH
FMAT,2
INCH
T1C0.0157
T2C0.1181
%
G90
G05
T1
X2.945Y-2.15
X2.945Y-2.49
X2.99Y-2.15
X2.99Y-2.49
X3.035Y-2.15
X3.035Y-2.49
X3.11Y-2.27
X3.11Y-2.37
X3.15Y-1.97
X3.15Y-2.015
X3.15Y-2.06
X3.15Y-2.58
X3.15Y-2.625
X3.15Y-2.67
X3.3Y-2.32
X3.415Y-2.19
X3.415Y-2.45
X3.5Y-1.97
X3.5Y-2.015
X3.5Y-2.06
X3.5Y-2.58
X3.5Y-2.625
X3.5Y-2.67
X3.6625Y-2.2015
X3.6635Y-2.4385
X3.6975Y-2.2015
X3.6985Y-2.4385
X3.95Y-2.199
X3.95Y-2.441
X3.985Y-2.199
X3.985Y-2.441
T2
X2.995Y-2.015
X2.995Y-2.62
X3.98Y-2.015
X3.98Y-2.62
T0
M30
