G04 #@! TF.GenerationSoftware,KiCad,Pcbnew,5.1.10-88a1d61d58~88~ubuntu18.04.1*
G04 #@! TF.CreationDate,2021-09-27T18:20:55+02:00*
G04 #@! TF.ProjectId,rf_phase_shifter_5_8GHz,72665f70-6861-4736-955f-736869667465,1.0.0*
G04 #@! TF.SameCoordinates,Original*
G04 #@! TF.FileFunction,Copper,L2,Bot*
G04 #@! TF.FilePolarity,Positive*
%FSLAX46Y46*%
G04 Gerber Fmt 4.6, Leading zero omitted, Abs format (unit mm)*
G04 Created by KiCad (PCBNEW 5.1.10-88a1d61d58~88~ubuntu18.04.1) date 2021-09-27 18:20:55*
%MOMM*%
%LPD*%
G01*
G04 APERTURE LIST*
G04 #@! TA.AperFunction,SMDPad,CuDef*
%ADD10R,5.000000X1.600000*%
G04 #@! TD*
G04 #@! TA.AperFunction,SMDPad,CuDef*
%ADD11R,1.600000X5.000000*%
G04 #@! TD*
G04 #@! TA.AperFunction,ViaPad*
%ADD12C,5.000000*%
G04 #@! TD*
G04 #@! TA.AperFunction,ViaPad*
%ADD13C,0.800000*%
G04 #@! TD*
G04 #@! TA.AperFunction,Conductor*
%ADD14C,0.790000*%
G04 #@! TD*
G04 #@! TA.AperFunction,Conductor*
%ADD15C,0.254000*%
G04 #@! TD*
G04 #@! TA.AperFunction,Conductor*
%ADD16C,0.100000*%
G04 #@! TD*
G04 APERTURE END LIST*
D10*
X75946000Y-61698000D03*
X75946000Y-56158000D03*
D11*
X87225000Y-66654000D03*
X81685000Y-66654000D03*
X81685000Y-51054000D03*
X87225000Y-51054000D03*
D12*
X76073000Y-51181000D03*
X76073000Y-66548000D03*
X101092000Y-51181000D03*
X101092000Y-66548000D03*
D13*
X93916500Y-55918100D03*
X93027500Y-55918100D03*
X101219000Y-55854600D03*
X100330000Y-55854600D03*
X101219000Y-62001400D03*
X100330000Y-62001400D03*
X93941900Y-61937900D03*
X93052900Y-61937900D03*
X75946000Y-63246000D03*
X77089000Y-63246000D03*
X74803000Y-63246000D03*
X75946000Y-54610000D03*
X77089000Y-54610000D03*
X74803000Y-54610000D03*
X80010000Y-51181000D03*
X80010000Y-52324000D03*
X80010000Y-50038000D03*
X88900000Y-51181000D03*
X88900000Y-52324000D03*
X88900000Y-50038000D03*
X88900000Y-66675000D03*
X88900000Y-67818000D03*
X88900000Y-65532000D03*
X80010000Y-67818000D03*
X80010000Y-65532000D03*
X83820000Y-58928000D03*
X80010000Y-66675000D03*
X78994000Y-57658000D03*
X78994000Y-60198000D03*
X86741000Y-55626000D03*
X86741000Y-62230000D03*
D14*
X79062001Y-57589999D02*
X78994000Y-57658000D01*
X81026000Y-62230000D02*
X78994000Y-60198000D01*
X85217000Y-62230000D02*
X81026000Y-62230000D01*
X81026000Y-55626000D02*
X78994000Y-57658000D01*
X85217000Y-55626000D02*
X81026000Y-55626000D01*
X85217000Y-55626000D02*
X86741000Y-55626000D01*
X85217000Y-62230000D02*
X86741000Y-62230000D01*
D15*
X80250000Y-50768250D02*
X80408750Y-50927000D01*
X81558000Y-50927000D01*
X81558000Y-50907000D01*
X81812000Y-50907000D01*
X81812000Y-50927000D01*
X82961250Y-50927000D01*
X83120000Y-50768250D01*
X83122740Y-48793000D01*
X85787260Y-48793000D01*
X85790000Y-50768250D01*
X85948750Y-50927000D01*
X87098000Y-50927000D01*
X87098000Y-50907000D01*
X87352000Y-50907000D01*
X87352000Y-50927000D01*
X88501250Y-50927000D01*
X88660000Y-50768250D01*
X88662740Y-48793000D01*
X103480001Y-48793000D01*
X103480000Y-68936000D01*
X88662770Y-68936000D01*
X88660000Y-66939750D01*
X88501250Y-66781000D01*
X87352000Y-66781000D01*
X87352000Y-66801000D01*
X87098000Y-66801000D01*
X87098000Y-66781000D01*
X85948750Y-66781000D01*
X85790000Y-66939750D01*
X85787230Y-68936000D01*
X83122770Y-68936000D01*
X83120000Y-66939750D01*
X82961250Y-66781000D01*
X81812000Y-66781000D01*
X81812000Y-66801000D01*
X81558000Y-66801000D01*
X81558000Y-66781000D01*
X80408750Y-66781000D01*
X80250000Y-66939750D01*
X80247230Y-68936000D01*
X73685000Y-68936000D01*
X73685000Y-64154000D01*
X80246928Y-64154000D01*
X80250000Y-66368250D01*
X80408750Y-66527000D01*
X81558000Y-66527000D01*
X81558000Y-63677750D01*
X81812000Y-63677750D01*
X81812000Y-66527000D01*
X82961250Y-66527000D01*
X83120000Y-66368250D01*
X83123072Y-64154000D01*
X85786928Y-64154000D01*
X85790000Y-66368250D01*
X85948750Y-66527000D01*
X87098000Y-66527000D01*
X87098000Y-63677750D01*
X87352000Y-63677750D01*
X87352000Y-66527000D01*
X88501250Y-66527000D01*
X88660000Y-66368250D01*
X88663072Y-64154000D01*
X88650812Y-64029518D01*
X88614502Y-63909820D01*
X88555537Y-63799506D01*
X88476185Y-63702815D01*
X88379494Y-63623463D01*
X88269180Y-63564498D01*
X88149482Y-63528188D01*
X88025000Y-63515928D01*
X87510750Y-63519000D01*
X87352000Y-63677750D01*
X87098000Y-63677750D01*
X86939250Y-63519000D01*
X86425000Y-63515928D01*
X86300518Y-63528188D01*
X86180820Y-63564498D01*
X86070506Y-63623463D01*
X85973815Y-63702815D01*
X85894463Y-63799506D01*
X85835498Y-63909820D01*
X85799188Y-64029518D01*
X85786928Y-64154000D01*
X83123072Y-64154000D01*
X83110812Y-64029518D01*
X83074502Y-63909820D01*
X83015537Y-63799506D01*
X82936185Y-63702815D01*
X82839494Y-63623463D01*
X82729180Y-63564498D01*
X82609482Y-63528188D01*
X82485000Y-63515928D01*
X81970750Y-63519000D01*
X81812000Y-63677750D01*
X81558000Y-63677750D01*
X81399250Y-63519000D01*
X80885000Y-63515928D01*
X80760518Y-63528188D01*
X80640820Y-63564498D01*
X80530506Y-63623463D01*
X80433815Y-63702815D01*
X80354463Y-63799506D01*
X80295498Y-63909820D01*
X80259188Y-64029518D01*
X80246928Y-64154000D01*
X73685000Y-64154000D01*
X73685000Y-63135740D01*
X75660250Y-63133000D01*
X75819000Y-62974250D01*
X75819000Y-61825000D01*
X76073000Y-61825000D01*
X76073000Y-62974250D01*
X76231750Y-63133000D01*
X78446000Y-63136072D01*
X78570482Y-63123812D01*
X78690180Y-63087502D01*
X78800494Y-63028537D01*
X78897185Y-62949185D01*
X78976537Y-62852494D01*
X79035502Y-62742180D01*
X79071812Y-62622482D01*
X79084072Y-62498000D01*
X79081000Y-61983750D01*
X78922250Y-61825000D01*
X76073000Y-61825000D01*
X75819000Y-61825000D01*
X75799000Y-61825000D01*
X75799000Y-61571000D01*
X75819000Y-61571000D01*
X75819000Y-60421750D01*
X76073000Y-60421750D01*
X76073000Y-61571000D01*
X78922250Y-61571000D01*
X79081000Y-61412250D01*
X79081177Y-61382606D01*
X80450337Y-62751767D01*
X80474631Y-62781369D01*
X80504233Y-62805663D01*
X80504235Y-62805665D01*
X80541981Y-62836642D01*
X80592792Y-62878342D01*
X80655543Y-62911883D01*
X80727600Y-62950399D01*
X80873877Y-62994771D01*
X80887958Y-62996158D01*
X80987886Y-63006000D01*
X80987893Y-63006000D01*
X81026000Y-63009753D01*
X81064107Y-63006000D01*
X86638941Y-63006000D01*
X86664078Y-63011000D01*
X86817922Y-63011000D01*
X86968809Y-62980987D01*
X87110942Y-62922113D01*
X87238859Y-62836642D01*
X87347642Y-62727859D01*
X87433113Y-62599942D01*
X87491987Y-62457809D01*
X87522000Y-62306922D01*
X87522000Y-62153078D01*
X87491987Y-62002191D01*
X87433113Y-61860058D01*
X87347642Y-61732141D01*
X87238859Y-61623358D01*
X87110942Y-61537887D01*
X86968809Y-61479013D01*
X86817922Y-61449000D01*
X86664078Y-61449000D01*
X86638941Y-61454000D01*
X81347430Y-61454000D01*
X79614882Y-59721453D01*
X79600642Y-59700141D01*
X79491859Y-59591358D01*
X79363942Y-59505887D01*
X79221809Y-59447013D01*
X79070922Y-59417000D01*
X78917078Y-59417000D01*
X78766191Y-59447013D01*
X78624058Y-59505887D01*
X78496141Y-59591358D01*
X78387358Y-59700141D01*
X78301887Y-59828058D01*
X78243013Y-59970191D01*
X78213000Y-60121078D01*
X78213000Y-60260251D01*
X76231750Y-60263000D01*
X76073000Y-60421750D01*
X75819000Y-60421750D01*
X75660250Y-60263000D01*
X73685000Y-60260260D01*
X73685000Y-57595740D01*
X75660250Y-57593000D01*
X75819000Y-57434250D01*
X75819000Y-56285000D01*
X76073000Y-56285000D01*
X76073000Y-57434250D01*
X76231750Y-57593000D01*
X78213000Y-57595749D01*
X78213000Y-57734922D01*
X78243013Y-57885809D01*
X78301887Y-58027942D01*
X78387358Y-58155859D01*
X78496141Y-58264642D01*
X78624058Y-58350113D01*
X78766191Y-58408987D01*
X78917078Y-58439000D01*
X79070922Y-58439000D01*
X79221809Y-58408987D01*
X79363942Y-58350113D01*
X79491859Y-58264642D01*
X79600642Y-58155859D01*
X79614882Y-58134547D01*
X81347430Y-56402000D01*
X86638941Y-56402000D01*
X86664078Y-56407000D01*
X86817922Y-56407000D01*
X86968809Y-56376987D01*
X87110942Y-56318113D01*
X87238859Y-56232642D01*
X87347642Y-56123859D01*
X87433113Y-55995942D01*
X87491987Y-55853809D01*
X87522000Y-55702922D01*
X87522000Y-55549078D01*
X87491987Y-55398191D01*
X87433113Y-55256058D01*
X87347642Y-55128141D01*
X87238859Y-55019358D01*
X87110942Y-54933887D01*
X86968809Y-54875013D01*
X86817922Y-54845000D01*
X86664078Y-54845000D01*
X86638941Y-54850000D01*
X81064107Y-54850000D01*
X81026000Y-54846247D01*
X80987893Y-54850000D01*
X80987886Y-54850000D01*
X80887958Y-54859842D01*
X80873877Y-54861229D01*
X80727600Y-54905601D01*
X80655543Y-54944117D01*
X80592792Y-54977658D01*
X80592790Y-54977659D01*
X80592791Y-54977659D01*
X80504235Y-55050335D01*
X80504233Y-55050337D01*
X80474631Y-55074631D01*
X80450337Y-55104233D01*
X79081177Y-56473394D01*
X79081000Y-56443750D01*
X78922250Y-56285000D01*
X76073000Y-56285000D01*
X75819000Y-56285000D01*
X75799000Y-56285000D01*
X75799000Y-56031000D01*
X75819000Y-56031000D01*
X75819000Y-54881750D01*
X76073000Y-54881750D01*
X76073000Y-56031000D01*
X78922250Y-56031000D01*
X79081000Y-55872250D01*
X79084072Y-55358000D01*
X79071812Y-55233518D01*
X79035502Y-55113820D01*
X78976537Y-55003506D01*
X78897185Y-54906815D01*
X78800494Y-54827463D01*
X78690180Y-54768498D01*
X78570482Y-54732188D01*
X78446000Y-54719928D01*
X76231750Y-54723000D01*
X76073000Y-54881750D01*
X75819000Y-54881750D01*
X75660250Y-54723000D01*
X73685000Y-54720260D01*
X73685000Y-53554000D01*
X80246928Y-53554000D01*
X80259188Y-53678482D01*
X80295498Y-53798180D01*
X80354463Y-53908494D01*
X80433815Y-54005185D01*
X80530506Y-54084537D01*
X80640820Y-54143502D01*
X80760518Y-54179812D01*
X80885000Y-54192072D01*
X81399250Y-54189000D01*
X81558000Y-54030250D01*
X81558000Y-51181000D01*
X81812000Y-51181000D01*
X81812000Y-54030250D01*
X81970750Y-54189000D01*
X82485000Y-54192072D01*
X82609482Y-54179812D01*
X82729180Y-54143502D01*
X82839494Y-54084537D01*
X82936185Y-54005185D01*
X83015537Y-53908494D01*
X83074502Y-53798180D01*
X83110812Y-53678482D01*
X83123072Y-53554000D01*
X85786928Y-53554000D01*
X85799188Y-53678482D01*
X85835498Y-53798180D01*
X85894463Y-53908494D01*
X85973815Y-54005185D01*
X86070506Y-54084537D01*
X86180820Y-54143502D01*
X86300518Y-54179812D01*
X86425000Y-54192072D01*
X86939250Y-54189000D01*
X87098000Y-54030250D01*
X87098000Y-51181000D01*
X87352000Y-51181000D01*
X87352000Y-54030250D01*
X87510750Y-54189000D01*
X88025000Y-54192072D01*
X88149482Y-54179812D01*
X88269180Y-54143502D01*
X88379494Y-54084537D01*
X88476185Y-54005185D01*
X88555537Y-53908494D01*
X88614502Y-53798180D01*
X88650812Y-53678482D01*
X88663072Y-53554000D01*
X88660000Y-51339750D01*
X88501250Y-51181000D01*
X87352000Y-51181000D01*
X87098000Y-51181000D01*
X85948750Y-51181000D01*
X85790000Y-51339750D01*
X85786928Y-53554000D01*
X83123072Y-53554000D01*
X83120000Y-51339750D01*
X82961250Y-51181000D01*
X81812000Y-51181000D01*
X81558000Y-51181000D01*
X80408750Y-51181000D01*
X80250000Y-51339750D01*
X80246928Y-53554000D01*
X73685000Y-53554000D01*
X73685000Y-48793000D01*
X80247260Y-48793000D01*
X80250000Y-50768250D01*
G04 #@! TA.AperFunction,Conductor*
D16*
G36*
X80250000Y-50768250D02*
G01*
X80408750Y-50927000D01*
X81558000Y-50927000D01*
X81558000Y-50907000D01*
X81812000Y-50907000D01*
X81812000Y-50927000D01*
X82961250Y-50927000D01*
X83120000Y-50768250D01*
X83122740Y-48793000D01*
X85787260Y-48793000D01*
X85790000Y-50768250D01*
X85948750Y-50927000D01*
X87098000Y-50927000D01*
X87098000Y-50907000D01*
X87352000Y-50907000D01*
X87352000Y-50927000D01*
X88501250Y-50927000D01*
X88660000Y-50768250D01*
X88662740Y-48793000D01*
X103480001Y-48793000D01*
X103480000Y-68936000D01*
X88662770Y-68936000D01*
X88660000Y-66939750D01*
X88501250Y-66781000D01*
X87352000Y-66781000D01*
X87352000Y-66801000D01*
X87098000Y-66801000D01*
X87098000Y-66781000D01*
X85948750Y-66781000D01*
X85790000Y-66939750D01*
X85787230Y-68936000D01*
X83122770Y-68936000D01*
X83120000Y-66939750D01*
X82961250Y-66781000D01*
X81812000Y-66781000D01*
X81812000Y-66801000D01*
X81558000Y-66801000D01*
X81558000Y-66781000D01*
X80408750Y-66781000D01*
X80250000Y-66939750D01*
X80247230Y-68936000D01*
X73685000Y-68936000D01*
X73685000Y-64154000D01*
X80246928Y-64154000D01*
X80250000Y-66368250D01*
X80408750Y-66527000D01*
X81558000Y-66527000D01*
X81558000Y-63677750D01*
X81812000Y-63677750D01*
X81812000Y-66527000D01*
X82961250Y-66527000D01*
X83120000Y-66368250D01*
X83123072Y-64154000D01*
X85786928Y-64154000D01*
X85790000Y-66368250D01*
X85948750Y-66527000D01*
X87098000Y-66527000D01*
X87098000Y-63677750D01*
X87352000Y-63677750D01*
X87352000Y-66527000D01*
X88501250Y-66527000D01*
X88660000Y-66368250D01*
X88663072Y-64154000D01*
X88650812Y-64029518D01*
X88614502Y-63909820D01*
X88555537Y-63799506D01*
X88476185Y-63702815D01*
X88379494Y-63623463D01*
X88269180Y-63564498D01*
X88149482Y-63528188D01*
X88025000Y-63515928D01*
X87510750Y-63519000D01*
X87352000Y-63677750D01*
X87098000Y-63677750D01*
X86939250Y-63519000D01*
X86425000Y-63515928D01*
X86300518Y-63528188D01*
X86180820Y-63564498D01*
X86070506Y-63623463D01*
X85973815Y-63702815D01*
X85894463Y-63799506D01*
X85835498Y-63909820D01*
X85799188Y-64029518D01*
X85786928Y-64154000D01*
X83123072Y-64154000D01*
X83110812Y-64029518D01*
X83074502Y-63909820D01*
X83015537Y-63799506D01*
X82936185Y-63702815D01*
X82839494Y-63623463D01*
X82729180Y-63564498D01*
X82609482Y-63528188D01*
X82485000Y-63515928D01*
X81970750Y-63519000D01*
X81812000Y-63677750D01*
X81558000Y-63677750D01*
X81399250Y-63519000D01*
X80885000Y-63515928D01*
X80760518Y-63528188D01*
X80640820Y-63564498D01*
X80530506Y-63623463D01*
X80433815Y-63702815D01*
X80354463Y-63799506D01*
X80295498Y-63909820D01*
X80259188Y-64029518D01*
X80246928Y-64154000D01*
X73685000Y-64154000D01*
X73685000Y-63135740D01*
X75660250Y-63133000D01*
X75819000Y-62974250D01*
X75819000Y-61825000D01*
X76073000Y-61825000D01*
X76073000Y-62974250D01*
X76231750Y-63133000D01*
X78446000Y-63136072D01*
X78570482Y-63123812D01*
X78690180Y-63087502D01*
X78800494Y-63028537D01*
X78897185Y-62949185D01*
X78976537Y-62852494D01*
X79035502Y-62742180D01*
X79071812Y-62622482D01*
X79084072Y-62498000D01*
X79081000Y-61983750D01*
X78922250Y-61825000D01*
X76073000Y-61825000D01*
X75819000Y-61825000D01*
X75799000Y-61825000D01*
X75799000Y-61571000D01*
X75819000Y-61571000D01*
X75819000Y-60421750D01*
X76073000Y-60421750D01*
X76073000Y-61571000D01*
X78922250Y-61571000D01*
X79081000Y-61412250D01*
X79081177Y-61382606D01*
X80450337Y-62751767D01*
X80474631Y-62781369D01*
X80504233Y-62805663D01*
X80504235Y-62805665D01*
X80541981Y-62836642D01*
X80592792Y-62878342D01*
X80655543Y-62911883D01*
X80727600Y-62950399D01*
X80873877Y-62994771D01*
X80887958Y-62996158D01*
X80987886Y-63006000D01*
X80987893Y-63006000D01*
X81026000Y-63009753D01*
X81064107Y-63006000D01*
X86638941Y-63006000D01*
X86664078Y-63011000D01*
X86817922Y-63011000D01*
X86968809Y-62980987D01*
X87110942Y-62922113D01*
X87238859Y-62836642D01*
X87347642Y-62727859D01*
X87433113Y-62599942D01*
X87491987Y-62457809D01*
X87522000Y-62306922D01*
X87522000Y-62153078D01*
X87491987Y-62002191D01*
X87433113Y-61860058D01*
X87347642Y-61732141D01*
X87238859Y-61623358D01*
X87110942Y-61537887D01*
X86968809Y-61479013D01*
X86817922Y-61449000D01*
X86664078Y-61449000D01*
X86638941Y-61454000D01*
X81347430Y-61454000D01*
X79614882Y-59721453D01*
X79600642Y-59700141D01*
X79491859Y-59591358D01*
X79363942Y-59505887D01*
X79221809Y-59447013D01*
X79070922Y-59417000D01*
X78917078Y-59417000D01*
X78766191Y-59447013D01*
X78624058Y-59505887D01*
X78496141Y-59591358D01*
X78387358Y-59700141D01*
X78301887Y-59828058D01*
X78243013Y-59970191D01*
X78213000Y-60121078D01*
X78213000Y-60260251D01*
X76231750Y-60263000D01*
X76073000Y-60421750D01*
X75819000Y-60421750D01*
X75660250Y-60263000D01*
X73685000Y-60260260D01*
X73685000Y-57595740D01*
X75660250Y-57593000D01*
X75819000Y-57434250D01*
X75819000Y-56285000D01*
X76073000Y-56285000D01*
X76073000Y-57434250D01*
X76231750Y-57593000D01*
X78213000Y-57595749D01*
X78213000Y-57734922D01*
X78243013Y-57885809D01*
X78301887Y-58027942D01*
X78387358Y-58155859D01*
X78496141Y-58264642D01*
X78624058Y-58350113D01*
X78766191Y-58408987D01*
X78917078Y-58439000D01*
X79070922Y-58439000D01*
X79221809Y-58408987D01*
X79363942Y-58350113D01*
X79491859Y-58264642D01*
X79600642Y-58155859D01*
X79614882Y-58134547D01*
X81347430Y-56402000D01*
X86638941Y-56402000D01*
X86664078Y-56407000D01*
X86817922Y-56407000D01*
X86968809Y-56376987D01*
X87110942Y-56318113D01*
X87238859Y-56232642D01*
X87347642Y-56123859D01*
X87433113Y-55995942D01*
X87491987Y-55853809D01*
X87522000Y-55702922D01*
X87522000Y-55549078D01*
X87491987Y-55398191D01*
X87433113Y-55256058D01*
X87347642Y-55128141D01*
X87238859Y-55019358D01*
X87110942Y-54933887D01*
X86968809Y-54875013D01*
X86817922Y-54845000D01*
X86664078Y-54845000D01*
X86638941Y-54850000D01*
X81064107Y-54850000D01*
X81026000Y-54846247D01*
X80987893Y-54850000D01*
X80987886Y-54850000D01*
X80887958Y-54859842D01*
X80873877Y-54861229D01*
X80727600Y-54905601D01*
X80655543Y-54944117D01*
X80592792Y-54977658D01*
X80592790Y-54977659D01*
X80592791Y-54977659D01*
X80504235Y-55050335D01*
X80504233Y-55050337D01*
X80474631Y-55074631D01*
X80450337Y-55104233D01*
X79081177Y-56473394D01*
X79081000Y-56443750D01*
X78922250Y-56285000D01*
X76073000Y-56285000D01*
X75819000Y-56285000D01*
X75799000Y-56285000D01*
X75799000Y-56031000D01*
X75819000Y-56031000D01*
X75819000Y-54881750D01*
X76073000Y-54881750D01*
X76073000Y-56031000D01*
X78922250Y-56031000D01*
X79081000Y-55872250D01*
X79084072Y-55358000D01*
X79071812Y-55233518D01*
X79035502Y-55113820D01*
X78976537Y-55003506D01*
X78897185Y-54906815D01*
X78800494Y-54827463D01*
X78690180Y-54768498D01*
X78570482Y-54732188D01*
X78446000Y-54719928D01*
X76231750Y-54723000D01*
X76073000Y-54881750D01*
X75819000Y-54881750D01*
X75660250Y-54723000D01*
X73685000Y-54720260D01*
X73685000Y-53554000D01*
X80246928Y-53554000D01*
X80259188Y-53678482D01*
X80295498Y-53798180D01*
X80354463Y-53908494D01*
X80433815Y-54005185D01*
X80530506Y-54084537D01*
X80640820Y-54143502D01*
X80760518Y-54179812D01*
X80885000Y-54192072D01*
X81399250Y-54189000D01*
X81558000Y-54030250D01*
X81558000Y-51181000D01*
X81812000Y-51181000D01*
X81812000Y-54030250D01*
X81970750Y-54189000D01*
X82485000Y-54192072D01*
X82609482Y-54179812D01*
X82729180Y-54143502D01*
X82839494Y-54084537D01*
X82936185Y-54005185D01*
X83015537Y-53908494D01*
X83074502Y-53798180D01*
X83110812Y-53678482D01*
X83123072Y-53554000D01*
X85786928Y-53554000D01*
X85799188Y-53678482D01*
X85835498Y-53798180D01*
X85894463Y-53908494D01*
X85973815Y-54005185D01*
X86070506Y-54084537D01*
X86180820Y-54143502D01*
X86300518Y-54179812D01*
X86425000Y-54192072D01*
X86939250Y-54189000D01*
X87098000Y-54030250D01*
X87098000Y-51181000D01*
X87352000Y-51181000D01*
X87352000Y-54030250D01*
X87510750Y-54189000D01*
X88025000Y-54192072D01*
X88149482Y-54179812D01*
X88269180Y-54143502D01*
X88379494Y-54084537D01*
X88476185Y-54005185D01*
X88555537Y-53908494D01*
X88614502Y-53798180D01*
X88650812Y-53678482D01*
X88663072Y-53554000D01*
X88660000Y-51339750D01*
X88501250Y-51181000D01*
X87352000Y-51181000D01*
X87098000Y-51181000D01*
X85948750Y-51181000D01*
X85790000Y-51339750D01*
X85786928Y-53554000D01*
X83123072Y-53554000D01*
X83120000Y-51339750D01*
X82961250Y-51181000D01*
X81812000Y-51181000D01*
X81558000Y-51181000D01*
X80408750Y-51181000D01*
X80250000Y-51339750D01*
X80246928Y-53554000D01*
X73685000Y-53554000D01*
X73685000Y-48793000D01*
X80247260Y-48793000D01*
X80250000Y-50768250D01*
G37*
G04 #@! TD.AperFunction*
M02*
