G04 #@! TF.GenerationSoftware,KiCad,Pcbnew,5.1.10-88a1d61d58~88~ubuntu18.04.1*
G04 #@! TF.CreationDate,2021-09-29T08:18:59+02:00*
G04 #@! TF.ProjectId,rf_phase_shifter_5_8GHz,72665f70-6861-4736-955f-736869667465,1.0.0*
G04 #@! TF.SameCoordinates,Original*
G04 #@! TF.FileFunction,Legend,Bot*
G04 #@! TF.FilePolarity,Positive*
%FSLAX46Y46*%
G04 Gerber Fmt 4.6, Leading zero omitted, Abs format (unit mm)*
G04 Created by KiCad (PCBNEW 5.1.10-88a1d61d58~88~ubuntu18.04.1) date 2021-09-29 08:18:59*
%MOMM*%
%LPD*%
G01*
G04 APERTURE LIST*
%ADD10C,0.150000*%
%ADD11R,5.000000X1.600000*%
%ADD12R,1.600000X5.000000*%
G04 APERTURE END LIST*
D10*
X103090023Y-57444666D02*
X102613833Y-57444666D01*
X103185261Y-57730380D02*
X102851928Y-56730380D01*
X102518595Y-57730380D01*
X102185261Y-57063714D02*
X102185261Y-57730380D01*
X102185261Y-57158952D02*
X102137642Y-57111333D01*
X102042404Y-57063714D01*
X101899547Y-57063714D01*
X101804309Y-57111333D01*
X101756690Y-57206571D01*
X101756690Y-57730380D01*
X100851928Y-57730380D02*
X100851928Y-57206571D01*
X100899547Y-57111333D01*
X100994785Y-57063714D01*
X101185261Y-57063714D01*
X101280500Y-57111333D01*
X100851928Y-57682761D02*
X100947166Y-57730380D01*
X101185261Y-57730380D01*
X101280500Y-57682761D01*
X101328119Y-57587523D01*
X101328119Y-57492285D01*
X101280500Y-57397047D01*
X101185261Y-57349428D01*
X100947166Y-57349428D01*
X100851928Y-57301809D01*
X100232880Y-57730380D02*
X100328119Y-57682761D01*
X100375738Y-57587523D01*
X100375738Y-56730380D01*
X99709071Y-57730380D02*
X99804309Y-57682761D01*
X99851928Y-57635142D01*
X99899547Y-57539904D01*
X99899547Y-57254190D01*
X99851928Y-57158952D01*
X99804309Y-57111333D01*
X99709071Y-57063714D01*
X99566214Y-57063714D01*
X99470976Y-57111333D01*
X99423357Y-57158952D01*
X99375738Y-57254190D01*
X99375738Y-57539904D01*
X99423357Y-57635142D01*
X99470976Y-57682761D01*
X99566214Y-57730380D01*
X99709071Y-57730380D01*
X98518595Y-57063714D02*
X98518595Y-57873238D01*
X98566214Y-57968476D01*
X98613833Y-58016095D01*
X98709071Y-58063714D01*
X98851928Y-58063714D01*
X98947166Y-58016095D01*
X98518595Y-57682761D02*
X98613833Y-57730380D01*
X98804309Y-57730380D01*
X98899547Y-57682761D01*
X98947166Y-57635142D01*
X98994785Y-57539904D01*
X98994785Y-57254190D01*
X98947166Y-57158952D01*
X98899547Y-57111333D01*
X98804309Y-57063714D01*
X98613833Y-57063714D01*
X98518595Y-57111333D01*
X96709071Y-57730380D02*
X97042404Y-57254190D01*
X97280500Y-57730380D02*
X97280500Y-56730380D01*
X96899547Y-56730380D01*
X96804309Y-56778000D01*
X96756690Y-56825619D01*
X96709071Y-56920857D01*
X96709071Y-57063714D01*
X96756690Y-57158952D01*
X96804309Y-57206571D01*
X96899547Y-57254190D01*
X97280500Y-57254190D01*
X95947166Y-57206571D02*
X96280499Y-57206571D01*
X96280499Y-57730380D02*
X96280499Y-56730380D01*
X95804309Y-56730380D01*
X103042404Y-58713714D02*
X103042404Y-59713714D01*
X103042404Y-58761333D02*
X102947166Y-58713714D01*
X102756690Y-58713714D01*
X102661452Y-58761333D01*
X102613833Y-58808952D01*
X102566214Y-58904190D01*
X102566214Y-59189904D01*
X102613833Y-59285142D01*
X102661452Y-59332761D01*
X102756690Y-59380380D01*
X102947166Y-59380380D01*
X103042404Y-59332761D01*
X102137642Y-59380380D02*
X102137642Y-58380380D01*
X101709071Y-59380380D02*
X101709071Y-58856571D01*
X101756690Y-58761333D01*
X101851928Y-58713714D01*
X101994785Y-58713714D01*
X102090023Y-58761333D01*
X102137642Y-58808952D01*
X100804309Y-59380380D02*
X100804309Y-58856571D01*
X100851928Y-58761333D01*
X100947166Y-58713714D01*
X101137642Y-58713714D01*
X101232880Y-58761333D01*
X100804309Y-59332761D02*
X100899547Y-59380380D01*
X101137642Y-59380380D01*
X101232880Y-59332761D01*
X101280500Y-59237523D01*
X101280500Y-59142285D01*
X101232880Y-59047047D01*
X101137642Y-58999428D01*
X100899547Y-58999428D01*
X100804309Y-58951809D01*
X100375738Y-59332761D02*
X100280500Y-59380380D01*
X100090023Y-59380380D01*
X99994785Y-59332761D01*
X99947166Y-59237523D01*
X99947166Y-59189904D01*
X99994785Y-59094666D01*
X100090023Y-59047047D01*
X100232880Y-59047047D01*
X100328119Y-58999428D01*
X100375738Y-58904190D01*
X100375738Y-58856571D01*
X100328119Y-58761333D01*
X100232880Y-58713714D01*
X100090023Y-58713714D01*
X99994785Y-58761333D01*
X99137642Y-59332761D02*
X99232880Y-59380380D01*
X99423357Y-59380380D01*
X99518595Y-59332761D01*
X99566214Y-59237523D01*
X99566214Y-58856571D01*
X99518595Y-58761333D01*
X99423357Y-58713714D01*
X99232880Y-58713714D01*
X99137642Y-58761333D01*
X99090023Y-58856571D01*
X99090023Y-58951809D01*
X99566214Y-59047047D01*
X97947166Y-59332761D02*
X97851928Y-59380380D01*
X97661452Y-59380380D01*
X97566214Y-59332761D01*
X97518595Y-59237523D01*
X97518595Y-59189904D01*
X97566214Y-59094666D01*
X97661452Y-59047047D01*
X97804309Y-59047047D01*
X97899547Y-58999428D01*
X97947166Y-58904190D01*
X97947166Y-58856571D01*
X97899547Y-58761333D01*
X97804309Y-58713714D01*
X97661452Y-58713714D01*
X97566214Y-58761333D01*
X97090023Y-59380380D02*
X97090023Y-58380380D01*
X96661452Y-59380380D02*
X96661452Y-58856571D01*
X96709071Y-58761333D01*
X96804309Y-58713714D01*
X96947166Y-58713714D01*
X97042404Y-58761333D01*
X97090023Y-58808952D01*
X96185261Y-59380380D02*
X96185261Y-58713714D01*
X96185261Y-58380380D02*
X96232880Y-58428000D01*
X96185261Y-58475619D01*
X96137642Y-58428000D01*
X96185261Y-58380380D01*
X96185261Y-58475619D01*
X95851928Y-58713714D02*
X95470976Y-58713714D01*
X95709071Y-59380380D02*
X95709071Y-58523238D01*
X95661452Y-58428000D01*
X95566214Y-58380380D01*
X95470976Y-58380380D01*
X95280500Y-58713714D02*
X94899547Y-58713714D01*
X95137642Y-58380380D02*
X95137642Y-59237523D01*
X95090023Y-59332761D01*
X94994785Y-59380380D01*
X94899547Y-59380380D01*
X94185261Y-59332761D02*
X94280500Y-59380380D01*
X94470976Y-59380380D01*
X94566214Y-59332761D01*
X94613833Y-59237523D01*
X94613833Y-58856571D01*
X94566214Y-58761333D01*
X94470976Y-58713714D01*
X94280500Y-58713714D01*
X94185261Y-58761333D01*
X94137642Y-58856571D01*
X94137642Y-58951809D01*
X94613833Y-59047047D01*
X93709071Y-59380380D02*
X93709071Y-58713714D01*
X93709071Y-58904190D02*
X93661452Y-58808952D01*
X93613833Y-58761333D01*
X93518595Y-58713714D01*
X93423357Y-58713714D01*
X91851928Y-58380380D02*
X92328119Y-58380380D01*
X92375738Y-58856571D01*
X92328119Y-58808952D01*
X92232880Y-58761333D01*
X91994785Y-58761333D01*
X91899547Y-58808952D01*
X91851928Y-58856571D01*
X91804309Y-58951809D01*
X91804309Y-59189904D01*
X91851928Y-59285142D01*
X91899547Y-59332761D01*
X91994785Y-59380380D01*
X92232880Y-59380380D01*
X92328119Y-59332761D01*
X92375738Y-59285142D01*
X91375738Y-59285142D02*
X91328119Y-59332761D01*
X91375738Y-59380380D01*
X91423357Y-59332761D01*
X91375738Y-59285142D01*
X91375738Y-59380380D01*
X90756690Y-58808952D02*
X90851928Y-58761333D01*
X90899547Y-58713714D01*
X90947166Y-58618476D01*
X90947166Y-58570857D01*
X90899547Y-58475619D01*
X90851928Y-58428000D01*
X90756690Y-58380380D01*
X90566214Y-58380380D01*
X90470976Y-58428000D01*
X90423357Y-58475619D01*
X90375738Y-58570857D01*
X90375738Y-58618476D01*
X90423357Y-58713714D01*
X90470976Y-58761333D01*
X90566214Y-58808952D01*
X90756690Y-58808952D01*
X90851928Y-58856571D01*
X90899547Y-58904190D01*
X90947166Y-58999428D01*
X90947166Y-59189904D01*
X90899547Y-59285142D01*
X90851928Y-59332761D01*
X90756690Y-59380380D01*
X90566214Y-59380380D01*
X90470976Y-59332761D01*
X90423357Y-59285142D01*
X90375738Y-59189904D01*
X90375738Y-58999428D01*
X90423357Y-58904190D01*
X90470976Y-58856571D01*
X90566214Y-58808952D01*
X88661452Y-58428000D02*
X88756690Y-58380380D01*
X88899547Y-58380380D01*
X89042404Y-58428000D01*
X89137642Y-58523238D01*
X89185261Y-58618476D01*
X89232880Y-58808952D01*
X89232880Y-58951809D01*
X89185261Y-59142285D01*
X89137642Y-59237523D01*
X89042404Y-59332761D01*
X88899547Y-59380380D01*
X88804309Y-59380380D01*
X88661452Y-59332761D01*
X88613833Y-59285142D01*
X88613833Y-58951809D01*
X88804309Y-58951809D01*
X88185261Y-59380380D02*
X88185261Y-58380380D01*
X88185261Y-58856571D02*
X87613833Y-58856571D01*
X87613833Y-59380380D02*
X87613833Y-58380380D01*
X87232880Y-58713714D02*
X86709071Y-58713714D01*
X87232880Y-59380380D01*
X86709071Y-59380380D01*
X103042404Y-61030380D02*
X103042404Y-60030380D01*
X102709071Y-60744666D01*
X102375738Y-60030380D01*
X102375738Y-61030380D01*
X101470976Y-61030380D02*
X101470976Y-60506571D01*
X101518595Y-60411333D01*
X101613833Y-60363714D01*
X101804309Y-60363714D01*
X101899547Y-60411333D01*
X101470976Y-60982761D02*
X101566214Y-61030380D01*
X101804309Y-61030380D01*
X101899547Y-60982761D01*
X101947166Y-60887523D01*
X101947166Y-60792285D01*
X101899547Y-60697047D01*
X101804309Y-60649428D01*
X101566214Y-60649428D01*
X101470976Y-60601809D01*
X100994785Y-61030380D02*
X100994785Y-60363714D01*
X100994785Y-60554190D02*
X100947166Y-60458952D01*
X100899547Y-60411333D01*
X100804309Y-60363714D01*
X100709071Y-60363714D01*
X99947166Y-60982761D02*
X100042404Y-61030380D01*
X100232880Y-61030380D01*
X100328119Y-60982761D01*
X100375738Y-60935142D01*
X100423357Y-60839904D01*
X100423357Y-60554190D01*
X100375738Y-60458952D01*
X100328119Y-60411333D01*
X100232880Y-60363714D01*
X100042404Y-60363714D01*
X99947166Y-60411333D01*
X99518595Y-61030380D02*
X99518595Y-60363714D01*
X99518595Y-60030380D02*
X99566214Y-60078000D01*
X99518595Y-60125619D01*
X99470976Y-60078000D01*
X99518595Y-60030380D01*
X99518595Y-60125619D01*
X99042404Y-60363714D02*
X99042404Y-61030380D01*
X99042404Y-60458952D02*
X98994785Y-60411333D01*
X98899547Y-60363714D01*
X98756690Y-60363714D01*
X98661452Y-60411333D01*
X98613833Y-60506571D01*
X98613833Y-61030380D01*
X97470976Y-60030380D02*
X97232880Y-61030380D01*
X97042404Y-60316095D01*
X96851928Y-61030380D01*
X96613833Y-60030380D01*
X95804309Y-61030380D02*
X95804309Y-60506571D01*
X95851928Y-60411333D01*
X95947166Y-60363714D01*
X96137642Y-60363714D01*
X96232880Y-60411333D01*
X95804309Y-60982761D02*
X95899547Y-61030380D01*
X96137642Y-61030380D01*
X96232880Y-60982761D01*
X96280500Y-60887523D01*
X96280500Y-60792285D01*
X96232880Y-60697047D01*
X96137642Y-60649428D01*
X95899547Y-60649428D01*
X95804309Y-60601809D01*
X94899547Y-60982761D02*
X94994785Y-61030380D01*
X95185261Y-61030380D01*
X95280500Y-60982761D01*
X95328119Y-60935142D01*
X95375738Y-60839904D01*
X95375738Y-60554190D01*
X95328119Y-60458952D01*
X95280500Y-60411333D01*
X95185261Y-60363714D01*
X94994785Y-60363714D01*
X94899547Y-60411333D01*
X94470976Y-61030380D02*
X94470976Y-60030380D01*
X94042404Y-61030380D02*
X94042404Y-60506571D01*
X94090023Y-60411333D01*
X94185261Y-60363714D01*
X94328119Y-60363714D01*
X94423357Y-60411333D01*
X94470976Y-60458952D01*
X93423357Y-61030380D02*
X93518595Y-60982761D01*
X93566214Y-60935142D01*
X93613833Y-60839904D01*
X93613833Y-60554190D01*
X93566214Y-60458952D01*
X93518595Y-60411333D01*
X93423357Y-60363714D01*
X93280500Y-60363714D01*
X93185261Y-60411333D01*
X93137642Y-60458952D01*
X93090023Y-60554190D01*
X93090023Y-60839904D01*
X93137642Y-60935142D01*
X93185261Y-60982761D01*
X93280500Y-61030380D01*
X93423357Y-61030380D01*
X92756690Y-60363714D02*
X92566214Y-61030380D01*
X92375738Y-60554190D01*
X92185261Y-61030380D01*
X91994785Y-60363714D01*
X91613833Y-61030380D02*
X91613833Y-60363714D01*
X91613833Y-60030380D02*
X91661452Y-60078000D01*
X91613833Y-60125619D01*
X91566214Y-60078000D01*
X91613833Y-60030380D01*
X91613833Y-60125619D01*
X90709071Y-61030380D02*
X90709071Y-60506571D01*
X90756690Y-60411333D01*
X90851928Y-60363714D01*
X91042404Y-60363714D01*
X91137642Y-60411333D01*
X90709071Y-60982761D02*
X90804309Y-61030380D01*
X91042404Y-61030380D01*
X91137642Y-60982761D01*
X91185261Y-60887523D01*
X91185261Y-60792285D01*
X91137642Y-60697047D01*
X91042404Y-60649428D01*
X90804309Y-60649428D01*
X90709071Y-60601809D01*
X90232880Y-61030380D02*
X90232880Y-60030380D01*
X90137642Y-60649428D02*
X89851928Y-61030380D01*
X89851928Y-60363714D02*
X90232880Y-60744666D01*
X89375738Y-60982761D02*
X89375738Y-61030380D01*
X89423357Y-61125619D01*
X89470976Y-61173238D01*
X88185261Y-61030380D02*
X88185261Y-60030380D01*
X87804309Y-60030380D01*
X87709071Y-60078000D01*
X87661452Y-60125619D01*
X87613833Y-60220857D01*
X87613833Y-60363714D01*
X87661452Y-60458952D01*
X87709071Y-60506571D01*
X87804309Y-60554190D01*
X88185261Y-60554190D01*
X87042404Y-61030380D02*
X87137642Y-60982761D01*
X87185261Y-60935142D01*
X87232880Y-60839904D01*
X87232880Y-60554190D01*
X87185261Y-60458952D01*
X87137642Y-60411333D01*
X87042404Y-60363714D01*
X86899547Y-60363714D01*
X86804309Y-60411333D01*
X86756690Y-60458952D01*
X86709071Y-60554190D01*
X86709071Y-60839904D01*
X86756690Y-60935142D01*
X86804309Y-60982761D01*
X86899547Y-61030380D01*
X87042404Y-61030380D01*
X86137642Y-61030380D02*
X86232880Y-60982761D01*
X86280500Y-60887523D01*
X86280500Y-60030380D01*
X85328119Y-61030380D02*
X85328119Y-60506571D01*
X85375738Y-60411333D01*
X85470976Y-60363714D01*
X85661452Y-60363714D01*
X85756690Y-60411333D01*
X85328119Y-60982761D02*
X85423357Y-61030380D01*
X85661452Y-61030380D01*
X85756690Y-60982761D01*
X85804309Y-60887523D01*
X85804309Y-60792285D01*
X85756690Y-60697047D01*
X85661452Y-60649428D01*
X85423357Y-60649428D01*
X85328119Y-60601809D01*
X84851928Y-60363714D02*
X84851928Y-61030380D01*
X84851928Y-60458952D02*
X84804309Y-60411333D01*
X84709071Y-60363714D01*
X84566214Y-60363714D01*
X84470976Y-60411333D01*
X84423357Y-60506571D01*
X84423357Y-61030380D01*
X83518595Y-61030380D02*
X83518595Y-60030380D01*
X83518595Y-60982761D02*
X83613833Y-61030380D01*
X83804309Y-61030380D01*
X83899547Y-60982761D01*
X83947166Y-60935142D01*
X83994785Y-60839904D01*
X83994785Y-60554190D01*
X83947166Y-60458952D01*
X83899547Y-60411333D01*
X83804309Y-60363714D01*
X83613833Y-60363714D01*
X83518595Y-60411333D01*
%LPC*%
D11*
X75946000Y-61698000D03*
X75946000Y-56158000D03*
D12*
X87225000Y-66654000D03*
X81685000Y-66654000D03*
X81685000Y-51054000D03*
X87225000Y-51054000D03*
M02*
