%TF.GenerationSoftware,KiCad,Pcbnew,5.1.10-88a1d61d58~88~ubuntu18.04.1*%
%TF.CreationDate,2021-09-27T15:38:39+02:00*%
%TF.ProjectId,rf_phase_shifter_5_8GHz,72665f70-6861-4736-955f-736869667465,1.0.0*%
%TF.SameCoordinates,Original*%
%TF.FileFunction,Paste,Top*%
%TF.FilePolarity,Positive*%
%FSLAX46Y46*%
G04 Gerber Fmt 4.6, Leading zero omitted, Abs format (unit mm)*
G04 Created by KiCad (PCBNEW 5.1.10-88a1d61d58~88~ubuntu18.04.1) date 2021-09-27 15:38:39*
%MOMM*%
%LPD*%
G01*
G04 APERTURE LIST*
%ADD10R,5.000000X1.200000*%
%ADD11R,5.000000X1.600000*%
%ADD12R,1.200000X5.000000*%
%ADD13R,1.600000X5.000000*%
%ADD14R,0.330000X0.350000*%
%ADD15R,0.700000X0.600000*%
G04 APERTURE END LIST*
D10*
%TO.C,J3*%
X75946000Y-58928000D03*
D11*
X75946000Y-61698000D03*
X75946000Y-56158000D03*
%TD*%
D12*
%TO.C,J2*%
X84455000Y-66654000D03*
D13*
X87225000Y-66654000D03*
X81685000Y-66654000D03*
%TD*%
D12*
%TO.C,J1*%
X84455000Y-51054000D03*
D13*
X81685000Y-51054000D03*
X87225000Y-51054000D03*
%TD*%
D14*
%TO.C,FL1*%
X85103000Y-58278000D03*
X85103000Y-58928000D03*
X85103000Y-59578000D03*
X86093000Y-59578000D03*
X86093000Y-58928000D03*
X86093000Y-58278000D03*
%TD*%
D15*
%TO.C,D4*%
X100685600Y-59586900D03*
X100685600Y-60986900D03*
%TD*%
%TO.C,L2*%
G36*
G01*
X88140250Y-60254500D02*
X87627750Y-60254500D01*
G75*
G02*
X87409000Y-60035750I0J218750D01*
G01*
X87409000Y-59598250D01*
G75*
G02*
X87627750Y-59379500I218750J0D01*
G01*
X88140250Y-59379500D01*
G75*
G02*
X88359000Y-59598250I0J-218750D01*
G01*
X88359000Y-60035750D01*
G75*
G02*
X88140250Y-60254500I-218750J0D01*
G01*
G37*
G36*
G01*
X88140250Y-61829500D02*
X87627750Y-61829500D01*
G75*
G02*
X87409000Y-61610750I0J218750D01*
G01*
X87409000Y-61173250D01*
G75*
G02*
X87627750Y-60954500I218750J0D01*
G01*
X88140250Y-60954500D01*
G75*
G02*
X88359000Y-61173250I0J-218750D01*
G01*
X88359000Y-61610750D01*
G75*
G02*
X88140250Y-61829500I-218750J0D01*
G01*
G37*
%TD*%
%TO.C,L1*%
G36*
G01*
X87627750Y-57601500D02*
X88140250Y-57601500D01*
G75*
G02*
X88359000Y-57820250I0J-218750D01*
G01*
X88359000Y-58257750D01*
G75*
G02*
X88140250Y-58476500I-218750J0D01*
G01*
X87627750Y-58476500D01*
G75*
G02*
X87409000Y-58257750I0J218750D01*
G01*
X87409000Y-57820250D01*
G75*
G02*
X87627750Y-57601500I218750J0D01*
G01*
G37*
G36*
G01*
X87627750Y-56026500D02*
X88140250Y-56026500D01*
G75*
G02*
X88359000Y-56245250I0J-218750D01*
G01*
X88359000Y-56682750D01*
G75*
G02*
X88140250Y-56901500I-218750J0D01*
G01*
X87627750Y-56901500D01*
G75*
G02*
X87409000Y-56682750I0J218750D01*
G01*
X87409000Y-56245250D01*
G75*
G02*
X87627750Y-56026500I218750J0D01*
G01*
G37*
%TD*%
%TO.C,D3*%
X100685600Y-58269100D03*
X100685600Y-56869100D03*
%TD*%
%TO.C,D2*%
X93484700Y-60986900D03*
X93484700Y-59586900D03*
%TD*%
%TO.C,D1*%
X93472000Y-56869100D03*
X93472000Y-58269100D03*
%TD*%
%TO.C,C2*%
G36*
G01*
X84705000Y-61905000D02*
X84205000Y-61905000D01*
G75*
G02*
X83980000Y-61680000I0J225000D01*
G01*
X83980000Y-61230000D01*
G75*
G02*
X84205000Y-61005000I225000J0D01*
G01*
X84705000Y-61005000D01*
G75*
G02*
X84930000Y-61230000I0J-225000D01*
G01*
X84930000Y-61680000D01*
G75*
G02*
X84705000Y-61905000I-225000J0D01*
G01*
G37*
G36*
G01*
X84705000Y-63455000D02*
X84205000Y-63455000D01*
G75*
G02*
X83980000Y-63230000I0J225000D01*
G01*
X83980000Y-62780000D01*
G75*
G02*
X84205000Y-62555000I225000J0D01*
G01*
X84705000Y-62555000D01*
G75*
G02*
X84930000Y-62780000I0J-225000D01*
G01*
X84930000Y-63230000D01*
G75*
G02*
X84705000Y-63455000I-225000J0D01*
G01*
G37*
%TD*%
%TO.C,C1*%
G36*
G01*
X84705000Y-55301000D02*
X84205000Y-55301000D01*
G75*
G02*
X83980000Y-55076000I0J225000D01*
G01*
X83980000Y-54626000D01*
G75*
G02*
X84205000Y-54401000I225000J0D01*
G01*
X84705000Y-54401000D01*
G75*
G02*
X84930000Y-54626000I0J-225000D01*
G01*
X84930000Y-55076000D01*
G75*
G02*
X84705000Y-55301000I-225000J0D01*
G01*
G37*
G36*
G01*
X84705000Y-56851000D02*
X84205000Y-56851000D01*
G75*
G02*
X83980000Y-56626000I0J225000D01*
G01*
X83980000Y-56176000D01*
G75*
G02*
X84205000Y-55951000I225000J0D01*
G01*
X84705000Y-55951000D01*
G75*
G02*
X84930000Y-56176000I0J-225000D01*
G01*
X84930000Y-56626000D01*
G75*
G02*
X84705000Y-56851000I-225000J0D01*
G01*
G37*
%TD*%
M02*
