G04 #@! TF.GenerationSoftware,KiCad,Pcbnew,5.1.10-88a1d61d58~88~ubuntu18.04.1*
G04 #@! TF.CreationDate,2021-11-13T13:00:57+01:00*
G04 #@! TF.ProjectId,rf_phase_shifter_5_8GHz,72665f70-6861-4736-955f-736869667465,1.0.0*
G04 #@! TF.SameCoordinates,Original*
G04 #@! TF.FileFunction,Copper,L1,Top*
G04 #@! TF.FilePolarity,Positive*
%FSLAX46Y46*%
G04 Gerber Fmt 4.6, Leading zero omitted, Abs format (unit mm)*
G04 Created by KiCad (PCBNEW 5.1.10-88a1d61d58~88~ubuntu18.04.1) date 2021-11-13 13:00:57*
%MOMM*%
%LPD*%
G01*
G04 APERTURE LIST*
G04 #@! TA.AperFunction,SMDPad,CuDef*
%ADD10R,5.000000X1.200000*%
G04 #@! TD*
G04 #@! TA.AperFunction,SMDPad,CuDef*
%ADD11R,5.000000X1.600000*%
G04 #@! TD*
G04 #@! TA.AperFunction,SMDPad,CuDef*
%ADD12R,1.200000X5.000000*%
G04 #@! TD*
G04 #@! TA.AperFunction,SMDPad,CuDef*
%ADD13R,1.600000X5.000000*%
G04 #@! TD*
G04 #@! TA.AperFunction,SMDPad,CuDef*
%ADD14R,0.330000X0.350000*%
G04 #@! TD*
G04 #@! TA.AperFunction,SMDPad,CuDef*
%ADD15R,0.600000X0.700000*%
G04 #@! TD*
G04 #@! TA.AperFunction,SMDPad,CuDef*
%ADD16R,0.700000X0.600000*%
G04 #@! TD*
G04 #@! TA.AperFunction,ViaPad*
%ADD17C,5.000000*%
G04 #@! TD*
G04 #@! TA.AperFunction,ViaPad*
%ADD18C,0.800000*%
G04 #@! TD*
G04 #@! TA.AperFunction,Conductor*
%ADD19C,0.250000*%
G04 #@! TD*
G04 #@! TA.AperFunction,Conductor*
%ADD20C,1.099520*%
G04 #@! TD*
G04 #@! TA.AperFunction,Conductor*
%ADD21C,0.350000*%
G04 #@! TD*
G04 #@! TA.AperFunction,Conductor*
%ADD22C,0.650000*%
G04 #@! TD*
G04 #@! TA.AperFunction,Conductor*
%ADD23C,0.500000*%
G04 #@! TD*
G04 #@! TA.AperFunction,Conductor*
%ADD24C,0.790000*%
G04 #@! TD*
G04 APERTURE END LIST*
G04 #@! TA.AperFunction,SMDPad,CuDef*
G36*
G01*
X95901000Y-63627538D02*
X95901000Y-61086462D01*
G75*
G02*
X96966962Y-60020500I1065962J0D01*
G01*
X99098888Y-60020500D01*
G75*
G02*
X100164850Y-61086462I0J-1065962D01*
G01*
X100164850Y-63627538D01*
G75*
G02*
X99098888Y-64693500I-1065962J0D01*
G01*
X96966962Y-64693500D01*
G75*
G02*
X95901000Y-63627538I0J1065962D01*
G01*
G37*
G04 #@! TD.AperFunction*
G04 #@! TA.AperFunction,SMDPad,CuDef*
G36*
G01*
X93637150Y-63627538D02*
X93637150Y-61086462D01*
G75*
G02*
X94703112Y-60020500I1065962J0D01*
G01*
X96835038Y-60020500D01*
G75*
G02*
X97901000Y-61086462I0J-1065962D01*
G01*
X97901000Y-63627538D01*
G75*
G02*
X96835038Y-64693500I-1065962J0D01*
G01*
X94703112Y-64693500D01*
G75*
G02*
X93637150Y-63627538I0J1065962D01*
G01*
G37*
G04 #@! TD.AperFunction*
G04 #@! TA.AperFunction,SMDPad,CuDef*
G36*
G01*
X95889925Y-56896538D02*
X95889925Y-54355462D01*
G75*
G02*
X96955887Y-53289500I1065962J0D01*
G01*
X99087813Y-53289500D01*
G75*
G02*
X100153775Y-54355462I0J-1065962D01*
G01*
X100153775Y-56896538D01*
G75*
G02*
X99087813Y-57962500I-1065962J0D01*
G01*
X96955887Y-57962500D01*
G75*
G02*
X95889925Y-56896538I0J1065962D01*
G01*
G37*
G04 #@! TD.AperFunction*
G04 #@! TA.AperFunction,SMDPad,CuDef*
G36*
G01*
X93626075Y-56896538D02*
X93626075Y-54355462D01*
G75*
G02*
X94692037Y-53289500I1065962J0D01*
G01*
X96823963Y-53289500D01*
G75*
G02*
X97889925Y-54355462I0J-1065962D01*
G01*
X97889925Y-56896538D01*
G75*
G02*
X96823963Y-57962500I-1065962J0D01*
G01*
X94692037Y-57962500D01*
G75*
G02*
X93626075Y-56896538I0J1065962D01*
G01*
G37*
G04 #@! TD.AperFunction*
G04 #@! TA.AperFunction,SMDPad,CuDef*
G36*
G01*
X85796767Y-59763105D02*
X85994342Y-59420896D01*
G75*
G02*
X86264235Y-59348578I171105J-98787D01*
G01*
X90660916Y-61887003D01*
G75*
G02*
X90733233Y-62156895I-98788J-171105D01*
G01*
X90535658Y-62499104D01*
G75*
G02*
X90265765Y-62571422I-171105J98787D01*
G01*
X85869084Y-60032997D01*
G75*
G02*
X85796767Y-59763105I98788J171105D01*
G01*
G37*
G04 #@! TD.AperFunction*
G04 #@! TA.AperFunction,SMDPad,CuDef*
G36*
G01*
X88803607Y-61499105D02*
X89001182Y-61156896D01*
G75*
G02*
X89271075Y-61084578I171105J-98787D01*
G01*
X93667756Y-63623003D01*
G75*
G02*
X93740073Y-63892895I-98788J-171105D01*
G01*
X93542498Y-64235104D01*
G75*
G02*
X93272605Y-64307422I-171105J98787D01*
G01*
X88875924Y-61768997D01*
G75*
G02*
X88803607Y-61499105I98788J171105D01*
G01*
G37*
G04 #@! TD.AperFunction*
G04 #@! TA.AperFunction,SMDPad,CuDef*
G36*
G01*
X85994342Y-58435104D02*
X85796767Y-58092895D01*
G75*
G02*
X85869085Y-57823003I171105J98787D01*
G01*
X90265766Y-55284578D01*
G75*
G02*
X90535658Y-55356896I98787J-171105D01*
G01*
X90733233Y-55699105D01*
G75*
G02*
X90660916Y-55968997I-171105J-98787D01*
G01*
X86264235Y-58507422D01*
G75*
G02*
X85994342Y-58435104I-98788J171105D01*
G01*
G37*
G04 #@! TD.AperFunction*
G04 #@! TA.AperFunction,SMDPad,CuDef*
G36*
G01*
X89001182Y-56699104D02*
X88803607Y-56356895D01*
G75*
G02*
X88875925Y-56087003I171105J98787D01*
G01*
X93272606Y-53548578D01*
G75*
G02*
X93542498Y-53620896I98787J-171105D01*
G01*
X93740073Y-53963105D01*
G75*
G02*
X93667756Y-54232997I-171105J-98787D01*
G01*
X89271075Y-56771422D01*
G75*
G02*
X89001182Y-56699104I-98788J171105D01*
G01*
G37*
G04 #@! TD.AperFunction*
D10*
X75946000Y-58928000D03*
D11*
X75946000Y-61698000D03*
X75946000Y-56158000D03*
D12*
X84455000Y-66654000D03*
D13*
X87225000Y-66654000D03*
X81685000Y-66654000D03*
D12*
X84455000Y-51054000D03*
D13*
X81685000Y-51054000D03*
X87225000Y-51054000D03*
D14*
X85103000Y-58278000D03*
X85103000Y-58928000D03*
X85103000Y-59578000D03*
X86093000Y-59578000D03*
X86093000Y-58928000D03*
X86093000Y-58278000D03*
D15*
X99866220Y-62357000D03*
X101266220Y-62357000D03*
G04 #@! TA.AperFunction,SMDPad,CuDef*
G36*
G01*
X87823719Y-61293016D02*
X87379881Y-61036766D01*
G75*
G02*
X87299813Y-60737948I109375J189443D01*
G01*
X87518563Y-60359062D01*
G75*
G02*
X87817381Y-60278994I189443J-109375D01*
G01*
X88261219Y-60535244D01*
G75*
G02*
X88341287Y-60834062I-109375J-189443D01*
G01*
X88122537Y-61212948D01*
G75*
G02*
X87823719Y-61293016I-189443J109375D01*
G01*
G37*
G04 #@! TD.AperFunction*
G04 #@! TA.AperFunction,SMDPad,CuDef*
G36*
G01*
X87036219Y-62657006D02*
X86592381Y-62400756D01*
G75*
G02*
X86512313Y-62101938I109375J189443D01*
G01*
X86731063Y-61723052D01*
G75*
G02*
X87029881Y-61642984I189443J-109375D01*
G01*
X87473719Y-61899234D01*
G75*
G02*
X87553787Y-62198052I-109375J-189443D01*
G01*
X87335037Y-62576938D01*
G75*
G02*
X87036219Y-62657006I-189443J109375D01*
G01*
G37*
G04 #@! TD.AperFunction*
G04 #@! TA.AperFunction,SMDPad,CuDef*
G36*
G01*
X87379881Y-56819234D02*
X87823719Y-56562984D01*
G75*
G02*
X88122537Y-56643052I109375J-189443D01*
G01*
X88341287Y-57021938D01*
G75*
G02*
X88261219Y-57320756I-189443J-109375D01*
G01*
X87817381Y-57577006D01*
G75*
G02*
X87518563Y-57496938I-109375J189443D01*
G01*
X87299813Y-57118052D01*
G75*
G02*
X87379881Y-56819234I189443J109375D01*
G01*
G37*
G04 #@! TD.AperFunction*
G04 #@! TA.AperFunction,SMDPad,CuDef*
G36*
G01*
X86592381Y-55455244D02*
X87036219Y-55198994D01*
G75*
G02*
X87335037Y-55279062I109375J-189443D01*
G01*
X87553787Y-55657948D01*
G75*
G02*
X87473719Y-55956766I-189443J-109375D01*
G01*
X87029881Y-56213016D01*
G75*
G02*
X86731063Y-56132948I-109375J189443D01*
G01*
X86512313Y-55754062D01*
G75*
G02*
X86592381Y-55455244I189443J109375D01*
G01*
G37*
G04 #@! TD.AperFunction*
X99853520Y-55626000D03*
X101253520Y-55626000D03*
D16*
X93675200Y-64031900D03*
X93675200Y-65431900D03*
X93675200Y-52424100D03*
X93675200Y-53824100D03*
G04 #@! TA.AperFunction,SMDPad,CuDef*
G36*
G01*
X84705000Y-61905000D02*
X84205000Y-61905000D01*
G75*
G02*
X83980000Y-61680000I0J225000D01*
G01*
X83980000Y-61230000D01*
G75*
G02*
X84205000Y-61005000I225000J0D01*
G01*
X84705000Y-61005000D01*
G75*
G02*
X84930000Y-61230000I0J-225000D01*
G01*
X84930000Y-61680000D01*
G75*
G02*
X84705000Y-61905000I-225000J0D01*
G01*
G37*
G04 #@! TD.AperFunction*
G04 #@! TA.AperFunction,SMDPad,CuDef*
G36*
G01*
X84705000Y-63455000D02*
X84205000Y-63455000D01*
G75*
G02*
X83980000Y-63230000I0J225000D01*
G01*
X83980000Y-62780000D01*
G75*
G02*
X84205000Y-62555000I225000J0D01*
G01*
X84705000Y-62555000D01*
G75*
G02*
X84930000Y-62780000I0J-225000D01*
G01*
X84930000Y-63230000D01*
G75*
G02*
X84705000Y-63455000I-225000J0D01*
G01*
G37*
G04 #@! TD.AperFunction*
G04 #@! TA.AperFunction,SMDPad,CuDef*
G36*
G01*
X84705000Y-55301000D02*
X84205000Y-55301000D01*
G75*
G02*
X83980000Y-55076000I0J225000D01*
G01*
X83980000Y-54626000D01*
G75*
G02*
X84205000Y-54401000I225000J0D01*
G01*
X84705000Y-54401000D01*
G75*
G02*
X84930000Y-54626000I0J-225000D01*
G01*
X84930000Y-55076000D01*
G75*
G02*
X84705000Y-55301000I-225000J0D01*
G01*
G37*
G04 #@! TD.AperFunction*
G04 #@! TA.AperFunction,SMDPad,CuDef*
G36*
G01*
X84705000Y-56851000D02*
X84205000Y-56851000D01*
G75*
G02*
X83980000Y-56626000I0J225000D01*
G01*
X83980000Y-56176000D01*
G75*
G02*
X84205000Y-55951000I225000J0D01*
G01*
X84705000Y-55951000D01*
G75*
G02*
X84930000Y-56176000I0J-225000D01*
G01*
X84930000Y-56626000D01*
G75*
G02*
X84705000Y-56851000I-225000J0D01*
G01*
G37*
G04 #@! TD.AperFunction*
D17*
X76073000Y-51181000D03*
X76073000Y-66548000D03*
X104521000Y-51181000D03*
X104521000Y-66548000D03*
D18*
X94119700Y-51473100D03*
X93230700Y-51473100D03*
X102268020Y-56159400D03*
X102268020Y-55270400D03*
X102280720Y-61823600D03*
X102280720Y-62712600D03*
X94132400Y-66382900D03*
X93243400Y-66382900D03*
X75946000Y-63246000D03*
X77089000Y-63246000D03*
X74803000Y-63246000D03*
X75946000Y-54610000D03*
X77089000Y-54610000D03*
X74803000Y-54610000D03*
X80010000Y-51181000D03*
X80010000Y-52324000D03*
X80010000Y-50038000D03*
X88900000Y-51181000D03*
X88900000Y-52324000D03*
X88900000Y-50038000D03*
X88900000Y-66675000D03*
X88900000Y-67818000D03*
X88900000Y-65532000D03*
X80010000Y-67818000D03*
X80010000Y-65532000D03*
X83820000Y-58928000D03*
X80010000Y-66675000D03*
X78994000Y-57658000D03*
X78994000Y-60198000D03*
X85852000Y-62230000D03*
X85852000Y-55626000D03*
D19*
X93472000Y-63754000D02*
X93811000Y-63415000D01*
D20*
X84455000Y-54851000D02*
X84455000Y-51202000D01*
X84836000Y-57912000D02*
X84455000Y-57531000D01*
X84455000Y-56401000D02*
X84455000Y-57531000D01*
X84455000Y-61455000D02*
X84455000Y-60351000D01*
X84455000Y-60351000D02*
X84455000Y-60325000D01*
X84455000Y-60325000D02*
X84836000Y-59944000D01*
X84455000Y-66654000D02*
X84455000Y-63005000D01*
D19*
X93472000Y-54102000D02*
X93811000Y-54441000D01*
X84344445Y-59197240D02*
X84090445Y-59197240D01*
D21*
X84074000Y-58928000D02*
X83820000Y-58928000D01*
X84989000Y-58928000D02*
X85979000Y-58928000D01*
D20*
X93230700Y-51473100D02*
X94119700Y-51473100D01*
X93243400Y-66382900D02*
X94132400Y-66382900D01*
X102280720Y-62712600D02*
X102280720Y-61823600D01*
X102268020Y-55270400D02*
X102268020Y-56159400D01*
D22*
X101925120Y-62357000D02*
X102280720Y-62712600D01*
X101747320Y-62357000D02*
X102280720Y-61823600D01*
X101391720Y-62357000D02*
X101872820Y-62357000D01*
X101391720Y-62357000D02*
X102050620Y-62357000D01*
X101734620Y-55626000D02*
X102268020Y-56159400D01*
X101365570Y-55626000D02*
X101846670Y-55626000D01*
X101912420Y-55626000D02*
X102268020Y-55270400D01*
X101379020Y-55626000D02*
X102037920Y-55626000D01*
X93675200Y-65925700D02*
X94132400Y-66382900D01*
X93675200Y-65486800D02*
X93675200Y-65980600D01*
X93675200Y-65951100D02*
X93243400Y-66382900D01*
X93675200Y-65499500D02*
X93675200Y-66018700D01*
X93675200Y-51917600D02*
X93230700Y-51473100D01*
X93675200Y-52362100D02*
X93675200Y-51855600D01*
X93675200Y-51917600D02*
X94119700Y-51473100D01*
D20*
X88900000Y-67818000D02*
X88900000Y-65532000D01*
X80010000Y-65532000D02*
X80010000Y-67310000D01*
X80010000Y-67310000D02*
X80010000Y-67818000D01*
X80031000Y-66654000D02*
X80010000Y-66675000D01*
X81685000Y-66654000D02*
X80031000Y-66654000D01*
X80563000Y-65532000D02*
X81685000Y-66654000D01*
X80010000Y-65532000D02*
X80563000Y-65532000D01*
X80521000Y-67818000D02*
X81685000Y-66654000D01*
X80010000Y-67818000D02*
X80521000Y-67818000D01*
X88347000Y-65532000D02*
X87225000Y-66654000D01*
X88900000Y-65532000D02*
X88347000Y-65532000D01*
X87246000Y-66675000D02*
X87225000Y-66654000D01*
X88900000Y-66675000D02*
X87246000Y-66675000D01*
X88389000Y-67818000D02*
X87225000Y-66654000D01*
X88900000Y-67818000D02*
X88389000Y-67818000D01*
X74803000Y-63246000D02*
X77089000Y-63246000D01*
X75946000Y-61719000D02*
X75967000Y-61698000D01*
X75946000Y-63246000D02*
X75946000Y-61719000D01*
X74803000Y-62862000D02*
X75967000Y-61698000D01*
X74803000Y-63246000D02*
X74803000Y-62862000D01*
X77089000Y-62820000D02*
X75967000Y-61698000D01*
X77089000Y-63246000D02*
X77089000Y-62820000D01*
X75946000Y-56137000D02*
X75967000Y-56158000D01*
X75946000Y-54610000D02*
X75946000Y-56137000D01*
X77089000Y-55036000D02*
X75967000Y-56158000D01*
X77089000Y-54610000D02*
X77089000Y-55036000D01*
X77089000Y-54610000D02*
X74803000Y-54610000D01*
X74803000Y-54994000D02*
X75967000Y-56158000D01*
X74803000Y-54610000D02*
X74803000Y-54994000D01*
X80010000Y-50038000D02*
X80010000Y-52324000D01*
X80563000Y-52324000D02*
X81685000Y-51202000D01*
X80010000Y-52324000D02*
X80563000Y-52324000D01*
X81664000Y-51181000D02*
X81685000Y-51202000D01*
X80010000Y-51181000D02*
X81664000Y-51181000D01*
X80521000Y-50038000D02*
X81685000Y-51202000D01*
X80010000Y-50038000D02*
X80521000Y-50038000D01*
X87246000Y-51181000D02*
X87225000Y-51202000D01*
X88900000Y-51181000D02*
X87246000Y-51181000D01*
X88389000Y-50038000D02*
X87225000Y-51202000D01*
X88900000Y-50038000D02*
X88389000Y-50038000D01*
X88347000Y-52324000D02*
X87225000Y-51202000D01*
X88900000Y-52324000D02*
X88347000Y-52324000D01*
X88900000Y-50038000D02*
X88900000Y-52324000D01*
D21*
X84582000Y-58928000D02*
X84074000Y-58928000D01*
D19*
X84963000Y-58928000D02*
X84821768Y-58786768D01*
X85103000Y-58928000D02*
X84963000Y-58928000D01*
X84709000Y-58899536D02*
X84821768Y-58786768D01*
X84709000Y-58928000D02*
X84709000Y-58899536D01*
D21*
X85103000Y-58928000D02*
X84709000Y-58928000D01*
X84709000Y-58928000D02*
X84582000Y-58928000D01*
D19*
X84374284Y-58786768D02*
X84233052Y-58928000D01*
X84694768Y-58786768D02*
X84473658Y-58786768D01*
X84821768Y-58786768D02*
X84694768Y-58786768D01*
X84694768Y-58786768D02*
X84374284Y-58786768D01*
X84473658Y-58786768D02*
X84344445Y-58657555D01*
X85090000Y-58928000D02*
X84989000Y-58928000D01*
X85103000Y-58928000D02*
X85090000Y-58928000D01*
X84709000Y-58928000D02*
X84709000Y-59055000D01*
X84836000Y-59055000D02*
X84963000Y-58928000D01*
X84709000Y-59055000D02*
X84836000Y-59055000D01*
X84709000Y-58928000D02*
X84233052Y-58928000D01*
X84090445Y-58657555D02*
X83820000Y-58928000D01*
X84344445Y-58657555D02*
X84090445Y-58657555D01*
X83820000Y-58928000D02*
X83820000Y-59055000D01*
X84487890Y-59055000D02*
X84836000Y-59055000D01*
X84360890Y-59182000D02*
X84487890Y-59055000D01*
X83947000Y-59182000D02*
X84360890Y-59182000D01*
X83820000Y-59055000D02*
X83947000Y-59182000D01*
D23*
X84277200Y-58928000D02*
X84582000Y-58928000D01*
X83820000Y-58928000D02*
X84277200Y-58928000D01*
D24*
X83820000Y-58928000D02*
X84233052Y-58928000D01*
X75967000Y-58928000D02*
X78613000Y-58928000D01*
X78994000Y-58547000D02*
X78994000Y-57658000D01*
X78613000Y-58928000D02*
X78994000Y-58547000D01*
X78994000Y-57658000D02*
X78994000Y-60198000D01*
X78994000Y-59309000D02*
X78613000Y-58928000D01*
X78994000Y-60198000D02*
X78994000Y-59309000D01*
X86953045Y-62230000D02*
X87033050Y-62149995D01*
X85852000Y-62230000D02*
X86953045Y-62230000D01*
X86953045Y-55626000D02*
X87033050Y-55706005D01*
X85852000Y-55626000D02*
X86953045Y-55626000D01*
D21*
X99847400Y-55624500D02*
X99845900Y-55626000D01*
M02*
