G04 #@! TF.GenerationSoftware,KiCad,Pcbnew,5.1.10-88a1d61d58~88~ubuntu18.04.1*
G04 #@! TF.CreationDate,2021-09-27T18:20:55+02:00*
G04 #@! TF.ProjectId,rf_phase_shifter_5_8GHz,72665f70-6861-4736-955f-736869667465,1.0.0*
G04 #@! TF.SameCoordinates,Original*
G04 #@! TF.FileFunction,Legend,Top*
G04 #@! TF.FilePolarity,Positive*
%FSLAX46Y46*%
G04 Gerber Fmt 4.6, Leading zero omitted, Abs format (unit mm)*
G04 Created by KiCad (PCBNEW 5.1.10-88a1d61d58~88~ubuntu18.04.1) date 2021-09-27 18:20:55*
%MOMM*%
%LPD*%
G01*
G04 APERTURE LIST*
%ADD10C,0.250000*%
%ADD11C,0.150000*%
%ADD12C,0.100000*%
%ADD13C,0.120000*%
%ADD14R,5.000000X1.200000*%
%ADD15R,5.000000X1.600000*%
%ADD16R,1.200000X5.000000*%
%ADD17R,1.600000X5.000000*%
%ADD18R,0.330000X0.350000*%
%ADD19R,0.700000X0.600000*%
G04 APERTURE END LIST*
D10*
X79646000Y-58928000D02*
G75*
G03*
X79646000Y-58928000I-125000J0D01*
G01*
D11*
X74186000Y-62928000D02*
X78886000Y-62928000D01*
X78886000Y-62928000D02*
X78886000Y-54928000D01*
X74186000Y-54928000D02*
X78886000Y-54928000D01*
D10*
X84580000Y-63079000D02*
G75*
G03*
X84580000Y-63079000I-125000J0D01*
G01*
D11*
X88455000Y-68414000D02*
X88455000Y-63714000D01*
X88455000Y-63714000D02*
X80455000Y-63714000D01*
X80455000Y-68414000D02*
X80455000Y-63714000D01*
D10*
X84580000Y-54629000D02*
G75*
G03*
X84580000Y-54629000I-125000J0D01*
G01*
D11*
X80455000Y-49294000D02*
X80455000Y-53994000D01*
X80455000Y-53994000D02*
X88455000Y-53994000D01*
X88455000Y-49294000D02*
X88455000Y-53994000D01*
D12*
X84973000Y-57928000D02*
X86223000Y-57928000D01*
X84973000Y-59928000D02*
X86223000Y-59928000D01*
X84598000Y-58278000D02*
X84598000Y-58278000D01*
X84498000Y-58278000D02*
X84498000Y-58278000D01*
X84498000Y-58278000D02*
G75*
G02*
X84598000Y-58278000I50000J0D01*
G01*
X84598000Y-58278000D02*
G75*
G02*
X84498000Y-58278000I-50000J0D01*
G01*
D13*
X100085600Y-60986900D02*
X100085600Y-59136900D01*
X101285600Y-60986900D02*
X101285600Y-59136900D01*
X101285600Y-59136900D02*
X100085600Y-59136900D01*
X88394000Y-60767279D02*
X88394000Y-60441721D01*
X87374000Y-60767279D02*
X87374000Y-60441721D01*
X87374000Y-57088721D02*
X87374000Y-57414279D01*
X88394000Y-57088721D02*
X88394000Y-57414279D01*
X101285600Y-56869100D02*
X101285600Y-58719100D01*
X100085600Y-56869100D02*
X100085600Y-58719100D01*
X100085600Y-58719100D02*
X101285600Y-58719100D01*
X94084700Y-59136900D02*
X92884700Y-59136900D01*
X94084700Y-60986900D02*
X94084700Y-59136900D01*
X92884700Y-60986900D02*
X92884700Y-59136900D01*
X92872000Y-58719100D02*
X94072000Y-58719100D01*
X92872000Y-56869100D02*
X92872000Y-58719100D01*
X94072000Y-56869100D02*
X94072000Y-58719100D01*
X84965000Y-62370580D02*
X84965000Y-62089420D01*
X83945000Y-62370580D02*
X83945000Y-62089420D01*
X84965000Y-55766580D02*
X84965000Y-55485420D01*
X83945000Y-55766580D02*
X83945000Y-55485420D01*
%LPC*%
D12*
G36*
X103886000Y-69342000D02*
G01*
X73279000Y-69342000D01*
X73279000Y-48387000D01*
X103886000Y-48387000D01*
X103886000Y-69342000D01*
G37*
X103886000Y-69342000D02*
X73279000Y-69342000D01*
X73279000Y-48387000D01*
X103886000Y-48387000D01*
X103886000Y-69342000D01*
G36*
G01*
X96098850Y-59783435D02*
X96098850Y-59388285D01*
G75*
G02*
X96296425Y-59190710I197575J0D01*
G01*
X100506775Y-59190710D01*
G75*
G02*
X100704350Y-59388285I0J-197575D01*
G01*
X100704350Y-59783435D01*
G75*
G02*
X100506775Y-59981010I-197575J0D01*
G01*
X96296425Y-59981010D01*
G75*
G02*
X96098850Y-59783435I0J197575D01*
G01*
G37*
G36*
G01*
X93493350Y-59783435D02*
X93493350Y-59388285D01*
G75*
G02*
X93690925Y-59190710I197575J0D01*
G01*
X97901275Y-59190710D01*
G75*
G02*
X98098850Y-59388285I0J-197575D01*
G01*
X98098850Y-59783435D01*
G75*
G02*
X97901275Y-59981010I-197575J0D01*
G01*
X93690925Y-59981010D01*
G75*
G02*
X93493350Y-59783435I0J197575D01*
G01*
G37*
G36*
G01*
X96098850Y-58465175D02*
X96098850Y-58070025D01*
G75*
G02*
X96296425Y-57872450I197575J0D01*
G01*
X100506775Y-57872450D01*
G75*
G02*
X100704350Y-58070025I0J-197575D01*
G01*
X100704350Y-58465175D01*
G75*
G02*
X100506775Y-58662750I-197575J0D01*
G01*
X96296425Y-58662750D01*
G75*
G02*
X96098850Y-58465175I0J197575D01*
G01*
G37*
G36*
G01*
X93493350Y-58465175D02*
X93493350Y-58070025D01*
G75*
G02*
X93690925Y-57872450I197575J0D01*
G01*
X97901275Y-57872450D01*
G75*
G02*
X98098850Y-58070025I0J-197575D01*
G01*
X98098850Y-58465175D01*
G75*
G02*
X97901275Y-58662750I-197575J0D01*
G01*
X93690925Y-58662750D01*
G75*
G02*
X93493350Y-58465175I0J197575D01*
G01*
G37*
G36*
G01*
X88793300Y-59684265D02*
X88793300Y-59472215D01*
G75*
G02*
X88899325Y-59366190I106025J0D01*
G01*
X93388275Y-59366190D01*
G75*
G02*
X93494300Y-59472215I0J-106025D01*
G01*
X93494300Y-59684265D01*
G75*
G02*
X93388275Y-59790290I-106025J0D01*
G01*
X88899325Y-59790290D01*
G75*
G02*
X88793300Y-59684265I0J106025D01*
G01*
G37*
G36*
G01*
X86092300Y-59684265D02*
X86092300Y-59472215D01*
G75*
G02*
X86198325Y-59366190I106025J0D01*
G01*
X90687275Y-59366190D01*
G75*
G02*
X90793300Y-59472215I0J-106025D01*
G01*
X90793300Y-59684265D01*
G75*
G02*
X90687275Y-59790290I-106025J0D01*
G01*
X86198325Y-59790290D01*
G75*
G02*
X86092300Y-59684265I0J106025D01*
G01*
G37*
G36*
G01*
X88793300Y-58383785D02*
X88793300Y-58171735D01*
G75*
G02*
X88899325Y-58065710I106025J0D01*
G01*
X93388275Y-58065710D01*
G75*
G02*
X93494300Y-58171735I0J-106025D01*
G01*
X93494300Y-58383785D01*
G75*
G02*
X93388275Y-58489810I-106025J0D01*
G01*
X88899325Y-58489810D01*
G75*
G02*
X88793300Y-58383785I0J106025D01*
G01*
G37*
G36*
G01*
X86092300Y-58383785D02*
X86092300Y-58171735D01*
G75*
G02*
X86198325Y-58065710I106025J0D01*
G01*
X90687275Y-58065710D01*
G75*
G02*
X90793300Y-58171735I0J-106025D01*
G01*
X90793300Y-58383785D01*
G75*
G02*
X90687275Y-58489810I-106025J0D01*
G01*
X86198325Y-58489810D01*
G75*
G02*
X86092300Y-58383785I0J106025D01*
G01*
G37*
D14*
X75946000Y-58928000D03*
D15*
X75946000Y-61698000D03*
X75946000Y-56158000D03*
D16*
X84455000Y-66654000D03*
D17*
X87225000Y-66654000D03*
X81685000Y-66654000D03*
D16*
X84455000Y-51054000D03*
D17*
X81685000Y-51054000D03*
X87225000Y-51054000D03*
D18*
X85103000Y-58278000D03*
X85103000Y-58928000D03*
X85103000Y-59578000D03*
X86093000Y-59578000D03*
X86093000Y-58928000D03*
X86093000Y-58278000D03*
D19*
X100685600Y-59586900D03*
X100685600Y-60986900D03*
G36*
G01*
X88140250Y-60254500D02*
X87627750Y-60254500D01*
G75*
G02*
X87409000Y-60035750I0J218750D01*
G01*
X87409000Y-59598250D01*
G75*
G02*
X87627750Y-59379500I218750J0D01*
G01*
X88140250Y-59379500D01*
G75*
G02*
X88359000Y-59598250I0J-218750D01*
G01*
X88359000Y-60035750D01*
G75*
G02*
X88140250Y-60254500I-218750J0D01*
G01*
G37*
G36*
G01*
X88140250Y-61829500D02*
X87627750Y-61829500D01*
G75*
G02*
X87409000Y-61610750I0J218750D01*
G01*
X87409000Y-61173250D01*
G75*
G02*
X87627750Y-60954500I218750J0D01*
G01*
X88140250Y-60954500D01*
G75*
G02*
X88359000Y-61173250I0J-218750D01*
G01*
X88359000Y-61610750D01*
G75*
G02*
X88140250Y-61829500I-218750J0D01*
G01*
G37*
G36*
G01*
X87627750Y-57601500D02*
X88140250Y-57601500D01*
G75*
G02*
X88359000Y-57820250I0J-218750D01*
G01*
X88359000Y-58257750D01*
G75*
G02*
X88140250Y-58476500I-218750J0D01*
G01*
X87627750Y-58476500D01*
G75*
G02*
X87409000Y-58257750I0J218750D01*
G01*
X87409000Y-57820250D01*
G75*
G02*
X87627750Y-57601500I218750J0D01*
G01*
G37*
G36*
G01*
X87627750Y-56026500D02*
X88140250Y-56026500D01*
G75*
G02*
X88359000Y-56245250I0J-218750D01*
G01*
X88359000Y-56682750D01*
G75*
G02*
X88140250Y-56901500I-218750J0D01*
G01*
X87627750Y-56901500D01*
G75*
G02*
X87409000Y-56682750I0J218750D01*
G01*
X87409000Y-56245250D01*
G75*
G02*
X87627750Y-56026500I218750J0D01*
G01*
G37*
X100685600Y-58269100D03*
X100685600Y-56869100D03*
X93484700Y-60986900D03*
X93484700Y-59586900D03*
X93472000Y-56869100D03*
X93472000Y-58269100D03*
G36*
G01*
X84705000Y-61905000D02*
X84205000Y-61905000D01*
G75*
G02*
X83980000Y-61680000I0J225000D01*
G01*
X83980000Y-61230000D01*
G75*
G02*
X84205000Y-61005000I225000J0D01*
G01*
X84705000Y-61005000D01*
G75*
G02*
X84930000Y-61230000I0J-225000D01*
G01*
X84930000Y-61680000D01*
G75*
G02*
X84705000Y-61905000I-225000J0D01*
G01*
G37*
G36*
G01*
X84705000Y-63455000D02*
X84205000Y-63455000D01*
G75*
G02*
X83980000Y-63230000I0J225000D01*
G01*
X83980000Y-62780000D01*
G75*
G02*
X84205000Y-62555000I225000J0D01*
G01*
X84705000Y-62555000D01*
G75*
G02*
X84930000Y-62780000I0J-225000D01*
G01*
X84930000Y-63230000D01*
G75*
G02*
X84705000Y-63455000I-225000J0D01*
G01*
G37*
G36*
G01*
X84705000Y-55301000D02*
X84205000Y-55301000D01*
G75*
G02*
X83980000Y-55076000I0J225000D01*
G01*
X83980000Y-54626000D01*
G75*
G02*
X84205000Y-54401000I225000J0D01*
G01*
X84705000Y-54401000D01*
G75*
G02*
X84930000Y-54626000I0J-225000D01*
G01*
X84930000Y-55076000D01*
G75*
G02*
X84705000Y-55301000I-225000J0D01*
G01*
G37*
G36*
G01*
X84705000Y-56851000D02*
X84205000Y-56851000D01*
G75*
G02*
X83980000Y-56626000I0J225000D01*
G01*
X83980000Y-56176000D01*
G75*
G02*
X84205000Y-55951000I225000J0D01*
G01*
X84705000Y-55951000D01*
G75*
G02*
X84930000Y-56176000I0J-225000D01*
G01*
X84930000Y-56626000D01*
G75*
G02*
X84705000Y-56851000I-225000J0D01*
G01*
G37*
M02*
