%FSLAX45Y45*%
G04 Gerber Fmt 4.5, Leading zero omitted, Abs format (unit mm)*
G04 Created by KiCad (PCBNEW 5.1.10-88a1d61d58~88~ubuntu18.04.1) date 2021-09-29 08:18:57*
%MOMM*%
%LPD*%
G01*
G04 APERTURE LIST*
%TA.AperFunction,Profile*%
%ADD10C,0.050000*%
%TD*%
%ADD11C,0.200000*%
%ADD12C,0.300000*%
G04 APERTURE END LIST*
D10*
X10388600Y-4838700D02*
X7327900Y-4838700D01*
X10388600Y-6934200D02*
X10388600Y-4838700D01*
X7327900Y-6934200D02*
X10388600Y-6934200D01*
X7327900Y-4838700D02*
X7327900Y-6934200D01*
D11*
D12*
X7611828Y-7402414D02*
X7611828Y-7102414D01*
X7683257Y-7102414D01*
X7726114Y-7116700D01*
X7754686Y-7145271D01*
X7768971Y-7173843D01*
X7783257Y-7230986D01*
X7783257Y-7273843D01*
X7768971Y-7330986D01*
X7754686Y-7359557D01*
X7726114Y-7388129D01*
X7683257Y-7402414D01*
X7611828Y-7402414D01*
X7911828Y-7402414D02*
X7911828Y-7202414D01*
X7911828Y-7259557D02*
X7926114Y-7230986D01*
X7940400Y-7216700D01*
X7968971Y-7202414D01*
X7997543Y-7202414D01*
X8097543Y-7402414D02*
X8097543Y-7202414D01*
X8097543Y-7102414D02*
X8083257Y-7116700D01*
X8097543Y-7130986D01*
X8111828Y-7116700D01*
X8097543Y-7102414D01*
X8097543Y-7130986D01*
X8283257Y-7402414D02*
X8254686Y-7388129D01*
X8240400Y-7359557D01*
X8240400Y-7102414D01*
X8440400Y-7402414D02*
X8411828Y-7388129D01*
X8397543Y-7359557D01*
X8397543Y-7102414D01*
X8783257Y-7402414D02*
X8783257Y-7102414D01*
X8883257Y-7316700D01*
X8983257Y-7102414D01*
X8983257Y-7402414D01*
X9254686Y-7402414D02*
X9254686Y-7245271D01*
X9240400Y-7216700D01*
X9211828Y-7202414D01*
X9154686Y-7202414D01*
X9126114Y-7216700D01*
X9254686Y-7388129D02*
X9226114Y-7402414D01*
X9154686Y-7402414D01*
X9126114Y-7388129D01*
X9111828Y-7359557D01*
X9111828Y-7330986D01*
X9126114Y-7302414D01*
X9154686Y-7288129D01*
X9226114Y-7288129D01*
X9254686Y-7273843D01*
X9397543Y-7202414D02*
X9397543Y-7502414D01*
X9397543Y-7216700D02*
X9426114Y-7202414D01*
X9483257Y-7202414D01*
X9511828Y-7216700D01*
X9526114Y-7230986D01*
X9540400Y-7259557D01*
X9540400Y-7345271D01*
X9526114Y-7373843D01*
X9511828Y-7388129D01*
X9483257Y-7402414D01*
X9426114Y-7402414D01*
X9397543Y-7388129D01*
X9668971Y-7373843D02*
X9683257Y-7388129D01*
X9668971Y-7402414D01*
X9654686Y-7388129D01*
X9668971Y-7373843D01*
X9668971Y-7402414D01*
X9668971Y-7216700D02*
X9683257Y-7230986D01*
X9668971Y-7245271D01*
X9654686Y-7230986D01*
X9668971Y-7216700D01*
X9668971Y-7245271D01*
M02*
