%TF.GenerationSoftware,KiCad,Pcbnew,5.1.10-88a1d61d58~88~ubuntu18.04.1*%
%TF.CreationDate,2021-09-27T15:38:39+02:00*%
%TF.ProjectId,rf_phase_shifter_5_8GHz,72665f70-6861-4736-955f-736869667465,1.0.0*%
%TF.SameCoordinates,Original*%
%TF.FileFunction,Legend,Top*%
%TF.FilePolarity,Positive*%
%FSLAX46Y46*%
G04 Gerber Fmt 4.6, Leading zero omitted, Abs format (unit mm)*
G04 Created by KiCad (PCBNEW 5.1.10-88a1d61d58~88~ubuntu18.04.1) date 2021-09-27 15:38:39*
%MOMM*%
%LPD*%
G01*
G04 APERTURE LIST*
%ADD10C,0.150000*%
%ADD11C,0.250000*%
%ADD12C,0.100000*%
%ADD13C,0.120000*%
G04 APERTURE END LIST*
D10*
X80192571Y-62031428D02*
X80240190Y-61888571D01*
X80287809Y-61840952D01*
X80383047Y-61793333D01*
X80525904Y-61793333D01*
X80621142Y-61840952D01*
X80668761Y-61888571D01*
X80716380Y-61983809D01*
X80716380Y-62364761D01*
X79716380Y-62364761D01*
X79716380Y-62031428D01*
X79764000Y-61936190D01*
X79811619Y-61888571D01*
X79906857Y-61840952D01*
X80002095Y-61840952D01*
X80097333Y-61888571D01*
X80144952Y-61936190D01*
X80192571Y-62031428D01*
X80192571Y-62364761D01*
X80716380Y-61364761D02*
X79716380Y-61364761D01*
X80430666Y-60936190D02*
X80430666Y-60460000D01*
X80716380Y-61031428D02*
X79716380Y-60698095D01*
X80716380Y-60364761D01*
X80668761Y-60079047D02*
X80716380Y-59936190D01*
X80716380Y-59698095D01*
X80668761Y-59602857D01*
X80621142Y-59555238D01*
X80525904Y-59507619D01*
X80430666Y-59507619D01*
X80335428Y-59555238D01*
X80287809Y-59602857D01*
X80240190Y-59698095D01*
X80192571Y-59888571D01*
X80144952Y-59983809D01*
X80097333Y-60031428D01*
X80002095Y-60079047D01*
X79906857Y-60079047D01*
X79811619Y-60031428D01*
X79764000Y-59983809D01*
X79716380Y-59888571D01*
X79716380Y-59650476D01*
X79764000Y-59507619D01*
X90186000Y-50760380D02*
X90376476Y-50760380D01*
X90471714Y-50808000D01*
X90566952Y-50903238D01*
X90614571Y-51093714D01*
X90614571Y-51427047D01*
X90566952Y-51617523D01*
X90471714Y-51712761D01*
X90376476Y-51760380D01*
X90186000Y-51760380D01*
X90090761Y-51712761D01*
X89995523Y-51617523D01*
X89947904Y-51427047D01*
X89947904Y-51093714D01*
X89995523Y-50903238D01*
X90090761Y-50808000D01*
X90186000Y-50760380D01*
X91043142Y-50760380D02*
X91043142Y-51569904D01*
X91090761Y-51665142D01*
X91138380Y-51712761D01*
X91233619Y-51760380D01*
X91424095Y-51760380D01*
X91519333Y-51712761D01*
X91566952Y-51665142D01*
X91614571Y-51569904D01*
X91614571Y-50760380D01*
X91947904Y-50760380D02*
X92519333Y-50760380D01*
X92233619Y-51760380D02*
X92233619Y-50760380D01*
X89900190Y-67000380D02*
X89900190Y-66000380D01*
X90376380Y-67000380D02*
X90376380Y-66000380D01*
X90947809Y-67000380D01*
X90947809Y-66000380D01*
%TO.C,J3*%
X74186000Y-54928000D02*
X78886000Y-54928000D01*
X78886000Y-62928000D02*
X78886000Y-54928000D01*
X74186000Y-62928000D02*
X78886000Y-62928000D01*
D11*
X79646000Y-58928000D02*
G75*
G03*
X79646000Y-58928000I-125000J0D01*
G01*
D10*
%TO.C,J2*%
X80455000Y-68414000D02*
X80455000Y-63714000D01*
X88455000Y-63714000D02*
X80455000Y-63714000D01*
X88455000Y-68414000D02*
X88455000Y-63714000D01*
D11*
X84580000Y-63079000D02*
G75*
G03*
X84580000Y-63079000I-125000J0D01*
G01*
D10*
%TO.C,J1*%
X88455000Y-49294000D02*
X88455000Y-53994000D01*
X80455000Y-53994000D02*
X88455000Y-53994000D01*
X80455000Y-49294000D02*
X80455000Y-53994000D01*
D11*
X84580000Y-54629000D02*
G75*
G03*
X84580000Y-54629000I-125000J0D01*
G01*
D12*
%TO.C,FL1*%
X84498000Y-58278000D02*
G75*
G02*
X84598000Y-58278000I50000J0D01*
G01*
X84598000Y-58278000D02*
G75*
G02*
X84498000Y-58278000I-50000J0D01*
G01*
X84498000Y-58278000D02*
X84498000Y-58278000D01*
X84598000Y-58278000D02*
X84598000Y-58278000D01*
X84973000Y-59928000D02*
X86223000Y-59928000D01*
X84973000Y-57928000D02*
X86223000Y-57928000D01*
D13*
%TO.C,D4*%
X101285600Y-59136900D02*
X100085600Y-59136900D01*
X101285600Y-60986900D02*
X101285600Y-59136900D01*
X100085600Y-60986900D02*
X100085600Y-59136900D01*
%TO.C,L2*%
X87374000Y-60767279D02*
X87374000Y-60441721D01*
X88394000Y-60767279D02*
X88394000Y-60441721D01*
%TO.C,L1*%
X88394000Y-57088721D02*
X88394000Y-57414279D01*
X87374000Y-57088721D02*
X87374000Y-57414279D01*
%TO.C,D3*%
X100085600Y-58719100D02*
X101285600Y-58719100D01*
X100085600Y-56869100D02*
X100085600Y-58719100D01*
X101285600Y-56869100D02*
X101285600Y-58719100D01*
%TO.C,D2*%
X92884700Y-60986900D02*
X92884700Y-59136900D01*
X94084700Y-60986900D02*
X94084700Y-59136900D01*
X94084700Y-59136900D02*
X92884700Y-59136900D01*
%TO.C,D1*%
X94072000Y-56869100D02*
X94072000Y-58719100D01*
X92872000Y-56869100D02*
X92872000Y-58719100D01*
X92872000Y-58719100D02*
X94072000Y-58719100D01*
%TO.C,C2*%
X83945000Y-62370580D02*
X83945000Y-62089420D01*
X84965000Y-62370580D02*
X84965000Y-62089420D01*
%TO.C,C1*%
X83945000Y-55766580D02*
X83945000Y-55485420D01*
X84965000Y-55766580D02*
X84965000Y-55485420D01*
%TO.C,TL4*%
D10*
X95861333Y-60666380D02*
X96432761Y-60666380D01*
X96147047Y-61666380D02*
X96147047Y-60666380D01*
X97242285Y-61666380D02*
X96766095Y-61666380D01*
X96766095Y-60666380D01*
X98004190Y-60999714D02*
X98004190Y-61666380D01*
X97766095Y-60618761D02*
X97528000Y-61333047D01*
X98147047Y-61333047D01*
%TO.C,TL3*%
X95861333Y-55840380D02*
X96432761Y-55840380D01*
X96147047Y-56840380D02*
X96147047Y-55840380D01*
X97242285Y-56840380D02*
X96766095Y-56840380D01*
X96766095Y-55840380D01*
X97480380Y-55840380D02*
X98099428Y-55840380D01*
X97766095Y-56221333D01*
X97908952Y-56221333D01*
X98004190Y-56268952D01*
X98051809Y-56316571D01*
X98099428Y-56411809D01*
X98099428Y-56649904D01*
X98051809Y-56745142D01*
X98004190Y-56792761D01*
X97908952Y-56840380D01*
X97623238Y-56840380D01*
X97528000Y-56792761D01*
X97480380Y-56745142D01*
%TO.C,TL2*%
X89511333Y-60666380D02*
X90082761Y-60666380D01*
X89797047Y-61666380D02*
X89797047Y-60666380D01*
X90892285Y-61666380D02*
X90416095Y-61666380D01*
X90416095Y-60666380D01*
X91178000Y-60761619D02*
X91225619Y-60714000D01*
X91320857Y-60666380D01*
X91558952Y-60666380D01*
X91654190Y-60714000D01*
X91701809Y-60761619D01*
X91749428Y-60856857D01*
X91749428Y-60952095D01*
X91701809Y-61094952D01*
X91130380Y-61666380D01*
X91749428Y-61666380D01*
%TO.C,TL1*%
X89257333Y-56094380D02*
X89828761Y-56094380D01*
X89543047Y-57094380D02*
X89543047Y-56094380D01*
X90638285Y-57094380D02*
X90162095Y-57094380D01*
X90162095Y-56094380D01*
X91495428Y-57094380D02*
X90924000Y-57094380D01*
X91209714Y-57094380D02*
X91209714Y-56094380D01*
X91114476Y-56237238D01*
X91019238Y-56332476D01*
X90924000Y-56380095D01*
%TO.C,J3*%
X78345309Y-53554380D02*
X78345309Y-54268666D01*
X78297690Y-54411523D01*
X78202452Y-54506761D01*
X78059595Y-54554380D01*
X77964357Y-54554380D01*
X78726261Y-53554380D02*
X79345309Y-53554380D01*
X79011976Y-53935333D01*
X79154833Y-53935333D01*
X79250071Y-53982952D01*
X79297690Y-54030571D01*
X79345309Y-54125809D01*
X79345309Y-54363904D01*
X79297690Y-54459142D01*
X79250071Y-54506761D01*
X79154833Y-54554380D01*
X78869119Y-54554380D01*
X78773880Y-54506761D01*
X78726261Y-54459142D01*
%TO.C,J2*%
X89898023Y-67778380D02*
X89898023Y-68492666D01*
X89850404Y-68635523D01*
X89755166Y-68730761D01*
X89612309Y-68778380D01*
X89517071Y-68778380D01*
X90326595Y-67873619D02*
X90374214Y-67826000D01*
X90469452Y-67778380D01*
X90707547Y-67778380D01*
X90802785Y-67826000D01*
X90850404Y-67873619D01*
X90898023Y-67968857D01*
X90898023Y-68064095D01*
X90850404Y-68206952D01*
X90278976Y-68778380D01*
X90898023Y-68778380D01*
%TO.C,J1*%
X90283309Y-49236380D02*
X90283309Y-49950666D01*
X90235690Y-50093523D01*
X90140452Y-50188761D01*
X89997595Y-50236380D01*
X89902357Y-50236380D01*
X91283309Y-50236380D02*
X90711880Y-50236380D01*
X90997595Y-50236380D02*
X90997595Y-49236380D01*
X90902357Y-49379238D01*
X90807119Y-49474476D01*
X90711880Y-49522095D01*
%TO.C,FL1*%
X82478571Y-59666095D02*
X82478571Y-59999428D01*
X83002380Y-59999428D02*
X82002380Y-59999428D01*
X82002380Y-59523238D01*
X83002380Y-58666095D02*
X83002380Y-59142285D01*
X82002380Y-59142285D01*
X83002380Y-57808952D02*
X83002380Y-58380380D01*
X83002380Y-58094666D02*
X82002380Y-58094666D01*
X82145238Y-58189904D01*
X82240476Y-58285142D01*
X82288095Y-58380380D01*
%TO.C,D4*%
X102814380Y-61024995D02*
X101814380Y-61024995D01*
X101814380Y-60786900D01*
X101862000Y-60644042D01*
X101957238Y-60548804D01*
X102052476Y-60501185D01*
X102242952Y-60453566D01*
X102385809Y-60453566D01*
X102576285Y-60501185D01*
X102671523Y-60548804D01*
X102766761Y-60644042D01*
X102814380Y-60786900D01*
X102814380Y-61024995D01*
X102147714Y-59596423D02*
X102814380Y-59596423D01*
X101766761Y-59834519D02*
X102481047Y-60072614D01*
X102481047Y-59453566D01*
%TO.C,L2*%
X89241333Y-63190380D02*
X88765142Y-63190380D01*
X88765142Y-62190380D01*
X89527047Y-62285619D02*
X89574666Y-62238000D01*
X89669904Y-62190380D01*
X89908000Y-62190380D01*
X90003238Y-62238000D01*
X90050857Y-62285619D01*
X90098476Y-62380857D01*
X90098476Y-62476095D01*
X90050857Y-62618952D01*
X89479428Y-63190380D01*
X90098476Y-63190380D01*
%TO.C,L1*%
X89241333Y-55570380D02*
X88765142Y-55570380D01*
X88765142Y-54570380D01*
X90098476Y-55570380D02*
X89527047Y-55570380D01*
X89812761Y-55570380D02*
X89812761Y-54570380D01*
X89717523Y-54713238D01*
X89622285Y-54808476D01*
X89527047Y-54856095D01*
%TO.C,D3*%
X102814380Y-58370695D02*
X101814380Y-58370695D01*
X101814380Y-58132600D01*
X101862000Y-57989742D01*
X101957238Y-57894504D01*
X102052476Y-57846885D01*
X102242952Y-57799266D01*
X102385809Y-57799266D01*
X102576285Y-57846885D01*
X102671523Y-57894504D01*
X102766761Y-57989742D01*
X102814380Y-58132600D01*
X102814380Y-58370695D01*
X101814380Y-57465933D02*
X101814380Y-56846885D01*
X102195333Y-57180219D01*
X102195333Y-57037361D01*
X102242952Y-56942123D01*
X102290571Y-56894504D01*
X102385809Y-56846885D01*
X102623904Y-56846885D01*
X102719142Y-56894504D01*
X102766761Y-56942123D01*
X102814380Y-57037361D01*
X102814380Y-57323076D01*
X102766761Y-57418314D01*
X102719142Y-57465933D01*
%TO.C,D2*%
X92733904Y-63698380D02*
X92733904Y-62698380D01*
X92972000Y-62698380D01*
X93114857Y-62746000D01*
X93210095Y-62841238D01*
X93257714Y-62936476D01*
X93305333Y-63126952D01*
X93305333Y-63269809D01*
X93257714Y-63460285D01*
X93210095Y-63555523D01*
X93114857Y-63650761D01*
X92972000Y-63698380D01*
X92733904Y-63698380D01*
X93686285Y-62793619D02*
X93733904Y-62746000D01*
X93829142Y-62698380D01*
X94067238Y-62698380D01*
X94162476Y-62746000D01*
X94210095Y-62793619D01*
X94257714Y-62888857D01*
X94257714Y-62984095D01*
X94210095Y-63126952D01*
X93638666Y-63698380D01*
X94257714Y-63698380D01*
%TO.C,D1*%
X92733904Y-55062380D02*
X92733904Y-54062380D01*
X92972000Y-54062380D01*
X93114857Y-54110000D01*
X93210095Y-54205238D01*
X93257714Y-54300476D01*
X93305333Y-54490952D01*
X93305333Y-54633809D01*
X93257714Y-54824285D01*
X93210095Y-54919523D01*
X93114857Y-55014761D01*
X92972000Y-55062380D01*
X92733904Y-55062380D01*
X94257714Y-55062380D02*
X93686285Y-55062380D01*
X93972000Y-55062380D02*
X93972000Y-54062380D01*
X93876761Y-54205238D01*
X93781523Y-54300476D01*
X93686285Y-54348095D01*
%TO.C,C2*%
X83382142Y-62396666D02*
X83429761Y-62444285D01*
X83477380Y-62587142D01*
X83477380Y-62682380D01*
X83429761Y-62825238D01*
X83334523Y-62920476D01*
X83239285Y-62968095D01*
X83048809Y-63015714D01*
X82905952Y-63015714D01*
X82715476Y-62968095D01*
X82620238Y-62920476D01*
X82525000Y-62825238D01*
X82477380Y-62682380D01*
X82477380Y-62587142D01*
X82525000Y-62444285D01*
X82572619Y-62396666D01*
X82572619Y-62015714D02*
X82525000Y-61968095D01*
X82477380Y-61872857D01*
X82477380Y-61634761D01*
X82525000Y-61539523D01*
X82572619Y-61491904D01*
X82667857Y-61444285D01*
X82763095Y-61444285D01*
X82905952Y-61491904D01*
X83477380Y-62063333D01*
X83477380Y-61444285D01*
%TO.C,C1*%
X83382142Y-55792666D02*
X83429761Y-55840285D01*
X83477380Y-55983142D01*
X83477380Y-56078380D01*
X83429761Y-56221238D01*
X83334523Y-56316476D01*
X83239285Y-56364095D01*
X83048809Y-56411714D01*
X82905952Y-56411714D01*
X82715476Y-56364095D01*
X82620238Y-56316476D01*
X82525000Y-56221238D01*
X82477380Y-56078380D01*
X82477380Y-55983142D01*
X82525000Y-55840285D01*
X82572619Y-55792666D01*
X83477380Y-54840285D02*
X83477380Y-55411714D01*
X83477380Y-55126000D02*
X82477380Y-55126000D01*
X82620238Y-55221238D01*
X82715476Y-55316476D01*
X82763095Y-55411714D01*
%TD*%
M02*
