G04 #@! TF.GenerationSoftware,KiCad,Pcbnew,5.1.10-88a1d61d58~88~ubuntu18.04.1*
G04 #@! TF.CreationDate,2021-11-13T13:00:57+01:00*
G04 #@! TF.ProjectId,rf_phase_shifter_5_8GHz,72665f70-6861-4736-955f-736869667465,1.0.0*
G04 #@! TF.SameCoordinates,Original*
G04 #@! TF.FileFunction,Legend,Top*
G04 #@! TF.FilePolarity,Positive*
%FSLAX46Y46*%
G04 Gerber Fmt 4.6, Leading zero omitted, Abs format (unit mm)*
G04 Created by KiCad (PCBNEW 5.1.10-88a1d61d58~88~ubuntu18.04.1) date 2021-11-13 13:00:57*
%MOMM*%
%LPD*%
G01*
G04 APERTURE LIST*
%ADD10C,0.150000*%
%ADD11C,0.250000*%
%ADD12C,0.100000*%
%ADD13C,0.120000*%
%ADD14R,5.000000X1.200000*%
%ADD15R,5.000000X1.600000*%
%ADD16R,1.200000X5.000000*%
%ADD17R,1.600000X5.000000*%
%ADD18R,0.330000X0.350000*%
%ADD19R,0.600000X0.700000*%
%ADD20R,0.700000X0.600000*%
G04 APERTURE END LIST*
D10*
X79938571Y-57459428D02*
X79986190Y-57316571D01*
X80033809Y-57268952D01*
X80129047Y-57221333D01*
X80271904Y-57221333D01*
X80367142Y-57268952D01*
X80414761Y-57316571D01*
X80462380Y-57411809D01*
X80462380Y-57792761D01*
X79462380Y-57792761D01*
X79462380Y-57459428D01*
X79510000Y-57364190D01*
X79557619Y-57316571D01*
X79652857Y-57268952D01*
X79748095Y-57268952D01*
X79843333Y-57316571D01*
X79890952Y-57364190D01*
X79938571Y-57459428D01*
X79938571Y-57792761D01*
X80462380Y-56792761D02*
X79462380Y-56792761D01*
X80176666Y-56364190D02*
X80176666Y-55888000D01*
X80462380Y-56459428D02*
X79462380Y-56126095D01*
X80462380Y-55792761D01*
X80414761Y-55507047D02*
X80462380Y-55364190D01*
X80462380Y-55126095D01*
X80414761Y-55030857D01*
X80367142Y-54983238D01*
X80271904Y-54935619D01*
X80176666Y-54935619D01*
X80081428Y-54983238D01*
X80033809Y-55030857D01*
X79986190Y-55126095D01*
X79938571Y-55316571D01*
X79890952Y-55411809D01*
X79843333Y-55459428D01*
X79748095Y-55507047D01*
X79652857Y-55507047D01*
X79557619Y-55459428D01*
X79510000Y-55411809D01*
X79462380Y-55316571D01*
X79462380Y-55078476D01*
X79510000Y-54935619D01*
X89932000Y-50633380D02*
X90122476Y-50633380D01*
X90217714Y-50681000D01*
X90312952Y-50776238D01*
X90360571Y-50966714D01*
X90360571Y-51300047D01*
X90312952Y-51490523D01*
X90217714Y-51585761D01*
X90122476Y-51633380D01*
X89932000Y-51633380D01*
X89836761Y-51585761D01*
X89741523Y-51490523D01*
X89693904Y-51300047D01*
X89693904Y-50966714D01*
X89741523Y-50776238D01*
X89836761Y-50681000D01*
X89932000Y-50633380D01*
X90789142Y-50633380D02*
X90789142Y-51442904D01*
X90836761Y-51538142D01*
X90884380Y-51585761D01*
X90979619Y-51633380D01*
X91170095Y-51633380D01*
X91265333Y-51585761D01*
X91312952Y-51538142D01*
X91360571Y-51442904D01*
X91360571Y-50633380D01*
X91693904Y-50633380D02*
X92265333Y-50633380D01*
X91979619Y-51633380D02*
X91979619Y-50633380D01*
X89646190Y-68524380D02*
X89646190Y-67524380D01*
X90122380Y-68524380D02*
X90122380Y-67524380D01*
X90693809Y-68524380D01*
X90693809Y-67524380D01*
X74186000Y-54928000D02*
X78886000Y-54928000D01*
X78886000Y-62928000D02*
X78886000Y-54928000D01*
X74186000Y-62928000D02*
X78886000Y-62928000D01*
D11*
X79646000Y-58928000D02*
G75*
G03*
X79646000Y-58928000I-125000J0D01*
G01*
D10*
X80455000Y-68414000D02*
X80455000Y-63714000D01*
X88455000Y-63714000D02*
X80455000Y-63714000D01*
X88455000Y-68414000D02*
X88455000Y-63714000D01*
D11*
X84580000Y-63079000D02*
G75*
G03*
X84580000Y-63079000I-125000J0D01*
G01*
D10*
X88455000Y-49294000D02*
X88455000Y-53994000D01*
X80455000Y-53994000D02*
X88455000Y-53994000D01*
X80455000Y-49294000D02*
X80455000Y-53994000D01*
D11*
X84580000Y-54629000D02*
G75*
G03*
X84580000Y-54629000I-125000J0D01*
G01*
D12*
X84498000Y-58278000D02*
G75*
G02*
X84598000Y-58278000I50000J0D01*
G01*
X84598000Y-58278000D02*
G75*
G02*
X84498000Y-58278000I-50000J0D01*
G01*
X84498000Y-58278000D02*
X84498000Y-58278000D01*
X84598000Y-58278000D02*
X84598000Y-58278000D01*
X84973000Y-59928000D02*
X86223000Y-59928000D01*
X84973000Y-57928000D02*
X86223000Y-57928000D01*
D13*
X99416220Y-61757000D02*
X99416220Y-62957000D01*
X101266220Y-61757000D02*
X99416220Y-61757000D01*
X101266220Y-62957000D02*
X99416220Y-62957000D01*
X86903738Y-61353971D02*
X87066517Y-61072029D01*
X87787083Y-61863971D02*
X87949862Y-61582029D01*
X87787083Y-55992029D02*
X87949862Y-56273971D01*
X86903738Y-56502029D02*
X87066517Y-56783971D01*
X99403520Y-55026000D02*
X99403520Y-56226000D01*
X101253520Y-55026000D02*
X99403520Y-55026000D01*
X101253520Y-56226000D02*
X99403520Y-56226000D01*
X94275200Y-63581900D02*
X93075200Y-63581900D01*
X94275200Y-65431900D02*
X94275200Y-63581900D01*
X93075200Y-65431900D02*
X93075200Y-63581900D01*
X94275200Y-52424100D02*
X94275200Y-54274100D01*
X93075200Y-52424100D02*
X93075200Y-54274100D01*
X93075200Y-54274100D02*
X94275200Y-54274100D01*
X83945000Y-62370580D02*
X83945000Y-62089420D01*
X84965000Y-62370580D02*
X84965000Y-62089420D01*
X83945000Y-55766580D02*
X83945000Y-55485420D01*
X84965000Y-55766580D02*
X84965000Y-55485420D01*
D10*
X95790483Y-65238380D02*
X96361911Y-65238380D01*
X96076197Y-66238380D02*
X96076197Y-65238380D01*
X97171435Y-66238380D02*
X96695245Y-66238380D01*
X96695245Y-65238380D01*
X97933340Y-65571714D02*
X97933340Y-66238380D01*
X97695245Y-65190761D02*
X97457150Y-65905047D01*
X98076197Y-65905047D01*
X95607333Y-51776380D02*
X96178761Y-51776380D01*
X95893047Y-52776380D02*
X95893047Y-51776380D01*
X96988285Y-52776380D02*
X96512095Y-52776380D01*
X96512095Y-51776380D01*
X97226380Y-51776380D02*
X97845428Y-51776380D01*
X97512095Y-52157333D01*
X97654952Y-52157333D01*
X97750190Y-52204952D01*
X97797809Y-52252571D01*
X97845428Y-52347809D01*
X97845428Y-52585904D01*
X97797809Y-52681142D01*
X97750190Y-52728761D01*
X97654952Y-52776380D01*
X97369238Y-52776380D01*
X97274000Y-52728761D01*
X97226380Y-52681142D01*
X89687446Y-59648414D02*
X90182318Y-59934128D01*
X89434882Y-60657297D02*
X89934882Y-59791271D01*
X90383386Y-61204916D02*
X89970993Y-60966821D01*
X90470993Y-60100795D01*
X91083203Y-60564226D02*
X91148252Y-60546796D01*
X91254540Y-60553176D01*
X91460736Y-60672224D01*
X91519405Y-60761082D01*
X91536835Y-60826131D01*
X91530455Y-60932419D01*
X91482836Y-61014898D01*
X91370168Y-61114806D01*
X90589582Y-61323963D01*
X91125693Y-61633487D01*
X89139827Y-57259081D02*
X89634699Y-56973367D01*
X89887263Y-57982249D02*
X89387263Y-57116224D01*
X90835767Y-57434630D02*
X90423374Y-57672725D01*
X89923374Y-56806700D01*
X91578074Y-57006059D02*
X91083203Y-57291773D01*
X91330639Y-57148916D02*
X90830639Y-56282890D01*
X90819588Y-56454227D01*
X90784729Y-56584325D01*
X90726060Y-56673183D01*
X78091309Y-53554380D02*
X78091309Y-54268666D01*
X78043690Y-54411523D01*
X77948452Y-54506761D01*
X77805595Y-54554380D01*
X77710357Y-54554380D01*
X78472261Y-53554380D02*
X79091309Y-53554380D01*
X78757976Y-53935333D01*
X78900833Y-53935333D01*
X78996071Y-53982952D01*
X79043690Y-54030571D01*
X79091309Y-54125809D01*
X79091309Y-54363904D01*
X79043690Y-54459142D01*
X78996071Y-54506761D01*
X78900833Y-54554380D01*
X78615119Y-54554380D01*
X78519880Y-54506761D01*
X78472261Y-54459142D01*
X89898023Y-66000380D02*
X89898023Y-66714666D01*
X89850404Y-66857523D01*
X89755166Y-66952761D01*
X89612309Y-67000380D01*
X89517071Y-67000380D01*
X90326595Y-66095619D02*
X90374214Y-66048000D01*
X90469452Y-66000380D01*
X90707547Y-66000380D01*
X90802785Y-66048000D01*
X90850404Y-66095619D01*
X90898023Y-66190857D01*
X90898023Y-66286095D01*
X90850404Y-66428952D01*
X90278976Y-67000380D01*
X90898023Y-67000380D01*
X90029309Y-49109380D02*
X90029309Y-49823666D01*
X89981690Y-49966523D01*
X89886452Y-50061761D01*
X89743595Y-50109380D01*
X89648357Y-50109380D01*
X91029309Y-50109380D02*
X90457880Y-50109380D01*
X90743595Y-50109380D02*
X90743595Y-49109380D01*
X90648357Y-49252238D01*
X90553119Y-49347476D01*
X90457880Y-49395095D01*
X82192904Y-57840571D02*
X81859571Y-57840571D01*
X81859571Y-58364380D02*
X81859571Y-57364380D01*
X82335761Y-57364380D01*
X83192904Y-58364380D02*
X82716714Y-58364380D01*
X82716714Y-57364380D01*
X84050047Y-58364380D02*
X83478619Y-58364380D01*
X83764333Y-58364380D02*
X83764333Y-57364380D01*
X83669095Y-57507238D01*
X83573857Y-57602476D01*
X83478619Y-57650095D01*
X101544380Y-61418695D02*
X100544380Y-61418695D01*
X100544380Y-61180600D01*
X100592000Y-61037742D01*
X100687238Y-60942504D01*
X100782476Y-60894885D01*
X100972952Y-60847266D01*
X101115809Y-60847266D01*
X101306285Y-60894885D01*
X101401523Y-60942504D01*
X101496761Y-61037742D01*
X101544380Y-61180600D01*
X101544380Y-61418695D01*
X100877714Y-59990123D02*
X101544380Y-59990123D01*
X100496761Y-60228219D02*
X101211047Y-60466314D01*
X101211047Y-59847266D01*
X88275471Y-63046440D02*
X87863078Y-62808344D01*
X88363078Y-61942319D01*
X88975288Y-62405750D02*
X89040337Y-62388320D01*
X89146625Y-62394700D01*
X89352822Y-62513747D01*
X89411491Y-62602606D01*
X89428921Y-62667655D01*
X89422541Y-62773943D01*
X89374922Y-62856421D01*
X89262254Y-62956330D01*
X88481668Y-63165487D01*
X89017779Y-63475011D01*
X88727852Y-55593106D02*
X88315459Y-55831201D01*
X87815459Y-54965176D01*
X89470160Y-55164535D02*
X88975288Y-55450249D01*
X89222724Y-55307392D02*
X88722724Y-54441367D01*
X88711674Y-54612704D01*
X88676814Y-54742801D01*
X88618145Y-54831660D01*
X101544380Y-58142095D02*
X100544380Y-58142095D01*
X100544380Y-57904000D01*
X100592000Y-57761142D01*
X100687238Y-57665904D01*
X100782476Y-57618285D01*
X100972952Y-57570666D01*
X101115809Y-57570666D01*
X101306285Y-57618285D01*
X101401523Y-57665904D01*
X101496761Y-57761142D01*
X101544380Y-57904000D01*
X101544380Y-58142095D01*
X100544380Y-57237333D02*
X100544380Y-56618285D01*
X100925333Y-56951619D01*
X100925333Y-56808761D01*
X100972952Y-56713523D01*
X101020571Y-56665904D01*
X101115809Y-56618285D01*
X101353904Y-56618285D01*
X101449142Y-56665904D01*
X101496761Y-56713523D01*
X101544380Y-56808761D01*
X101544380Y-57094476D01*
X101496761Y-57189714D01*
X101449142Y-57237333D01*
X92924404Y-67889380D02*
X92924404Y-66889380D01*
X93162500Y-66889380D01*
X93305357Y-66937000D01*
X93400595Y-67032238D01*
X93448214Y-67127476D01*
X93495833Y-67317952D01*
X93495833Y-67460809D01*
X93448214Y-67651285D01*
X93400595Y-67746523D01*
X93305357Y-67841761D01*
X93162500Y-67889380D01*
X92924404Y-67889380D01*
X93876785Y-66984619D02*
X93924404Y-66937000D01*
X94019642Y-66889380D01*
X94257738Y-66889380D01*
X94352976Y-66937000D01*
X94400595Y-66984619D01*
X94448214Y-67079857D01*
X94448214Y-67175095D01*
X94400595Y-67317952D01*
X93829166Y-67889380D01*
X94448214Y-67889380D01*
X92937104Y-50998380D02*
X92937104Y-49998380D01*
X93175200Y-49998380D01*
X93318057Y-50046000D01*
X93413295Y-50141238D01*
X93460914Y-50236476D01*
X93508533Y-50426952D01*
X93508533Y-50569809D01*
X93460914Y-50760285D01*
X93413295Y-50855523D01*
X93318057Y-50950761D01*
X93175200Y-50998380D01*
X92937104Y-50998380D01*
X94460914Y-50998380D02*
X93889485Y-50998380D01*
X94175200Y-50998380D02*
X94175200Y-49998380D01*
X94079961Y-50141238D01*
X93984723Y-50236476D01*
X93889485Y-50284095D01*
X83415142Y-62396666D02*
X83462761Y-62444285D01*
X83510380Y-62587142D01*
X83510380Y-62682380D01*
X83462761Y-62825238D01*
X83367523Y-62920476D01*
X83272285Y-62968095D01*
X83081809Y-63015714D01*
X82938952Y-63015714D01*
X82748476Y-62968095D01*
X82653238Y-62920476D01*
X82558000Y-62825238D01*
X82510380Y-62682380D01*
X82510380Y-62587142D01*
X82558000Y-62444285D01*
X82605619Y-62396666D01*
X82605619Y-62015714D02*
X82558000Y-61968095D01*
X82510380Y-61872857D01*
X82510380Y-61634761D01*
X82558000Y-61539523D01*
X82605619Y-61491904D01*
X82700857Y-61444285D01*
X82796095Y-61444285D01*
X82938952Y-61491904D01*
X83510380Y-62063333D01*
X83510380Y-61444285D01*
X83415142Y-55792666D02*
X83462761Y-55840285D01*
X83510380Y-55983142D01*
X83510380Y-56078380D01*
X83462761Y-56221238D01*
X83367523Y-56316476D01*
X83272285Y-56364095D01*
X83081809Y-56411714D01*
X82938952Y-56411714D01*
X82748476Y-56364095D01*
X82653238Y-56316476D01*
X82558000Y-56221238D01*
X82510380Y-56078380D01*
X82510380Y-55983142D01*
X82558000Y-55840285D01*
X82605619Y-55792666D01*
X83510380Y-54840285D02*
X83510380Y-55411714D01*
X83510380Y-55126000D02*
X82510380Y-55126000D01*
X82653238Y-55221238D01*
X82748476Y-55316476D01*
X82796095Y-55411714D01*
%LPC*%
D14*
X75946000Y-58928000D03*
D15*
X75946000Y-61698000D03*
X75946000Y-56158000D03*
D16*
X84455000Y-66654000D03*
D17*
X87225000Y-66654000D03*
X81685000Y-66654000D03*
D16*
X84455000Y-51054000D03*
D17*
X81685000Y-51054000D03*
X87225000Y-51054000D03*
D18*
X85103000Y-58278000D03*
X85103000Y-58928000D03*
X85103000Y-59578000D03*
X86093000Y-59578000D03*
X86093000Y-58928000D03*
X86093000Y-58278000D03*
D19*
X99866220Y-62357000D03*
X101266220Y-62357000D03*
G36*
G01*
X87823719Y-61293016D02*
X87379881Y-61036766D01*
G75*
G02*
X87299813Y-60737948I109375J189443D01*
G01*
X87518563Y-60359062D01*
G75*
G02*
X87817381Y-60278994I189443J-109375D01*
G01*
X88261219Y-60535244D01*
G75*
G02*
X88341287Y-60834062I-109375J-189443D01*
G01*
X88122537Y-61212948D01*
G75*
G02*
X87823719Y-61293016I-189443J109375D01*
G01*
G37*
G36*
G01*
X87036219Y-62657006D02*
X86592381Y-62400756D01*
G75*
G02*
X86512313Y-62101938I109375J189443D01*
G01*
X86731063Y-61723052D01*
G75*
G02*
X87029881Y-61642984I189443J-109375D01*
G01*
X87473719Y-61899234D01*
G75*
G02*
X87553787Y-62198052I-109375J-189443D01*
G01*
X87335037Y-62576938D01*
G75*
G02*
X87036219Y-62657006I-189443J109375D01*
G01*
G37*
G36*
G01*
X87379881Y-56819234D02*
X87823719Y-56562984D01*
G75*
G02*
X88122537Y-56643052I109375J-189443D01*
G01*
X88341287Y-57021938D01*
G75*
G02*
X88261219Y-57320756I-189443J-109375D01*
G01*
X87817381Y-57577006D01*
G75*
G02*
X87518563Y-57496938I-109375J189443D01*
G01*
X87299813Y-57118052D01*
G75*
G02*
X87379881Y-56819234I189443J109375D01*
G01*
G37*
G36*
G01*
X86592381Y-55455244D02*
X87036219Y-55198994D01*
G75*
G02*
X87335037Y-55279062I109375J-189443D01*
G01*
X87553787Y-55657948D01*
G75*
G02*
X87473719Y-55956766I-189443J-109375D01*
G01*
X87029881Y-56213016D01*
G75*
G02*
X86731063Y-56132948I-109375J189443D01*
G01*
X86512313Y-55754062D01*
G75*
G02*
X86592381Y-55455244I189443J109375D01*
G01*
G37*
X99853520Y-55626000D03*
X101253520Y-55626000D03*
D20*
X93675200Y-64031900D03*
X93675200Y-65431900D03*
X93675200Y-52424100D03*
X93675200Y-53824100D03*
G36*
G01*
X84705000Y-61905000D02*
X84205000Y-61905000D01*
G75*
G02*
X83980000Y-61680000I0J225000D01*
G01*
X83980000Y-61230000D01*
G75*
G02*
X84205000Y-61005000I225000J0D01*
G01*
X84705000Y-61005000D01*
G75*
G02*
X84930000Y-61230000I0J-225000D01*
G01*
X84930000Y-61680000D01*
G75*
G02*
X84705000Y-61905000I-225000J0D01*
G01*
G37*
G36*
G01*
X84705000Y-63455000D02*
X84205000Y-63455000D01*
G75*
G02*
X83980000Y-63230000I0J225000D01*
G01*
X83980000Y-62780000D01*
G75*
G02*
X84205000Y-62555000I225000J0D01*
G01*
X84705000Y-62555000D01*
G75*
G02*
X84930000Y-62780000I0J-225000D01*
G01*
X84930000Y-63230000D01*
G75*
G02*
X84705000Y-63455000I-225000J0D01*
G01*
G37*
G36*
G01*
X84705000Y-55301000D02*
X84205000Y-55301000D01*
G75*
G02*
X83980000Y-55076000I0J225000D01*
G01*
X83980000Y-54626000D01*
G75*
G02*
X84205000Y-54401000I225000J0D01*
G01*
X84705000Y-54401000D01*
G75*
G02*
X84930000Y-54626000I0J-225000D01*
G01*
X84930000Y-55076000D01*
G75*
G02*
X84705000Y-55301000I-225000J0D01*
G01*
G37*
G36*
G01*
X84705000Y-56851000D02*
X84205000Y-56851000D01*
G75*
G02*
X83980000Y-56626000I0J225000D01*
G01*
X83980000Y-56176000D01*
G75*
G02*
X84205000Y-55951000I225000J0D01*
G01*
X84705000Y-55951000D01*
G75*
G02*
X84930000Y-56176000I0J-225000D01*
G01*
X84930000Y-56626000D01*
G75*
G02*
X84705000Y-56851000I-225000J0D01*
G01*
G37*
M02*
