G04 #@! TF.GenerationSoftware,KiCad,Pcbnew,5.1.10-88a1d61d58~88~ubuntu18.04.1*
G04 #@! TF.CreationDate,2021-11-13T13:18:12+01:00*
G04 #@! TF.ProjectId,rf_phase_shifter_2_45GHz,72665f70-6861-4736-955f-736869667465,1.0.0*
G04 #@! TF.SameCoordinates,Original*
G04 #@! TF.FileFunction,Soldermask,Top*
G04 #@! TF.FilePolarity,Negative*
%FSLAX46Y46*%
G04 Gerber Fmt 4.6, Leading zero omitted, Abs format (unit mm)*
G04 Created by KiCad (PCBNEW 5.1.10-88a1d61d58~88~ubuntu18.04.1) date 2021-11-13 13:18:12*
%MOMM*%
%LPD*%
G01*
G04 APERTURE LIST*
%ADD10R,0.600000X0.700000*%
%ADD11R,0.330000X0.350000*%
%ADD12R,5.000000X1.200000*%
%ADD13R,5.000000X1.600000*%
%ADD14R,1.200000X5.000000*%
%ADD15R,1.600000X5.000000*%
%ADD16R,0.700000X0.600000*%
G04 APERTURE END LIST*
D10*
X110818700Y-60579000D03*
X112218700Y-60579000D03*
D11*
X85103000Y-58278000D03*
X85103000Y-58928000D03*
X85103000Y-59578000D03*
X86093000Y-59578000D03*
X86093000Y-58928000D03*
X86093000Y-58278000D03*
D12*
X75967000Y-58928000D03*
D13*
X75967000Y-61698000D03*
X75967000Y-56158000D03*
D14*
X84455000Y-66654000D03*
D15*
X87225000Y-66654000D03*
X81685000Y-66654000D03*
D14*
X84455000Y-51202000D03*
D15*
X81685000Y-51202000D03*
X87225000Y-51202000D03*
G36*
G01*
X86641650Y-61880000D02*
X86129150Y-61880000D01*
G75*
G02*
X85910400Y-61661250I0J218750D01*
G01*
X85910400Y-61223750D01*
G75*
G02*
X86129150Y-61005000I218750J0D01*
G01*
X86641650Y-61005000D01*
G75*
G02*
X86860400Y-61223750I0J-218750D01*
G01*
X86860400Y-61661250D01*
G75*
G02*
X86641650Y-61880000I-218750J0D01*
G01*
G37*
G36*
G01*
X86641650Y-63455000D02*
X86129150Y-63455000D01*
G75*
G02*
X85910400Y-63236250I0J218750D01*
G01*
X85910400Y-62798750D01*
G75*
G02*
X86129150Y-62580000I218750J0D01*
G01*
X86641650Y-62580000D01*
G75*
G02*
X86860400Y-62798750I0J-218750D01*
G01*
X86860400Y-63236250D01*
G75*
G02*
X86641650Y-63455000I-218750J0D01*
G01*
G37*
G36*
G01*
X86129150Y-55976000D02*
X86641650Y-55976000D01*
G75*
G02*
X86860400Y-56194750I0J-218750D01*
G01*
X86860400Y-56632250D01*
G75*
G02*
X86641650Y-56851000I-218750J0D01*
G01*
X86129150Y-56851000D01*
G75*
G02*
X85910400Y-56632250I0J218750D01*
G01*
X85910400Y-56194750D01*
G75*
G02*
X86129150Y-55976000I218750J0D01*
G01*
G37*
G36*
G01*
X86129150Y-54401000D02*
X86641650Y-54401000D01*
G75*
G02*
X86860400Y-54619750I0J-218750D01*
G01*
X86860400Y-55057250D01*
G75*
G02*
X86641650Y-55276000I-218750J0D01*
G01*
X86129150Y-55276000D01*
G75*
G02*
X85910400Y-55057250I0J218750D01*
G01*
X85910400Y-54619750D01*
G75*
G02*
X86129150Y-54401000I218750J0D01*
G01*
G37*
D10*
X110818700Y-57277000D03*
X112218700Y-57277000D03*
D16*
X104673400Y-61479200D03*
X104673400Y-62879200D03*
X104673400Y-56376800D03*
X104673400Y-54976800D03*
G36*
G01*
X84705000Y-61905000D02*
X84205000Y-61905000D01*
G75*
G02*
X83980000Y-61680000I0J225000D01*
G01*
X83980000Y-61230000D01*
G75*
G02*
X84205000Y-61005000I225000J0D01*
G01*
X84705000Y-61005000D01*
G75*
G02*
X84930000Y-61230000I0J-225000D01*
G01*
X84930000Y-61680000D01*
G75*
G02*
X84705000Y-61905000I-225000J0D01*
G01*
G37*
G36*
G01*
X84705000Y-63455000D02*
X84205000Y-63455000D01*
G75*
G02*
X83980000Y-63230000I0J225000D01*
G01*
X83980000Y-62780000D01*
G75*
G02*
X84205000Y-62555000I225000J0D01*
G01*
X84705000Y-62555000D01*
G75*
G02*
X84930000Y-62780000I0J-225000D01*
G01*
X84930000Y-63230000D01*
G75*
G02*
X84705000Y-63455000I-225000J0D01*
G01*
G37*
G36*
G01*
X84705000Y-55301000D02*
X84205000Y-55301000D01*
G75*
G02*
X83980000Y-55076000I0J225000D01*
G01*
X83980000Y-54626000D01*
G75*
G02*
X84205000Y-54401000I225000J0D01*
G01*
X84705000Y-54401000D01*
G75*
G02*
X84930000Y-54626000I0J-225000D01*
G01*
X84930000Y-55076000D01*
G75*
G02*
X84705000Y-55301000I-225000J0D01*
G01*
G37*
G36*
G01*
X84705000Y-56851000D02*
X84205000Y-56851000D01*
G75*
G02*
X83980000Y-56626000I0J225000D01*
G01*
X83980000Y-56176000D01*
G75*
G02*
X84205000Y-55951000I225000J0D01*
G01*
X84705000Y-55951000D01*
G75*
G02*
X84930000Y-56176000I0J-225000D01*
G01*
X84930000Y-56626000D01*
G75*
G02*
X84705000Y-56851000I-225000J0D01*
G01*
G37*
M02*
