M48
; DRILL file {KiCad 5.1.10-88a1d61d58~88~ubuntu18.04.1} date Mon Sep 27 17:27:03 2021
; FORMAT={-:-/ absolute / inch / decimal}
; #@! TF.CreationDate,2021-09-27T17:27:03+02:00
; #@! TF.GenerationSoftware,Kicad,Pcbnew,5.1.10-88a1d61d58~88~ubuntu18.04.1
; #@! TF.FileFunction,Plated,1,2,PTH
FMAT,2
INCH
T1C0.0157
T2C0.1181
%
G90
G05
T1
X2.945Y-2.15
X2.945Y-2.49
X2.99Y-2.15
X2.99Y-2.49
X3.035Y-2.15
X3.035Y-2.49
X3.11Y-2.27
X3.11Y-2.37
X3.15Y-1.97
X3.15Y-2.015
X3.15Y-2.06
X3.15Y-2.58
X3.15Y-2.625
X3.15Y-2.67
X3.3Y-2.32
X3.455Y-2.155
X3.455Y-2.485
X3.5Y-1.97
X3.5Y-2.015
X3.5Y-2.06
X3.5Y-2.58
X3.5Y-2.625
X3.5Y-2.67
X4.005Y-2.145
X4.005Y-2.495
X4.04Y-2.145
X4.04Y-2.495
X4.68Y-2.16
X4.68Y-2.48
X4.715Y-2.16
X4.715Y-2.48
T2
X2.995Y-2.015
X2.995Y-2.62
X4.88Y-2.015
X4.88Y-2.62
T0
M30
