G04 #@! TF.GenerationSoftware,KiCad,Pcbnew,5.1.10-88a1d61d58~88~ubuntu18.04.1*
G04 #@! TF.CreationDate,2021-09-27T18:06:16+02:00*
G04 #@! TF.ProjectId,rf_phase_shifter_2_45GHz,72665f70-6861-4736-955f-736869667465,1.0.0*
G04 #@! TF.SameCoordinates,Original*
G04 #@! TF.FileFunction,Legend,Top*
G04 #@! TF.FilePolarity,Positive*
%FSLAX46Y46*%
G04 Gerber Fmt 4.6, Leading zero omitted, Abs format (unit mm)*
G04 Created by KiCad (PCBNEW 5.1.10-88a1d61d58~88~ubuntu18.04.1) date 2021-09-27 18:06:16*
%MOMM*%
%LPD*%
G01*
G04 APERTURE LIST*
%ADD10C,0.120000*%
%ADD11C,0.100000*%
%ADD12C,0.150000*%
%ADD13C,0.250000*%
%ADD14R,0.700000X0.600000*%
%ADD15R,0.330000X0.350000*%
%ADD16R,5.000000X1.200000*%
%ADD17R,5.000000X1.600000*%
%ADD18R,1.200000X5.000000*%
%ADD19R,1.600000X5.000000*%
G04 APERTURE END LIST*
D10*
X119827600Y-60127500D02*
X118627600Y-60127500D01*
X119827600Y-61977500D02*
X119827600Y-60127500D01*
X118627600Y-61977500D02*
X118627600Y-60127500D01*
D11*
X84498000Y-58278000D02*
X84498000Y-58278000D01*
X84598000Y-58278000D02*
X84598000Y-58278000D01*
X84973000Y-59928000D02*
X86223000Y-59928000D01*
X84973000Y-57928000D02*
X86223000Y-57928000D01*
X84498000Y-58278000D02*
G75*
G02*
X84598000Y-58278000I50000J0D01*
G01*
X84598000Y-58278000D02*
G75*
G02*
X84498000Y-58278000I-50000J0D01*
G01*
D12*
X74207000Y-54928000D02*
X78907000Y-54928000D01*
X78907000Y-62928000D02*
X78907000Y-54928000D01*
X74207000Y-62928000D02*
X78907000Y-62928000D01*
D13*
X79667000Y-58928000D02*
G75*
G03*
X79667000Y-58928000I-125000J0D01*
G01*
D12*
X80455000Y-68414000D02*
X80455000Y-63714000D01*
X88455000Y-63714000D02*
X80455000Y-63714000D01*
X88455000Y-68414000D02*
X88455000Y-63714000D01*
D13*
X84580000Y-63079000D02*
G75*
G03*
X84580000Y-63079000I-125000J0D01*
G01*
D12*
X88455000Y-49442000D02*
X88455000Y-54142000D01*
X80455000Y-54142000D02*
X88455000Y-54142000D01*
X80455000Y-49442000D02*
X80455000Y-54142000D01*
D13*
X84580000Y-54777000D02*
G75*
G03*
X84580000Y-54777000I-125000J0D01*
G01*
D10*
X85977000Y-62392779D02*
X85977000Y-62067221D01*
X86997000Y-62392779D02*
X86997000Y-62067221D01*
X86997000Y-55463221D02*
X86997000Y-55788779D01*
X85977000Y-55463221D02*
X85977000Y-55788779D01*
X118627600Y-57728500D02*
X119827600Y-57728500D01*
X118627600Y-55878500D02*
X118627600Y-57728500D01*
X119827600Y-55878500D02*
X119827600Y-57728500D01*
X101558800Y-62422000D02*
X101558800Y-60572000D01*
X102758800Y-62422000D02*
X102758800Y-60572000D01*
X102758800Y-60572000D02*
X101558800Y-60572000D01*
X102771500Y-55434000D02*
X102771500Y-57284000D01*
X101571500Y-55434000D02*
X101571500Y-57284000D01*
X101571500Y-57284000D02*
X102771500Y-57284000D01*
X83945000Y-62370580D02*
X83945000Y-62089420D01*
X84965000Y-62370580D02*
X84965000Y-62089420D01*
X83945000Y-55766580D02*
X83945000Y-55485420D01*
X84965000Y-55766580D02*
X84965000Y-55485420D01*
%LPC*%
D11*
G36*
X126746000Y-69342000D02*
G01*
X73279000Y-69342000D01*
X73279000Y-48387000D01*
X126746000Y-48387000D01*
X126746000Y-69342000D01*
G37*
X126746000Y-69342000D02*
X73279000Y-69342000D01*
X73279000Y-48387000D01*
X126746000Y-48387000D01*
X126746000Y-69342000D01*
D14*
X119227600Y-60577500D03*
X119227600Y-61977500D03*
G36*
G01*
X109707000Y-60776500D02*
X109707000Y-60381500D01*
G75*
G02*
X109904500Y-60184000I197500J0D01*
G01*
X119055500Y-60184000D01*
G75*
G02*
X119253000Y-60381500I0J-197500D01*
G01*
X119253000Y-60776500D01*
G75*
G02*
X119055500Y-60974000I-197500J0D01*
G01*
X109904500Y-60974000D01*
G75*
G02*
X109707000Y-60776500I0J197500D01*
G01*
G37*
G36*
G01*
X102161000Y-60776500D02*
X102161000Y-60381500D01*
G75*
G02*
X102358500Y-60184000I197500J0D01*
G01*
X111509500Y-60184000D01*
G75*
G02*
X111707000Y-60381500I0J-197500D01*
G01*
X111707000Y-60776500D01*
G75*
G02*
X111509500Y-60974000I-197500J0D01*
G01*
X102358500Y-60974000D01*
G75*
G02*
X102161000Y-60776500I0J197500D01*
G01*
G37*
G36*
G01*
X109707000Y-57474500D02*
X109707000Y-57079500D01*
G75*
G02*
X109904500Y-56882000I197500J0D01*
G01*
X119055500Y-56882000D01*
G75*
G02*
X119253000Y-57079500I0J-197500D01*
G01*
X119253000Y-57474500D01*
G75*
G02*
X119055500Y-57672000I-197500J0D01*
G01*
X109904500Y-57672000D01*
G75*
G02*
X109707000Y-57474500I0J197500D01*
G01*
G37*
G36*
G01*
X102161000Y-57474500D02*
X102161000Y-57079500D01*
G75*
G02*
X102358500Y-56882000I197500J0D01*
G01*
X111509500Y-56882000D01*
G75*
G02*
X111707000Y-57079500I0J-197500D01*
G01*
X111707000Y-57474500D01*
G75*
G02*
X111509500Y-57672000I-197500J0D01*
G01*
X102358500Y-57672000D01*
G75*
G02*
X102161000Y-57474500I0J197500D01*
G01*
G37*
G36*
G01*
X93107000Y-61179000D02*
X93107000Y-59979000D01*
G75*
G02*
X93707000Y-59379000I600000J0D01*
G01*
X101567000Y-59379000D01*
G75*
G02*
X102167000Y-59979000I0J-600000D01*
G01*
X102167000Y-61179000D01*
G75*
G02*
X101567000Y-61779000I-600000J0D01*
G01*
X93707000Y-61779000D01*
G75*
G02*
X93107000Y-61179000I0J600000D01*
G01*
G37*
G36*
G01*
X86047000Y-61179000D02*
X86047000Y-59979000D01*
G75*
G02*
X86647000Y-59379000I600000J0D01*
G01*
X94507000Y-59379000D01*
G75*
G02*
X95107000Y-59979000I0J-600000D01*
G01*
X95107000Y-61179000D01*
G75*
G02*
X94507000Y-61779000I-600000J0D01*
G01*
X86647000Y-61779000D01*
G75*
G02*
X86047000Y-61179000I0J600000D01*
G01*
G37*
G36*
G01*
X93107000Y-57877000D02*
X93107000Y-56677000D01*
G75*
G02*
X93707000Y-56077000I600000J0D01*
G01*
X101567000Y-56077000D01*
G75*
G02*
X102167000Y-56677000I0J-600000D01*
G01*
X102167000Y-57877000D01*
G75*
G02*
X101567000Y-58477000I-600000J0D01*
G01*
X93707000Y-58477000D01*
G75*
G02*
X93107000Y-57877000I0J600000D01*
G01*
G37*
G36*
G01*
X86047000Y-57877000D02*
X86047000Y-56677000D01*
G75*
G02*
X86647000Y-56077000I600000J0D01*
G01*
X94507000Y-56077000D01*
G75*
G02*
X95107000Y-56677000I0J-600000D01*
G01*
X95107000Y-57877000D01*
G75*
G02*
X94507000Y-58477000I-600000J0D01*
G01*
X86647000Y-58477000D01*
G75*
G02*
X86047000Y-57877000I0J600000D01*
G01*
G37*
D15*
X85103000Y-58278000D03*
X85103000Y-58928000D03*
X85103000Y-59578000D03*
X86093000Y-59578000D03*
X86093000Y-58928000D03*
X86093000Y-58278000D03*
D16*
X75967000Y-58928000D03*
D17*
X75967000Y-61698000D03*
X75967000Y-56158000D03*
D18*
X84455000Y-66654000D03*
D19*
X87225000Y-66654000D03*
X81685000Y-66654000D03*
D18*
X84455000Y-51202000D03*
D19*
X81685000Y-51202000D03*
X87225000Y-51202000D03*
G36*
G01*
X86743250Y-61880000D02*
X86230750Y-61880000D01*
G75*
G02*
X86012000Y-61661250I0J218750D01*
G01*
X86012000Y-61223750D01*
G75*
G02*
X86230750Y-61005000I218750J0D01*
G01*
X86743250Y-61005000D01*
G75*
G02*
X86962000Y-61223750I0J-218750D01*
G01*
X86962000Y-61661250D01*
G75*
G02*
X86743250Y-61880000I-218750J0D01*
G01*
G37*
G36*
G01*
X86743250Y-63455000D02*
X86230750Y-63455000D01*
G75*
G02*
X86012000Y-63236250I0J218750D01*
G01*
X86012000Y-62798750D01*
G75*
G02*
X86230750Y-62580000I218750J0D01*
G01*
X86743250Y-62580000D01*
G75*
G02*
X86962000Y-62798750I0J-218750D01*
G01*
X86962000Y-63236250D01*
G75*
G02*
X86743250Y-63455000I-218750J0D01*
G01*
G37*
G36*
G01*
X86230750Y-55976000D02*
X86743250Y-55976000D01*
G75*
G02*
X86962000Y-56194750I0J-218750D01*
G01*
X86962000Y-56632250D01*
G75*
G02*
X86743250Y-56851000I-218750J0D01*
G01*
X86230750Y-56851000D01*
G75*
G02*
X86012000Y-56632250I0J218750D01*
G01*
X86012000Y-56194750D01*
G75*
G02*
X86230750Y-55976000I218750J0D01*
G01*
G37*
G36*
G01*
X86230750Y-54401000D02*
X86743250Y-54401000D01*
G75*
G02*
X86962000Y-54619750I0J-218750D01*
G01*
X86962000Y-55057250D01*
G75*
G02*
X86743250Y-55276000I-218750J0D01*
G01*
X86230750Y-55276000D01*
G75*
G02*
X86012000Y-55057250I0J218750D01*
G01*
X86012000Y-54619750D01*
G75*
G02*
X86230750Y-54401000I218750J0D01*
G01*
G37*
D14*
X119227600Y-57278500D03*
X119227600Y-55878500D03*
X102158800Y-62422000D03*
X102158800Y-61022000D03*
X102171500Y-55434000D03*
X102171500Y-56834000D03*
G36*
G01*
X84705000Y-61905000D02*
X84205000Y-61905000D01*
G75*
G02*
X83980000Y-61680000I0J225000D01*
G01*
X83980000Y-61230000D01*
G75*
G02*
X84205000Y-61005000I225000J0D01*
G01*
X84705000Y-61005000D01*
G75*
G02*
X84930000Y-61230000I0J-225000D01*
G01*
X84930000Y-61680000D01*
G75*
G02*
X84705000Y-61905000I-225000J0D01*
G01*
G37*
G36*
G01*
X84705000Y-63455000D02*
X84205000Y-63455000D01*
G75*
G02*
X83980000Y-63230000I0J225000D01*
G01*
X83980000Y-62780000D01*
G75*
G02*
X84205000Y-62555000I225000J0D01*
G01*
X84705000Y-62555000D01*
G75*
G02*
X84930000Y-62780000I0J-225000D01*
G01*
X84930000Y-63230000D01*
G75*
G02*
X84705000Y-63455000I-225000J0D01*
G01*
G37*
G36*
G01*
X84705000Y-55301000D02*
X84205000Y-55301000D01*
G75*
G02*
X83980000Y-55076000I0J225000D01*
G01*
X83980000Y-54626000D01*
G75*
G02*
X84205000Y-54401000I225000J0D01*
G01*
X84705000Y-54401000D01*
G75*
G02*
X84930000Y-54626000I0J-225000D01*
G01*
X84930000Y-55076000D01*
G75*
G02*
X84705000Y-55301000I-225000J0D01*
G01*
G37*
G36*
G01*
X84705000Y-56851000D02*
X84205000Y-56851000D01*
G75*
G02*
X83980000Y-56626000I0J225000D01*
G01*
X83980000Y-56176000D01*
G75*
G02*
X84205000Y-55951000I225000J0D01*
G01*
X84705000Y-55951000D01*
G75*
G02*
X84930000Y-56176000I0J-225000D01*
G01*
X84930000Y-56626000D01*
G75*
G02*
X84705000Y-56851000I-225000J0D01*
G01*
G37*
M02*
