G04 #@! TF.GenerationSoftware,KiCad,Pcbnew,5.1.10-88a1d61d58~88~ubuntu18.04.1*
G04 #@! TF.CreationDate,2021-09-29T07:56:17+02:00*
G04 #@! TF.ProjectId,rf_phase_shifter_2_45GHz,72665f70-6861-4736-955f-736869667465,1.0.0*
G04 #@! TF.SameCoordinates,Original*
G04 #@! TF.FileFunction,Soldermask,Top*
G04 #@! TF.FilePolarity,Negative*
%FSLAX46Y46*%
G04 Gerber Fmt 4.6, Leading zero omitted, Abs format (unit mm)*
G04 Created by KiCad (PCBNEW 5.1.10-88a1d61d58~88~ubuntu18.04.1) date 2021-09-29 07:56:17*
%MOMM*%
%LPD*%
G01*
G04 APERTURE LIST*
%ADD10R,0.700000X0.600000*%
%ADD11R,0.330000X0.350000*%
%ADD12R,5.000000X1.200000*%
%ADD13R,5.000000X1.600000*%
%ADD14R,1.200000X5.000000*%
%ADD15R,1.600000X5.000000*%
G04 APERTURE END LIST*
D10*
X119227600Y-60577500D03*
X119227600Y-61977500D03*
D11*
X85103000Y-58278000D03*
X85103000Y-58928000D03*
X85103000Y-59578000D03*
X86093000Y-59578000D03*
X86093000Y-58928000D03*
X86093000Y-58278000D03*
D12*
X75967000Y-58928000D03*
D13*
X75967000Y-61698000D03*
X75967000Y-56158000D03*
D14*
X84455000Y-66654000D03*
D15*
X87225000Y-66654000D03*
X81685000Y-66654000D03*
D14*
X84455000Y-51202000D03*
D15*
X81685000Y-51202000D03*
X87225000Y-51202000D03*
G36*
G01*
X86743250Y-61880000D02*
X86230750Y-61880000D01*
G75*
G02*
X86012000Y-61661250I0J218750D01*
G01*
X86012000Y-61223750D01*
G75*
G02*
X86230750Y-61005000I218750J0D01*
G01*
X86743250Y-61005000D01*
G75*
G02*
X86962000Y-61223750I0J-218750D01*
G01*
X86962000Y-61661250D01*
G75*
G02*
X86743250Y-61880000I-218750J0D01*
G01*
G37*
G36*
G01*
X86743250Y-63455000D02*
X86230750Y-63455000D01*
G75*
G02*
X86012000Y-63236250I0J218750D01*
G01*
X86012000Y-62798750D01*
G75*
G02*
X86230750Y-62580000I218750J0D01*
G01*
X86743250Y-62580000D01*
G75*
G02*
X86962000Y-62798750I0J-218750D01*
G01*
X86962000Y-63236250D01*
G75*
G02*
X86743250Y-63455000I-218750J0D01*
G01*
G37*
G36*
G01*
X86230750Y-55976000D02*
X86743250Y-55976000D01*
G75*
G02*
X86962000Y-56194750I0J-218750D01*
G01*
X86962000Y-56632250D01*
G75*
G02*
X86743250Y-56851000I-218750J0D01*
G01*
X86230750Y-56851000D01*
G75*
G02*
X86012000Y-56632250I0J218750D01*
G01*
X86012000Y-56194750D01*
G75*
G02*
X86230750Y-55976000I218750J0D01*
G01*
G37*
G36*
G01*
X86230750Y-54401000D02*
X86743250Y-54401000D01*
G75*
G02*
X86962000Y-54619750I0J-218750D01*
G01*
X86962000Y-55057250D01*
G75*
G02*
X86743250Y-55276000I-218750J0D01*
G01*
X86230750Y-55276000D01*
G75*
G02*
X86012000Y-55057250I0J218750D01*
G01*
X86012000Y-54619750D01*
G75*
G02*
X86230750Y-54401000I218750J0D01*
G01*
G37*
D10*
X119227600Y-57278500D03*
X119227600Y-55878500D03*
X102158800Y-61022000D03*
X102158800Y-62422000D03*
X102171500Y-56834000D03*
X102171500Y-55434000D03*
G36*
G01*
X84705000Y-61905000D02*
X84205000Y-61905000D01*
G75*
G02*
X83980000Y-61680000I0J225000D01*
G01*
X83980000Y-61230000D01*
G75*
G02*
X84205000Y-61005000I225000J0D01*
G01*
X84705000Y-61005000D01*
G75*
G02*
X84930000Y-61230000I0J-225000D01*
G01*
X84930000Y-61680000D01*
G75*
G02*
X84705000Y-61905000I-225000J0D01*
G01*
G37*
G36*
G01*
X84705000Y-63455000D02*
X84205000Y-63455000D01*
G75*
G02*
X83980000Y-63230000I0J225000D01*
G01*
X83980000Y-62780000D01*
G75*
G02*
X84205000Y-62555000I225000J0D01*
G01*
X84705000Y-62555000D01*
G75*
G02*
X84930000Y-62780000I0J-225000D01*
G01*
X84930000Y-63230000D01*
G75*
G02*
X84705000Y-63455000I-225000J0D01*
G01*
G37*
G36*
G01*
X84705000Y-55301000D02*
X84205000Y-55301000D01*
G75*
G02*
X83980000Y-55076000I0J225000D01*
G01*
X83980000Y-54626000D01*
G75*
G02*
X84205000Y-54401000I225000J0D01*
G01*
X84705000Y-54401000D01*
G75*
G02*
X84930000Y-54626000I0J-225000D01*
G01*
X84930000Y-55076000D01*
G75*
G02*
X84705000Y-55301000I-225000J0D01*
G01*
G37*
G36*
G01*
X84705000Y-56851000D02*
X84205000Y-56851000D01*
G75*
G02*
X83980000Y-56626000I0J225000D01*
G01*
X83980000Y-56176000D01*
G75*
G02*
X84205000Y-55951000I225000J0D01*
G01*
X84705000Y-55951000D01*
G75*
G02*
X84930000Y-56176000I0J-225000D01*
G01*
X84930000Y-56626000D01*
G75*
G02*
X84705000Y-56851000I-225000J0D01*
G01*
G37*
M02*
