%TF.GenerationSoftware,KiCad,Pcbnew,5.1.10-88a1d61d58~88~ubuntu18.04.1*%
%TF.CreationDate,2021-09-27T14:33:51+02:00*%
%TF.ProjectId,rf_phase_shifter_2_45GHz,72665f70-6861-4736-955f-736869667465,1.0.0*%
%TF.SameCoordinates,Original*%
%TF.FileFunction,Copper,L2,Bot*%
%TF.FilePolarity,Positive*%
%FSLAX46Y46*%
G04 Gerber Fmt 4.6, Leading zero omitted, Abs format (unit mm)*
G04 Created by KiCad (PCBNEW 5.1.10-88a1d61d58~88~ubuntu18.04.1) date 2021-09-27 14:33:51*
%MOMM*%
%LPD*%
G01*
G04 APERTURE LIST*
%TA.AperFunction,SMDPad,CuDef*%
%ADD10R,5.000000X1.600000*%
%TD*%
%TA.AperFunction,SMDPad,CuDef*%
%ADD11R,1.600000X5.000000*%
%TD*%
%TA.AperFunction,ViaPad*%
%ADD12C,5.000000*%
%TD*%
%TA.AperFunction,ViaPad*%
%ADD13C,0.800000*%
%TD*%
%TA.AperFunction,Conductor*%
%ADD14C,0.790000*%
%TD*%
%TA.AperFunction,Conductor*%
%ADD15C,0.254000*%
%TD*%
%TA.AperFunction,Conductor*%
%ADD16C,0.100000*%
%TD*%
G04 APERTURE END LIST*
D10*
%TO.P,J3,2*%
%TO.N,GND*%
X75967000Y-61698000D03*
X75967000Y-56158000D03*
%TD*%
D11*
%TO.P,J2,2*%
%TO.N,GND*%
X87225000Y-66654000D03*
X81685000Y-66654000D03*
%TD*%
%TO.P,J1,2*%
%TO.N,GND*%
X81685000Y-51202000D03*
X87225000Y-51202000D03*
%TD*%
D12*
%TO.N,GND*%
X76073000Y-51181000D03*
X76073000Y-66548000D03*
X123952000Y-51181000D03*
X123952000Y-66548000D03*
D13*
X102616000Y-54483000D03*
X101727000Y-54483000D03*
X119761000Y-54864000D03*
X118872000Y-54864000D03*
X119761000Y-62992000D03*
X118872000Y-62992000D03*
X102616000Y-63373000D03*
X101727000Y-63373000D03*
X75946000Y-63246000D03*
X77089000Y-63246000D03*
X74803000Y-63246000D03*
X75946000Y-54610000D03*
X77089000Y-54610000D03*
X74803000Y-54610000D03*
X80010000Y-51181000D03*
X80010000Y-52324000D03*
X80010000Y-50038000D03*
X88900000Y-51181000D03*
X88900000Y-52324000D03*
X88900000Y-50038000D03*
X88900000Y-66675000D03*
X88900000Y-67818000D03*
X88900000Y-65532000D03*
X80010000Y-67818000D03*
X80010000Y-65532000D03*
X83820000Y-58928000D03*
X80010000Y-66675000D03*
%TO.N,Net-(J3-Pad1)*%
X78994000Y-57658000D03*
X87757000Y-63119000D03*
X78994000Y-60198000D03*
X87757000Y-54737000D03*
%TD*%
D14*
%TO.N,Net-(J3-Pad1)*%
X79062001Y-57589999D02*
X78994000Y-57658000D01*
X86106000Y-54737000D02*
X85217000Y-55626000D01*
X87757000Y-54737000D02*
X86106000Y-54737000D01*
X81026000Y-62230000D02*
X78994000Y-60198000D01*
X85217000Y-62230000D02*
X81026000Y-62230000D01*
X86106000Y-63119000D02*
X85217000Y-62230000D01*
X87757000Y-63119000D02*
X86106000Y-63119000D01*
X81026000Y-55626000D02*
X78994000Y-57658000D01*
X85217000Y-55626000D02*
X81026000Y-55626000D01*
%TD*%
D15*
%TO.N,GND*%
X80250000Y-50916250D02*
X80408750Y-51075000D01*
X81558000Y-51075000D01*
X81558000Y-51055000D01*
X81812000Y-51055000D01*
X81812000Y-51075000D01*
X82961250Y-51075000D01*
X83120000Y-50916250D01*
X83122946Y-48793000D01*
X85787054Y-48793000D01*
X85790000Y-50916250D01*
X85948750Y-51075000D01*
X87098000Y-51075000D01*
X87098000Y-51055000D01*
X87352000Y-51055000D01*
X87352000Y-51075000D01*
X88501250Y-51075000D01*
X88660000Y-50916250D01*
X88662946Y-48793000D01*
X126340001Y-48793000D01*
X126340000Y-68936000D01*
X88662770Y-68936000D01*
X88660000Y-66939750D01*
X88501250Y-66781000D01*
X87352000Y-66781000D01*
X87352000Y-66801000D01*
X87098000Y-66801000D01*
X87098000Y-66781000D01*
X85948750Y-66781000D01*
X85790000Y-66939750D01*
X85787230Y-68936000D01*
X83122770Y-68936000D01*
X83120000Y-66939750D01*
X82961250Y-66781000D01*
X81812000Y-66781000D01*
X81812000Y-66801000D01*
X81558000Y-66801000D01*
X81558000Y-66781000D01*
X80408750Y-66781000D01*
X80250000Y-66939750D01*
X80247230Y-68936000D01*
X73685000Y-68936000D01*
X73685000Y-64154000D01*
X80246928Y-64154000D01*
X80250000Y-66368250D01*
X80408750Y-66527000D01*
X81558000Y-66527000D01*
X81558000Y-63677750D01*
X81812000Y-63677750D01*
X81812000Y-66527000D01*
X82961250Y-66527000D01*
X83120000Y-66368250D01*
X83123072Y-64154000D01*
X83110812Y-64029518D01*
X83074502Y-63909820D01*
X83015537Y-63799506D01*
X82936185Y-63702815D01*
X82839494Y-63623463D01*
X82729180Y-63564498D01*
X82609482Y-63528188D01*
X82485000Y-63515928D01*
X81970750Y-63519000D01*
X81812000Y-63677750D01*
X81558000Y-63677750D01*
X81399250Y-63519000D01*
X80885000Y-63515928D01*
X80760518Y-63528188D01*
X80640820Y-63564498D01*
X80530506Y-63623463D01*
X80433815Y-63702815D01*
X80354463Y-63799506D01*
X80295498Y-63909820D01*
X80259188Y-64029518D01*
X80246928Y-64154000D01*
X73685000Y-64154000D01*
X73685000Y-63135770D01*
X75681250Y-63133000D01*
X75840000Y-62974250D01*
X75840000Y-61825000D01*
X76094000Y-61825000D01*
X76094000Y-62974250D01*
X76252750Y-63133000D01*
X78467000Y-63136072D01*
X78591482Y-63123812D01*
X78711180Y-63087502D01*
X78821494Y-63028537D01*
X78918185Y-62949185D01*
X78997537Y-62852494D01*
X79056502Y-62742180D01*
X79092812Y-62622482D01*
X79105072Y-62498000D01*
X79102000Y-61983750D01*
X78943250Y-61825000D01*
X76094000Y-61825000D01*
X75840000Y-61825000D01*
X75820000Y-61825000D01*
X75820000Y-61571000D01*
X75840000Y-61571000D01*
X75840000Y-60421750D01*
X76094000Y-60421750D01*
X76094000Y-61571000D01*
X78943250Y-61571000D01*
X79102000Y-61412250D01*
X79102052Y-61403482D01*
X80450337Y-62751767D01*
X80474631Y-62781369D01*
X80504233Y-62805663D01*
X80504235Y-62805665D01*
X80522435Y-62820601D01*
X80592792Y-62878342D01*
X80616831Y-62891191D01*
X80727600Y-62950399D01*
X80873877Y-62994771D01*
X80887958Y-62996158D01*
X80987886Y-63006000D01*
X80987893Y-63006000D01*
X81026000Y-63009753D01*
X81064107Y-63006000D01*
X84895571Y-63006000D01*
X85530337Y-63640767D01*
X85554631Y-63670369D01*
X85584233Y-63694663D01*
X85584235Y-63694665D01*
X85594166Y-63702815D01*
X85672792Y-63767342D01*
X85732967Y-63799506D01*
X85807601Y-63839399D01*
X85863995Y-63856506D01*
X85835498Y-63909820D01*
X85799188Y-64029518D01*
X85786928Y-64154000D01*
X85790000Y-66368250D01*
X85948750Y-66527000D01*
X87098000Y-66527000D01*
X87098000Y-66507000D01*
X87352000Y-66507000D01*
X87352000Y-66527000D01*
X88501250Y-66527000D01*
X88660000Y-66368250D01*
X88663072Y-64154000D01*
X88650812Y-64029518D01*
X88614502Y-63909820D01*
X88555537Y-63799506D01*
X88476185Y-63702815D01*
X88379494Y-63623463D01*
X88364562Y-63615482D01*
X88449113Y-63488942D01*
X88507987Y-63346809D01*
X88538000Y-63195922D01*
X88538000Y-63042078D01*
X88507987Y-62891191D01*
X88449113Y-62749058D01*
X88363642Y-62621141D01*
X88254859Y-62512358D01*
X88126942Y-62426887D01*
X87984809Y-62368013D01*
X87833922Y-62338000D01*
X87680078Y-62338000D01*
X87654941Y-62343000D01*
X86427430Y-62343000D01*
X85792667Y-61708238D01*
X85768369Y-61678631D01*
X85650208Y-61581658D01*
X85515399Y-61509601D01*
X85369122Y-61465229D01*
X85255114Y-61454000D01*
X85255107Y-61454000D01*
X85217000Y-61450247D01*
X85178893Y-61454000D01*
X81347430Y-61454000D01*
X79614882Y-59721453D01*
X79600642Y-59700141D01*
X79491859Y-59591358D01*
X79363942Y-59505887D01*
X79221809Y-59447013D01*
X79070922Y-59417000D01*
X78917078Y-59417000D01*
X78766191Y-59447013D01*
X78624058Y-59505887D01*
X78496141Y-59591358D01*
X78387358Y-59700141D01*
X78301887Y-59828058D01*
X78243013Y-59970191D01*
X78213000Y-60121078D01*
X78213000Y-60260280D01*
X76252750Y-60263000D01*
X76094000Y-60421750D01*
X75840000Y-60421750D01*
X75681250Y-60263000D01*
X73685000Y-60260230D01*
X73685000Y-57595770D01*
X75681250Y-57593000D01*
X75840000Y-57434250D01*
X75840000Y-56285000D01*
X76094000Y-56285000D01*
X76094000Y-57434250D01*
X76252750Y-57593000D01*
X78213000Y-57595720D01*
X78213000Y-57734922D01*
X78243013Y-57885809D01*
X78301887Y-58027942D01*
X78387358Y-58155859D01*
X78496141Y-58264642D01*
X78624058Y-58350113D01*
X78766191Y-58408987D01*
X78917078Y-58439000D01*
X79070922Y-58439000D01*
X79221809Y-58408987D01*
X79363942Y-58350113D01*
X79491859Y-58264642D01*
X79600642Y-58155859D01*
X79614882Y-58134547D01*
X81347430Y-56402000D01*
X85178893Y-56402000D01*
X85217000Y-56405753D01*
X85255107Y-56402000D01*
X85255114Y-56402000D01*
X85369122Y-56390771D01*
X85515399Y-56346399D01*
X85650208Y-56274342D01*
X85768369Y-56177369D01*
X85792667Y-56147762D01*
X86427430Y-55513000D01*
X87654941Y-55513000D01*
X87680078Y-55518000D01*
X87833922Y-55518000D01*
X87984809Y-55487987D01*
X88126942Y-55429113D01*
X88254859Y-55343642D01*
X88363642Y-55234859D01*
X88449113Y-55106942D01*
X88507987Y-54964809D01*
X88538000Y-54813922D01*
X88538000Y-54660078D01*
X88507987Y-54509191D01*
X88449113Y-54367058D01*
X88364562Y-54240518D01*
X88379494Y-54232537D01*
X88476185Y-54153185D01*
X88555537Y-54056494D01*
X88614502Y-53946180D01*
X88650812Y-53826482D01*
X88663072Y-53702000D01*
X88660000Y-51487750D01*
X88501250Y-51329000D01*
X87352000Y-51329000D01*
X87352000Y-51349000D01*
X87098000Y-51349000D01*
X87098000Y-51329000D01*
X85948750Y-51329000D01*
X85790000Y-51487750D01*
X85786928Y-53702000D01*
X85799188Y-53826482D01*
X85835498Y-53946180D01*
X85863995Y-53999494D01*
X85807601Y-54016601D01*
X85672792Y-54088658D01*
X85672790Y-54088659D01*
X85672791Y-54088659D01*
X85584235Y-54161335D01*
X85584233Y-54161337D01*
X85554631Y-54185631D01*
X85530337Y-54215233D01*
X84895571Y-54850000D01*
X81064107Y-54850000D01*
X81026000Y-54846247D01*
X80987893Y-54850000D01*
X80987886Y-54850000D01*
X80887958Y-54859842D01*
X80873877Y-54861229D01*
X80727600Y-54905601D01*
X80655543Y-54944117D01*
X80592792Y-54977658D01*
X80592790Y-54977659D01*
X80592791Y-54977659D01*
X80504235Y-55050335D01*
X80504233Y-55050337D01*
X80474631Y-55074631D01*
X80450337Y-55104233D01*
X79102052Y-56452518D01*
X79102000Y-56443750D01*
X78943250Y-56285000D01*
X76094000Y-56285000D01*
X75840000Y-56285000D01*
X75820000Y-56285000D01*
X75820000Y-56031000D01*
X75840000Y-56031000D01*
X75840000Y-54881750D01*
X76094000Y-54881750D01*
X76094000Y-56031000D01*
X78943250Y-56031000D01*
X79102000Y-55872250D01*
X79105072Y-55358000D01*
X79092812Y-55233518D01*
X79056502Y-55113820D01*
X78997537Y-55003506D01*
X78918185Y-54906815D01*
X78821494Y-54827463D01*
X78711180Y-54768498D01*
X78591482Y-54732188D01*
X78467000Y-54719928D01*
X76252750Y-54723000D01*
X76094000Y-54881750D01*
X75840000Y-54881750D01*
X75681250Y-54723000D01*
X73685000Y-54720230D01*
X73685000Y-53702000D01*
X80246928Y-53702000D01*
X80259188Y-53826482D01*
X80295498Y-53946180D01*
X80354463Y-54056494D01*
X80433815Y-54153185D01*
X80530506Y-54232537D01*
X80640820Y-54291502D01*
X80760518Y-54327812D01*
X80885000Y-54340072D01*
X81399250Y-54337000D01*
X81558000Y-54178250D01*
X81558000Y-51329000D01*
X81812000Y-51329000D01*
X81812000Y-54178250D01*
X81970750Y-54337000D01*
X82485000Y-54340072D01*
X82609482Y-54327812D01*
X82729180Y-54291502D01*
X82839494Y-54232537D01*
X82936185Y-54153185D01*
X83015537Y-54056494D01*
X83074502Y-53946180D01*
X83110812Y-53826482D01*
X83123072Y-53702000D01*
X83120000Y-51487750D01*
X82961250Y-51329000D01*
X81812000Y-51329000D01*
X81558000Y-51329000D01*
X80408750Y-51329000D01*
X80250000Y-51487750D01*
X80246928Y-53702000D01*
X73685000Y-53702000D01*
X73685000Y-48793000D01*
X80247054Y-48793000D01*
X80250000Y-50916250D01*
%TA.AperFunction,Conductor*%
D16*
G36*
X80250000Y-50916250D02*
G01*
X80408750Y-51075000D01*
X81558000Y-51075000D01*
X81558000Y-51055000D01*
X81812000Y-51055000D01*
X81812000Y-51075000D01*
X82961250Y-51075000D01*
X83120000Y-50916250D01*
X83122946Y-48793000D01*
X85787054Y-48793000D01*
X85790000Y-50916250D01*
X85948750Y-51075000D01*
X87098000Y-51075000D01*
X87098000Y-51055000D01*
X87352000Y-51055000D01*
X87352000Y-51075000D01*
X88501250Y-51075000D01*
X88660000Y-50916250D01*
X88662946Y-48793000D01*
X126340001Y-48793000D01*
X126340000Y-68936000D01*
X88662770Y-68936000D01*
X88660000Y-66939750D01*
X88501250Y-66781000D01*
X87352000Y-66781000D01*
X87352000Y-66801000D01*
X87098000Y-66801000D01*
X87098000Y-66781000D01*
X85948750Y-66781000D01*
X85790000Y-66939750D01*
X85787230Y-68936000D01*
X83122770Y-68936000D01*
X83120000Y-66939750D01*
X82961250Y-66781000D01*
X81812000Y-66781000D01*
X81812000Y-66801000D01*
X81558000Y-66801000D01*
X81558000Y-66781000D01*
X80408750Y-66781000D01*
X80250000Y-66939750D01*
X80247230Y-68936000D01*
X73685000Y-68936000D01*
X73685000Y-64154000D01*
X80246928Y-64154000D01*
X80250000Y-66368250D01*
X80408750Y-66527000D01*
X81558000Y-66527000D01*
X81558000Y-63677750D01*
X81812000Y-63677750D01*
X81812000Y-66527000D01*
X82961250Y-66527000D01*
X83120000Y-66368250D01*
X83123072Y-64154000D01*
X83110812Y-64029518D01*
X83074502Y-63909820D01*
X83015537Y-63799506D01*
X82936185Y-63702815D01*
X82839494Y-63623463D01*
X82729180Y-63564498D01*
X82609482Y-63528188D01*
X82485000Y-63515928D01*
X81970750Y-63519000D01*
X81812000Y-63677750D01*
X81558000Y-63677750D01*
X81399250Y-63519000D01*
X80885000Y-63515928D01*
X80760518Y-63528188D01*
X80640820Y-63564498D01*
X80530506Y-63623463D01*
X80433815Y-63702815D01*
X80354463Y-63799506D01*
X80295498Y-63909820D01*
X80259188Y-64029518D01*
X80246928Y-64154000D01*
X73685000Y-64154000D01*
X73685000Y-63135770D01*
X75681250Y-63133000D01*
X75840000Y-62974250D01*
X75840000Y-61825000D01*
X76094000Y-61825000D01*
X76094000Y-62974250D01*
X76252750Y-63133000D01*
X78467000Y-63136072D01*
X78591482Y-63123812D01*
X78711180Y-63087502D01*
X78821494Y-63028537D01*
X78918185Y-62949185D01*
X78997537Y-62852494D01*
X79056502Y-62742180D01*
X79092812Y-62622482D01*
X79105072Y-62498000D01*
X79102000Y-61983750D01*
X78943250Y-61825000D01*
X76094000Y-61825000D01*
X75840000Y-61825000D01*
X75820000Y-61825000D01*
X75820000Y-61571000D01*
X75840000Y-61571000D01*
X75840000Y-60421750D01*
X76094000Y-60421750D01*
X76094000Y-61571000D01*
X78943250Y-61571000D01*
X79102000Y-61412250D01*
X79102052Y-61403482D01*
X80450337Y-62751767D01*
X80474631Y-62781369D01*
X80504233Y-62805663D01*
X80504235Y-62805665D01*
X80522435Y-62820601D01*
X80592792Y-62878342D01*
X80616831Y-62891191D01*
X80727600Y-62950399D01*
X80873877Y-62994771D01*
X80887958Y-62996158D01*
X80987886Y-63006000D01*
X80987893Y-63006000D01*
X81026000Y-63009753D01*
X81064107Y-63006000D01*
X84895571Y-63006000D01*
X85530337Y-63640767D01*
X85554631Y-63670369D01*
X85584233Y-63694663D01*
X85584235Y-63694665D01*
X85594166Y-63702815D01*
X85672792Y-63767342D01*
X85732967Y-63799506D01*
X85807601Y-63839399D01*
X85863995Y-63856506D01*
X85835498Y-63909820D01*
X85799188Y-64029518D01*
X85786928Y-64154000D01*
X85790000Y-66368250D01*
X85948750Y-66527000D01*
X87098000Y-66527000D01*
X87098000Y-66507000D01*
X87352000Y-66507000D01*
X87352000Y-66527000D01*
X88501250Y-66527000D01*
X88660000Y-66368250D01*
X88663072Y-64154000D01*
X88650812Y-64029518D01*
X88614502Y-63909820D01*
X88555537Y-63799506D01*
X88476185Y-63702815D01*
X88379494Y-63623463D01*
X88364562Y-63615482D01*
X88449113Y-63488942D01*
X88507987Y-63346809D01*
X88538000Y-63195922D01*
X88538000Y-63042078D01*
X88507987Y-62891191D01*
X88449113Y-62749058D01*
X88363642Y-62621141D01*
X88254859Y-62512358D01*
X88126942Y-62426887D01*
X87984809Y-62368013D01*
X87833922Y-62338000D01*
X87680078Y-62338000D01*
X87654941Y-62343000D01*
X86427430Y-62343000D01*
X85792667Y-61708238D01*
X85768369Y-61678631D01*
X85650208Y-61581658D01*
X85515399Y-61509601D01*
X85369122Y-61465229D01*
X85255114Y-61454000D01*
X85255107Y-61454000D01*
X85217000Y-61450247D01*
X85178893Y-61454000D01*
X81347430Y-61454000D01*
X79614882Y-59721453D01*
X79600642Y-59700141D01*
X79491859Y-59591358D01*
X79363942Y-59505887D01*
X79221809Y-59447013D01*
X79070922Y-59417000D01*
X78917078Y-59417000D01*
X78766191Y-59447013D01*
X78624058Y-59505887D01*
X78496141Y-59591358D01*
X78387358Y-59700141D01*
X78301887Y-59828058D01*
X78243013Y-59970191D01*
X78213000Y-60121078D01*
X78213000Y-60260280D01*
X76252750Y-60263000D01*
X76094000Y-60421750D01*
X75840000Y-60421750D01*
X75681250Y-60263000D01*
X73685000Y-60260230D01*
X73685000Y-57595770D01*
X75681250Y-57593000D01*
X75840000Y-57434250D01*
X75840000Y-56285000D01*
X76094000Y-56285000D01*
X76094000Y-57434250D01*
X76252750Y-57593000D01*
X78213000Y-57595720D01*
X78213000Y-57734922D01*
X78243013Y-57885809D01*
X78301887Y-58027942D01*
X78387358Y-58155859D01*
X78496141Y-58264642D01*
X78624058Y-58350113D01*
X78766191Y-58408987D01*
X78917078Y-58439000D01*
X79070922Y-58439000D01*
X79221809Y-58408987D01*
X79363942Y-58350113D01*
X79491859Y-58264642D01*
X79600642Y-58155859D01*
X79614882Y-58134547D01*
X81347430Y-56402000D01*
X85178893Y-56402000D01*
X85217000Y-56405753D01*
X85255107Y-56402000D01*
X85255114Y-56402000D01*
X85369122Y-56390771D01*
X85515399Y-56346399D01*
X85650208Y-56274342D01*
X85768369Y-56177369D01*
X85792667Y-56147762D01*
X86427430Y-55513000D01*
X87654941Y-55513000D01*
X87680078Y-55518000D01*
X87833922Y-55518000D01*
X87984809Y-55487987D01*
X88126942Y-55429113D01*
X88254859Y-55343642D01*
X88363642Y-55234859D01*
X88449113Y-55106942D01*
X88507987Y-54964809D01*
X88538000Y-54813922D01*
X88538000Y-54660078D01*
X88507987Y-54509191D01*
X88449113Y-54367058D01*
X88364562Y-54240518D01*
X88379494Y-54232537D01*
X88476185Y-54153185D01*
X88555537Y-54056494D01*
X88614502Y-53946180D01*
X88650812Y-53826482D01*
X88663072Y-53702000D01*
X88660000Y-51487750D01*
X88501250Y-51329000D01*
X87352000Y-51329000D01*
X87352000Y-51349000D01*
X87098000Y-51349000D01*
X87098000Y-51329000D01*
X85948750Y-51329000D01*
X85790000Y-51487750D01*
X85786928Y-53702000D01*
X85799188Y-53826482D01*
X85835498Y-53946180D01*
X85863995Y-53999494D01*
X85807601Y-54016601D01*
X85672792Y-54088658D01*
X85672790Y-54088659D01*
X85672791Y-54088659D01*
X85584235Y-54161335D01*
X85584233Y-54161337D01*
X85554631Y-54185631D01*
X85530337Y-54215233D01*
X84895571Y-54850000D01*
X81064107Y-54850000D01*
X81026000Y-54846247D01*
X80987893Y-54850000D01*
X80987886Y-54850000D01*
X80887958Y-54859842D01*
X80873877Y-54861229D01*
X80727600Y-54905601D01*
X80655543Y-54944117D01*
X80592792Y-54977658D01*
X80592790Y-54977659D01*
X80592791Y-54977659D01*
X80504235Y-55050335D01*
X80504233Y-55050337D01*
X80474631Y-55074631D01*
X80450337Y-55104233D01*
X79102052Y-56452518D01*
X79102000Y-56443750D01*
X78943250Y-56285000D01*
X76094000Y-56285000D01*
X75840000Y-56285000D01*
X75820000Y-56285000D01*
X75820000Y-56031000D01*
X75840000Y-56031000D01*
X75840000Y-54881750D01*
X76094000Y-54881750D01*
X76094000Y-56031000D01*
X78943250Y-56031000D01*
X79102000Y-55872250D01*
X79105072Y-55358000D01*
X79092812Y-55233518D01*
X79056502Y-55113820D01*
X78997537Y-55003506D01*
X78918185Y-54906815D01*
X78821494Y-54827463D01*
X78711180Y-54768498D01*
X78591482Y-54732188D01*
X78467000Y-54719928D01*
X76252750Y-54723000D01*
X76094000Y-54881750D01*
X75840000Y-54881750D01*
X75681250Y-54723000D01*
X73685000Y-54720230D01*
X73685000Y-53702000D01*
X80246928Y-53702000D01*
X80259188Y-53826482D01*
X80295498Y-53946180D01*
X80354463Y-54056494D01*
X80433815Y-54153185D01*
X80530506Y-54232537D01*
X80640820Y-54291502D01*
X80760518Y-54327812D01*
X80885000Y-54340072D01*
X81399250Y-54337000D01*
X81558000Y-54178250D01*
X81558000Y-51329000D01*
X81812000Y-51329000D01*
X81812000Y-54178250D01*
X81970750Y-54337000D01*
X82485000Y-54340072D01*
X82609482Y-54327812D01*
X82729180Y-54291502D01*
X82839494Y-54232537D01*
X82936185Y-54153185D01*
X83015537Y-54056494D01*
X83074502Y-53946180D01*
X83110812Y-53826482D01*
X83123072Y-53702000D01*
X83120000Y-51487750D01*
X82961250Y-51329000D01*
X81812000Y-51329000D01*
X81558000Y-51329000D01*
X80408750Y-51329000D01*
X80250000Y-51487750D01*
X80246928Y-53702000D01*
X73685000Y-53702000D01*
X73685000Y-48793000D01*
X80247054Y-48793000D01*
X80250000Y-50916250D01*
G37*
%TD.AperFunction*%
%TD*%
M02*
