M48
; DRILL file {KiCad (6.0.9)} date Sat Dec  3 14:05:30 2022
; FORMAT={-:-/ absolute / metric / decimal}
; #@! TF.CreationDate,2022-12-03T14:05:30+01:00
; #@! TF.GenerationSoftware,Kicad,Pcbnew,(6.0.9)
; #@! TF.FileFunction,Plated,1,2,PTH
FMAT,2
METRIC
; #@! TA.AperFunction,Plated,PTH,ViaDrill
T1C0.400
; #@! TA.AperFunction,Plated,PTH,ViaDrill
T2C0.500
; #@! TA.AperFunction,Plated,PTH,ViaDrill
T3C3.000
%
G90
G05
T1
X75.438Y-52.832
X75.438Y-61.468
X76.581Y-52.832
X76.581Y-61.468
X77.724Y-52.832
X77.724Y-61.468
X80.01Y-46.482
X80.01Y-47.625
X80.01Y-48.768
X80.01Y-65.532
X80.01Y-66.675
X80.01Y-67.818
X88.9Y-46.482
X88.9Y-47.625
X88.9Y-48.768
X88.9Y-65.532
X88.9Y-66.675
X88.9Y-67.818
T2
X83.185Y-58.293
X85.205Y-53.848
X85.205Y-60.452
X85.398Y-57.167
X86.563Y-57.15
X92.71Y-51.181
X92.71Y-56.134
X92.71Y-57.785
X92.71Y-62.738
X93.218Y-54.991
X93.218Y-61.595
X93.624Y-51.206
X93.624Y-57.81
T3
X76.708Y-47.752
X76.708Y-66.548
X92.202Y-47.752
X92.202Y-66.548
T0
M30
