%TF.GenerationSoftware,KiCad,Pcbnew,(6.0.9)*%
%TF.CreationDate,2022-12-03T14:05:31+01:00*%
%TF.ProjectId,rf_phase_shifter_2_45GHz,72665f70-6861-4736-955f-736869667465,1.0.0*%
%TF.SameCoordinates,Original*%
%TF.FileFunction,Drillmap*%
%TF.FilePolarity,Positive*%
%FSLAX45Y45*%
G04 Gerber Fmt 4.5, Leading zero omitted, Abs format (unit mm)*
G04 Created by KiCad (PCBNEW (6.0.9)) date 2022-12-03 14:05:31*
%MOMM*%
%LPD*%
G01*
G04 APERTURE LIST*
%ADD10C,0.050000*%
%ADD11C,0.200000*%
%ADD12C,0.040000*%
%ADD13C,0.300000*%
G04 APERTURE END LIST*
D10*
X7391400Y-6934200D02*
X9499600Y-6934200D01*
X7391400Y-4495800D02*
X7391400Y-6934200D01*
X9499600Y-4495800D02*
X7391400Y-4495800D01*
X9499600Y-6934200D02*
X9499600Y-4495800D01*
D11*
D12*
X7523800Y-5263200D02*
X7563800Y-5303200D01*
X7563800Y-5263200D02*
X7523800Y-5303200D01*
X7523800Y-6126800D02*
X7563800Y-6166800D01*
X7563800Y-6126800D02*
X7523800Y-6166800D01*
X7638100Y-5263200D02*
X7678100Y-5303200D01*
X7678100Y-5263200D02*
X7638100Y-5303200D01*
X7638100Y-6126800D02*
X7678100Y-6166800D01*
X7678100Y-6126800D02*
X7638100Y-6166800D01*
X7752400Y-5263200D02*
X7792400Y-5303200D01*
X7792400Y-5263200D02*
X7752400Y-5303200D01*
X7752400Y-6126800D02*
X7792400Y-6166800D01*
X7792400Y-6126800D02*
X7752400Y-6166800D01*
X7981000Y-4628200D02*
X8021000Y-4668200D01*
X8021000Y-4628200D02*
X7981000Y-4668200D01*
X7981000Y-4742500D02*
X8021000Y-4782500D01*
X8021000Y-4742500D02*
X7981000Y-4782500D01*
X7981000Y-4856800D02*
X8021000Y-4896800D01*
X8021000Y-4856800D02*
X7981000Y-4896800D01*
X7981000Y-6533200D02*
X8021000Y-6573200D01*
X8021000Y-6533200D02*
X7981000Y-6573200D01*
X7981000Y-6647500D02*
X8021000Y-6687500D01*
X8021000Y-6647500D02*
X7981000Y-6687500D01*
X7981000Y-6761800D02*
X8021000Y-6801800D01*
X8021000Y-6761800D02*
X7981000Y-6801800D01*
X8870000Y-4628200D02*
X8910000Y-4668200D01*
X8910000Y-4628200D02*
X8870000Y-4668200D01*
X8870000Y-4742500D02*
X8910000Y-4782500D01*
X8910000Y-4742500D02*
X8870000Y-4782500D01*
X8870000Y-4856800D02*
X8910000Y-4896800D01*
X8910000Y-4856800D02*
X8870000Y-4896800D01*
X8870000Y-6533200D02*
X8910000Y-6573200D01*
X8910000Y-6533200D02*
X8870000Y-6573200D01*
X8870000Y-6647500D02*
X8910000Y-6687500D01*
X8910000Y-6647500D02*
X8870000Y-6687500D01*
X8870000Y-6761800D02*
X8910000Y-6801800D01*
X8910000Y-6761800D02*
X8870000Y-6801800D01*
D10*
X8343500Y-5829300D02*
G75*
G03*
X8343500Y-5829300I-25000J0D01*
G01*
X8545460Y-5384800D02*
G75*
G03*
X8545460Y-5384800I-25000J0D01*
G01*
X8545460Y-6045200D02*
G75*
G03*
X8545460Y-6045200I-25000J0D01*
G01*
X8564840Y-5716714D02*
G75*
G03*
X8564840Y-5716714I-25000J0D01*
G01*
X8681320Y-5715000D02*
G75*
G03*
X8681320Y-5715000I-25000J0D01*
G01*
X9296000Y-5118100D02*
G75*
G03*
X9296000Y-5118100I-25000J0D01*
G01*
X9296000Y-5613400D02*
G75*
G03*
X9296000Y-5613400I-25000J0D01*
G01*
X9296000Y-5778500D02*
G75*
G03*
X9296000Y-5778500I-25000J0D01*
G01*
X9296000Y-6273800D02*
G75*
G03*
X9296000Y-6273800I-25000J0D01*
G01*
X9346800Y-5499100D02*
G75*
G03*
X9346800Y-5499100I-25000J0D01*
G01*
X9346800Y-6159500D02*
G75*
G03*
X9346800Y-6159500I-25000J0D01*
G01*
X9387440Y-5120640D02*
G75*
G03*
X9387440Y-5120640I-25000J0D01*
G01*
X9387440Y-5781040D02*
G75*
G03*
X9387440Y-5781040I-25000J0D01*
G01*
D13*
X7670800Y-4625200D02*
X7670800Y-4925200D01*
X7520800Y-4775200D02*
X7820800Y-4775200D01*
X7670800Y-6504800D02*
X7670800Y-6804800D01*
X7520800Y-6654800D02*
X7820800Y-6654800D01*
X9220200Y-4625200D02*
X9220200Y-4925200D01*
X9070200Y-4775200D02*
X9370200Y-4775200D01*
X9220200Y-6504800D02*
X9220200Y-6804800D01*
X9070200Y-6654800D02*
X9370200Y-6654800D01*
D11*
X7646519Y-7247176D02*
X7646519Y-7047176D01*
X7694138Y-7047176D01*
X7722709Y-7056700D01*
X7741757Y-7075748D01*
X7751281Y-7094795D01*
X7760805Y-7132890D01*
X7760805Y-7161462D01*
X7751281Y-7199557D01*
X7741757Y-7218605D01*
X7722709Y-7237652D01*
X7694138Y-7247176D01*
X7646519Y-7247176D01*
X7846519Y-7247176D02*
X7846519Y-7113843D01*
X7846519Y-7151938D02*
X7856043Y-7132890D01*
X7865567Y-7123367D01*
X7884614Y-7113843D01*
X7903662Y-7113843D01*
X7970328Y-7247176D02*
X7970328Y-7113843D01*
X7970328Y-7047176D02*
X7960805Y-7056700D01*
X7970328Y-7066224D01*
X7979852Y-7056700D01*
X7970328Y-7047176D01*
X7970328Y-7066224D01*
X8094138Y-7247176D02*
X8075090Y-7237652D01*
X8065567Y-7218605D01*
X8065567Y-7047176D01*
X8198900Y-7247176D02*
X8179852Y-7237652D01*
X8170328Y-7218605D01*
X8170328Y-7047176D01*
X8427471Y-7247176D02*
X8427471Y-7047176D01*
X8494138Y-7190033D01*
X8560805Y-7047176D01*
X8560805Y-7247176D01*
X8741757Y-7247176D02*
X8741757Y-7142414D01*
X8732233Y-7123367D01*
X8713186Y-7113843D01*
X8675090Y-7113843D01*
X8656043Y-7123367D01*
X8741757Y-7237652D02*
X8722710Y-7247176D01*
X8675090Y-7247176D01*
X8656043Y-7237652D01*
X8646519Y-7218605D01*
X8646519Y-7199557D01*
X8656043Y-7180509D01*
X8675090Y-7170986D01*
X8722710Y-7170986D01*
X8741757Y-7161462D01*
X8836995Y-7113843D02*
X8836995Y-7313843D01*
X8836995Y-7123367D02*
X8856043Y-7113843D01*
X8894138Y-7113843D01*
X8913186Y-7123367D01*
X8922710Y-7132890D01*
X8932233Y-7151938D01*
X8932233Y-7209081D01*
X8922710Y-7228128D01*
X8913186Y-7237652D01*
X8894138Y-7247176D01*
X8856043Y-7247176D01*
X8836995Y-7237652D01*
X9017948Y-7228128D02*
X9027471Y-7237652D01*
X9017948Y-7247176D01*
X9008424Y-7237652D01*
X9017948Y-7228128D01*
X9017948Y-7247176D01*
X9017948Y-7123367D02*
X9027471Y-7132890D01*
X9017948Y-7142414D01*
X9008424Y-7132890D01*
X9017948Y-7123367D01*
X9017948Y-7142414D01*
D12*
X7348900Y-7556700D02*
X7388900Y-7596700D01*
X7388900Y-7556700D02*
X7348900Y-7596700D01*
D11*
X7684614Y-7467176D02*
X7703662Y-7467176D01*
X7722709Y-7476700D01*
X7732233Y-7486224D01*
X7741757Y-7505271D01*
X7751281Y-7543367D01*
X7751281Y-7590986D01*
X7741757Y-7629081D01*
X7732233Y-7648128D01*
X7722709Y-7657652D01*
X7703662Y-7667176D01*
X7684614Y-7667176D01*
X7665567Y-7657652D01*
X7656043Y-7648128D01*
X7646519Y-7629081D01*
X7636995Y-7590986D01*
X7636995Y-7543367D01*
X7646519Y-7505271D01*
X7656043Y-7486224D01*
X7665567Y-7476700D01*
X7684614Y-7467176D01*
X7836995Y-7648128D02*
X7846519Y-7657652D01*
X7836995Y-7667176D01*
X7827471Y-7657652D01*
X7836995Y-7648128D01*
X7836995Y-7667176D01*
X8017948Y-7533843D02*
X8017948Y-7667176D01*
X7970328Y-7457652D02*
X7922709Y-7600509D01*
X8046519Y-7600509D01*
X8160805Y-7467176D02*
X8179852Y-7467176D01*
X8198900Y-7476700D01*
X8208424Y-7486224D01*
X8217948Y-7505271D01*
X8227471Y-7543367D01*
X8227471Y-7590986D01*
X8217948Y-7629081D01*
X8208424Y-7648128D01*
X8198900Y-7657652D01*
X8179852Y-7667176D01*
X8160805Y-7667176D01*
X8141757Y-7657652D01*
X8132233Y-7648128D01*
X8122709Y-7629081D01*
X8113186Y-7590986D01*
X8113186Y-7543367D01*
X8122709Y-7505271D01*
X8132233Y-7486224D01*
X8141757Y-7476700D01*
X8160805Y-7467176D01*
X8351281Y-7467176D02*
X8370328Y-7467176D01*
X8389376Y-7476700D01*
X8398900Y-7486224D01*
X8408424Y-7505271D01*
X8417948Y-7543367D01*
X8417948Y-7590986D01*
X8408424Y-7629081D01*
X8398900Y-7648128D01*
X8389376Y-7657652D01*
X8370328Y-7667176D01*
X8351281Y-7667176D01*
X8332233Y-7657652D01*
X8322709Y-7648128D01*
X8313186Y-7629081D01*
X8303662Y-7590986D01*
X8303662Y-7543367D01*
X8313186Y-7505271D01*
X8322709Y-7486224D01*
X8332233Y-7476700D01*
X8351281Y-7467176D01*
X8503662Y-7667176D02*
X8503662Y-7533843D01*
X8503662Y-7552890D02*
X8513186Y-7543367D01*
X8532233Y-7533843D01*
X8560805Y-7533843D01*
X8579852Y-7543367D01*
X8589376Y-7562414D01*
X8589376Y-7667176D01*
X8589376Y-7562414D02*
X8598900Y-7543367D01*
X8617948Y-7533843D01*
X8646519Y-7533843D01*
X8665567Y-7543367D01*
X8675090Y-7562414D01*
X8675090Y-7667176D01*
X8770329Y-7667176D02*
X8770329Y-7533843D01*
X8770329Y-7552890D02*
X8779852Y-7543367D01*
X8798900Y-7533843D01*
X8827471Y-7533843D01*
X8846519Y-7543367D01*
X8856043Y-7562414D01*
X8856043Y-7667176D01*
X8856043Y-7562414D02*
X8865567Y-7543367D01*
X8884614Y-7533843D01*
X8913186Y-7533843D01*
X8932233Y-7543367D01*
X8941757Y-7562414D01*
X8941757Y-7667176D01*
X9332233Y-7457652D02*
X9160805Y-7714795D01*
X9589376Y-7467176D02*
X9608424Y-7467176D01*
X9627471Y-7476700D01*
X9636995Y-7486224D01*
X9646519Y-7505271D01*
X9656043Y-7543367D01*
X9656043Y-7590986D01*
X9646519Y-7629081D01*
X9636995Y-7648128D01*
X9627471Y-7657652D01*
X9608424Y-7667176D01*
X9589376Y-7667176D01*
X9570329Y-7657652D01*
X9560805Y-7648128D01*
X9551281Y-7629081D01*
X9541757Y-7590986D01*
X9541757Y-7543367D01*
X9551281Y-7505271D01*
X9560805Y-7486224D01*
X9570329Y-7476700D01*
X9589376Y-7467176D01*
X9741757Y-7648128D02*
X9751281Y-7657652D01*
X9741757Y-7667176D01*
X9732233Y-7657652D01*
X9741757Y-7648128D01*
X9741757Y-7667176D01*
X9875090Y-7467176D02*
X9894138Y-7467176D01*
X9913186Y-7476700D01*
X9922710Y-7486224D01*
X9932233Y-7505271D01*
X9941757Y-7543367D01*
X9941757Y-7590986D01*
X9932233Y-7629081D01*
X9922710Y-7648128D01*
X9913186Y-7657652D01*
X9894138Y-7667176D01*
X9875090Y-7667176D01*
X9856043Y-7657652D01*
X9846519Y-7648128D01*
X9836995Y-7629081D01*
X9827471Y-7590986D01*
X9827471Y-7543367D01*
X9836995Y-7505271D01*
X9846519Y-7486224D01*
X9856043Y-7476700D01*
X9875090Y-7467176D01*
X10132233Y-7667176D02*
X10017948Y-7667176D01*
X10075090Y-7667176D02*
X10075090Y-7467176D01*
X10056043Y-7495748D01*
X10036995Y-7514795D01*
X10017948Y-7524319D01*
X10313186Y-7467176D02*
X10217948Y-7467176D01*
X10208424Y-7562414D01*
X10217948Y-7552890D01*
X10236995Y-7543367D01*
X10284614Y-7543367D01*
X10303662Y-7552890D01*
X10313186Y-7562414D01*
X10322710Y-7581462D01*
X10322710Y-7629081D01*
X10313186Y-7648128D01*
X10303662Y-7657652D01*
X10284614Y-7667176D01*
X10236995Y-7667176D01*
X10217948Y-7657652D01*
X10208424Y-7648128D01*
X10389376Y-7467176D02*
X10522710Y-7467176D01*
X10436995Y-7667176D01*
X10589376Y-7467176D02*
X10589376Y-7505271D01*
X10665567Y-7467176D02*
X10665567Y-7505271D01*
X10960805Y-7743367D02*
X10951281Y-7733843D01*
X10932233Y-7705271D01*
X10922710Y-7686224D01*
X10913186Y-7657652D01*
X10903662Y-7610033D01*
X10903662Y-7571938D01*
X10913186Y-7524319D01*
X10922710Y-7495748D01*
X10932233Y-7476700D01*
X10951281Y-7448128D01*
X10960805Y-7438605D01*
X11141757Y-7667176D02*
X11027471Y-7667176D01*
X11084614Y-7667176D02*
X11084614Y-7467176D01*
X11065567Y-7495748D01*
X11046519Y-7514795D01*
X11027471Y-7524319D01*
X11256043Y-7552890D02*
X11236995Y-7543367D01*
X11227471Y-7533843D01*
X11217948Y-7514795D01*
X11217948Y-7505271D01*
X11227471Y-7486224D01*
X11236995Y-7476700D01*
X11256043Y-7467176D01*
X11294138Y-7467176D01*
X11313186Y-7476700D01*
X11322709Y-7486224D01*
X11332233Y-7505271D01*
X11332233Y-7514795D01*
X11322709Y-7533843D01*
X11313186Y-7543367D01*
X11294138Y-7552890D01*
X11256043Y-7552890D01*
X11236995Y-7562414D01*
X11227471Y-7571938D01*
X11217948Y-7590986D01*
X11217948Y-7629081D01*
X11227471Y-7648128D01*
X11236995Y-7657652D01*
X11256043Y-7667176D01*
X11294138Y-7667176D01*
X11313186Y-7657652D01*
X11322709Y-7648128D01*
X11332233Y-7629081D01*
X11332233Y-7590986D01*
X11322709Y-7571938D01*
X11313186Y-7562414D01*
X11294138Y-7552890D01*
X11570328Y-7667176D02*
X11570328Y-7467176D01*
X11656043Y-7667176D02*
X11656043Y-7562414D01*
X11646519Y-7543367D01*
X11627471Y-7533843D01*
X11598900Y-7533843D01*
X11579852Y-7543367D01*
X11570328Y-7552890D01*
X11779852Y-7667176D02*
X11760805Y-7657652D01*
X11751281Y-7648128D01*
X11741757Y-7629081D01*
X11741757Y-7571938D01*
X11751281Y-7552890D01*
X11760805Y-7543367D01*
X11779852Y-7533843D01*
X11808424Y-7533843D01*
X11827471Y-7543367D01*
X11836995Y-7552890D01*
X11846519Y-7571938D01*
X11846519Y-7629081D01*
X11836995Y-7648128D01*
X11827471Y-7657652D01*
X11808424Y-7667176D01*
X11779852Y-7667176D01*
X11960805Y-7667176D02*
X11941757Y-7657652D01*
X11932233Y-7638605D01*
X11932233Y-7467176D01*
X12113186Y-7657652D02*
X12094138Y-7667176D01*
X12056043Y-7667176D01*
X12036995Y-7657652D01*
X12027471Y-7638605D01*
X12027471Y-7562414D01*
X12036995Y-7543367D01*
X12056043Y-7533843D01*
X12094138Y-7533843D01*
X12113186Y-7543367D01*
X12122709Y-7562414D01*
X12122709Y-7581462D01*
X12027471Y-7600509D01*
X12198900Y-7657652D02*
X12217948Y-7667176D01*
X12256043Y-7667176D01*
X12275090Y-7657652D01*
X12284614Y-7638605D01*
X12284614Y-7629081D01*
X12275090Y-7610033D01*
X12256043Y-7600509D01*
X12227471Y-7600509D01*
X12208424Y-7590986D01*
X12198900Y-7571938D01*
X12198900Y-7562414D01*
X12208424Y-7543367D01*
X12227471Y-7533843D01*
X12256043Y-7533843D01*
X12275090Y-7543367D01*
X12351281Y-7743367D02*
X12360805Y-7733843D01*
X12379852Y-7705271D01*
X12389376Y-7686224D01*
X12398900Y-7657652D01*
X12408424Y-7610033D01*
X12408424Y-7571938D01*
X12398900Y-7524319D01*
X12389376Y-7495748D01*
X12379852Y-7476700D01*
X12360805Y-7448128D01*
X12351281Y-7438605D01*
D10*
X7388900Y-7840700D02*
G75*
G03*
X7388900Y-7840700I-25000J0D01*
G01*
D11*
X7684614Y-7731176D02*
X7703662Y-7731176D01*
X7722709Y-7740700D01*
X7732233Y-7750224D01*
X7741757Y-7769271D01*
X7751281Y-7807367D01*
X7751281Y-7854986D01*
X7741757Y-7893081D01*
X7732233Y-7912128D01*
X7722709Y-7921652D01*
X7703662Y-7931176D01*
X7684614Y-7931176D01*
X7665567Y-7921652D01*
X7656043Y-7912128D01*
X7646519Y-7893081D01*
X7636995Y-7854986D01*
X7636995Y-7807367D01*
X7646519Y-7769271D01*
X7656043Y-7750224D01*
X7665567Y-7740700D01*
X7684614Y-7731176D01*
X7836995Y-7912128D02*
X7846519Y-7921652D01*
X7836995Y-7931176D01*
X7827471Y-7921652D01*
X7836995Y-7912128D01*
X7836995Y-7931176D01*
X8027471Y-7731176D02*
X7932233Y-7731176D01*
X7922709Y-7826414D01*
X7932233Y-7816890D01*
X7951281Y-7807367D01*
X7998900Y-7807367D01*
X8017948Y-7816890D01*
X8027471Y-7826414D01*
X8036995Y-7845462D01*
X8036995Y-7893081D01*
X8027471Y-7912128D01*
X8017948Y-7921652D01*
X7998900Y-7931176D01*
X7951281Y-7931176D01*
X7932233Y-7921652D01*
X7922709Y-7912128D01*
X8160805Y-7731176D02*
X8179852Y-7731176D01*
X8198900Y-7740700D01*
X8208424Y-7750224D01*
X8217948Y-7769271D01*
X8227471Y-7807367D01*
X8227471Y-7854986D01*
X8217948Y-7893081D01*
X8208424Y-7912128D01*
X8198900Y-7921652D01*
X8179852Y-7931176D01*
X8160805Y-7931176D01*
X8141757Y-7921652D01*
X8132233Y-7912128D01*
X8122709Y-7893081D01*
X8113186Y-7854986D01*
X8113186Y-7807367D01*
X8122709Y-7769271D01*
X8132233Y-7750224D01*
X8141757Y-7740700D01*
X8160805Y-7731176D01*
X8351281Y-7731176D02*
X8370328Y-7731176D01*
X8389376Y-7740700D01*
X8398900Y-7750224D01*
X8408424Y-7769271D01*
X8417948Y-7807367D01*
X8417948Y-7854986D01*
X8408424Y-7893081D01*
X8398900Y-7912128D01*
X8389376Y-7921652D01*
X8370328Y-7931176D01*
X8351281Y-7931176D01*
X8332233Y-7921652D01*
X8322709Y-7912128D01*
X8313186Y-7893081D01*
X8303662Y-7854986D01*
X8303662Y-7807367D01*
X8313186Y-7769271D01*
X8322709Y-7750224D01*
X8332233Y-7740700D01*
X8351281Y-7731176D01*
X8503662Y-7931176D02*
X8503662Y-7797843D01*
X8503662Y-7816890D02*
X8513186Y-7807367D01*
X8532233Y-7797843D01*
X8560805Y-7797843D01*
X8579852Y-7807367D01*
X8589376Y-7826414D01*
X8589376Y-7931176D01*
X8589376Y-7826414D02*
X8598900Y-7807367D01*
X8617948Y-7797843D01*
X8646519Y-7797843D01*
X8665567Y-7807367D01*
X8675090Y-7826414D01*
X8675090Y-7931176D01*
X8770329Y-7931176D02*
X8770329Y-7797843D01*
X8770329Y-7816890D02*
X8779852Y-7807367D01*
X8798900Y-7797843D01*
X8827471Y-7797843D01*
X8846519Y-7807367D01*
X8856043Y-7826414D01*
X8856043Y-7931176D01*
X8856043Y-7826414D02*
X8865567Y-7807367D01*
X8884614Y-7797843D01*
X8913186Y-7797843D01*
X8932233Y-7807367D01*
X8941757Y-7826414D01*
X8941757Y-7931176D01*
X9332233Y-7721652D02*
X9160805Y-7978795D01*
X9589376Y-7731176D02*
X9608424Y-7731176D01*
X9627471Y-7740700D01*
X9636995Y-7750224D01*
X9646519Y-7769271D01*
X9656043Y-7807367D01*
X9656043Y-7854986D01*
X9646519Y-7893081D01*
X9636995Y-7912128D01*
X9627471Y-7921652D01*
X9608424Y-7931176D01*
X9589376Y-7931176D01*
X9570329Y-7921652D01*
X9560805Y-7912128D01*
X9551281Y-7893081D01*
X9541757Y-7854986D01*
X9541757Y-7807367D01*
X9551281Y-7769271D01*
X9560805Y-7750224D01*
X9570329Y-7740700D01*
X9589376Y-7731176D01*
X9741757Y-7912128D02*
X9751281Y-7921652D01*
X9741757Y-7931176D01*
X9732233Y-7921652D01*
X9741757Y-7912128D01*
X9741757Y-7931176D01*
X9875090Y-7731176D02*
X9894138Y-7731176D01*
X9913186Y-7740700D01*
X9922710Y-7750224D01*
X9932233Y-7769271D01*
X9941757Y-7807367D01*
X9941757Y-7854986D01*
X9932233Y-7893081D01*
X9922710Y-7912128D01*
X9913186Y-7921652D01*
X9894138Y-7931176D01*
X9875090Y-7931176D01*
X9856043Y-7921652D01*
X9846519Y-7912128D01*
X9836995Y-7893081D01*
X9827471Y-7854986D01*
X9827471Y-7807367D01*
X9836995Y-7769271D01*
X9846519Y-7750224D01*
X9856043Y-7740700D01*
X9875090Y-7731176D01*
X10132233Y-7931176D02*
X10017948Y-7931176D01*
X10075090Y-7931176D02*
X10075090Y-7731176D01*
X10056043Y-7759748D01*
X10036995Y-7778795D01*
X10017948Y-7788319D01*
X10227471Y-7931176D02*
X10265567Y-7931176D01*
X10284614Y-7921652D01*
X10294138Y-7912128D01*
X10313186Y-7883557D01*
X10322710Y-7845462D01*
X10322710Y-7769271D01*
X10313186Y-7750224D01*
X10303662Y-7740700D01*
X10284614Y-7731176D01*
X10246519Y-7731176D01*
X10227471Y-7740700D01*
X10217948Y-7750224D01*
X10208424Y-7769271D01*
X10208424Y-7816890D01*
X10217948Y-7835938D01*
X10227471Y-7845462D01*
X10246519Y-7854986D01*
X10284614Y-7854986D01*
X10303662Y-7845462D01*
X10313186Y-7835938D01*
X10322710Y-7816890D01*
X10389376Y-7731176D02*
X10522710Y-7731176D01*
X10436995Y-7931176D01*
X10589376Y-7731176D02*
X10589376Y-7769271D01*
X10665567Y-7731176D02*
X10665567Y-7769271D01*
X10960805Y-8007367D02*
X10951281Y-7997843D01*
X10932233Y-7969271D01*
X10922710Y-7950224D01*
X10913186Y-7921652D01*
X10903662Y-7874033D01*
X10903662Y-7835938D01*
X10913186Y-7788319D01*
X10922710Y-7759748D01*
X10932233Y-7740700D01*
X10951281Y-7712128D01*
X10960805Y-7702605D01*
X11141757Y-7931176D02*
X11027471Y-7931176D01*
X11084614Y-7931176D02*
X11084614Y-7731176D01*
X11065567Y-7759748D01*
X11046519Y-7778795D01*
X11027471Y-7788319D01*
X11208424Y-7731176D02*
X11332233Y-7731176D01*
X11265567Y-7807367D01*
X11294138Y-7807367D01*
X11313186Y-7816890D01*
X11322709Y-7826414D01*
X11332233Y-7845462D01*
X11332233Y-7893081D01*
X11322709Y-7912128D01*
X11313186Y-7921652D01*
X11294138Y-7931176D01*
X11236995Y-7931176D01*
X11217948Y-7921652D01*
X11208424Y-7912128D01*
X11570328Y-7931176D02*
X11570328Y-7731176D01*
X11656043Y-7931176D02*
X11656043Y-7826414D01*
X11646519Y-7807367D01*
X11627471Y-7797843D01*
X11598900Y-7797843D01*
X11579852Y-7807367D01*
X11570328Y-7816890D01*
X11779852Y-7931176D02*
X11760805Y-7921652D01*
X11751281Y-7912128D01*
X11741757Y-7893081D01*
X11741757Y-7835938D01*
X11751281Y-7816890D01*
X11760805Y-7807367D01*
X11779852Y-7797843D01*
X11808424Y-7797843D01*
X11827471Y-7807367D01*
X11836995Y-7816890D01*
X11846519Y-7835938D01*
X11846519Y-7893081D01*
X11836995Y-7912128D01*
X11827471Y-7921652D01*
X11808424Y-7931176D01*
X11779852Y-7931176D01*
X11960805Y-7931176D02*
X11941757Y-7921652D01*
X11932233Y-7902605D01*
X11932233Y-7731176D01*
X12113186Y-7921652D02*
X12094138Y-7931176D01*
X12056043Y-7931176D01*
X12036995Y-7921652D01*
X12027471Y-7902605D01*
X12027471Y-7826414D01*
X12036995Y-7807367D01*
X12056043Y-7797843D01*
X12094138Y-7797843D01*
X12113186Y-7807367D01*
X12122709Y-7826414D01*
X12122709Y-7845462D01*
X12027471Y-7864509D01*
X12198900Y-7921652D02*
X12217948Y-7931176D01*
X12256043Y-7931176D01*
X12275090Y-7921652D01*
X12284614Y-7902605D01*
X12284614Y-7893081D01*
X12275090Y-7874033D01*
X12256043Y-7864509D01*
X12227471Y-7864509D01*
X12208424Y-7854986D01*
X12198900Y-7835938D01*
X12198900Y-7826414D01*
X12208424Y-7807367D01*
X12227471Y-7797843D01*
X12256043Y-7797843D01*
X12275090Y-7807367D01*
X12351281Y-8007367D02*
X12360805Y-7997843D01*
X12379852Y-7969271D01*
X12389376Y-7950224D01*
X12398900Y-7921652D01*
X12408424Y-7874033D01*
X12408424Y-7835938D01*
X12398900Y-7788319D01*
X12389376Y-7759748D01*
X12379852Y-7740700D01*
X12360805Y-7712128D01*
X12351281Y-7702605D01*
X7288900Y-8004700D02*
X7288900Y-8204700D01*
X7188900Y-8104700D02*
X7388900Y-8104700D01*
X7627471Y-7995176D02*
X7751281Y-7995176D01*
X7684614Y-8071367D01*
X7713186Y-8071367D01*
X7732233Y-8080890D01*
X7741757Y-8090414D01*
X7751281Y-8109462D01*
X7751281Y-8157081D01*
X7741757Y-8176128D01*
X7732233Y-8185652D01*
X7713186Y-8195176D01*
X7656043Y-8195176D01*
X7636995Y-8185652D01*
X7627471Y-8176128D01*
X7836995Y-8176128D02*
X7846519Y-8185652D01*
X7836995Y-8195176D01*
X7827471Y-8185652D01*
X7836995Y-8176128D01*
X7836995Y-8195176D01*
X7970328Y-7995176D02*
X7989376Y-7995176D01*
X8008424Y-8004700D01*
X8017948Y-8014224D01*
X8027471Y-8033271D01*
X8036995Y-8071367D01*
X8036995Y-8118986D01*
X8027471Y-8157081D01*
X8017948Y-8176128D01*
X8008424Y-8185652D01*
X7989376Y-8195176D01*
X7970328Y-8195176D01*
X7951281Y-8185652D01*
X7941757Y-8176128D01*
X7932233Y-8157081D01*
X7922709Y-8118986D01*
X7922709Y-8071367D01*
X7932233Y-8033271D01*
X7941757Y-8014224D01*
X7951281Y-8004700D01*
X7970328Y-7995176D01*
X8160805Y-7995176D02*
X8179852Y-7995176D01*
X8198900Y-8004700D01*
X8208424Y-8014224D01*
X8217948Y-8033271D01*
X8227471Y-8071367D01*
X8227471Y-8118986D01*
X8217948Y-8157081D01*
X8208424Y-8176128D01*
X8198900Y-8185652D01*
X8179852Y-8195176D01*
X8160805Y-8195176D01*
X8141757Y-8185652D01*
X8132233Y-8176128D01*
X8122709Y-8157081D01*
X8113186Y-8118986D01*
X8113186Y-8071367D01*
X8122709Y-8033271D01*
X8132233Y-8014224D01*
X8141757Y-8004700D01*
X8160805Y-7995176D01*
X8351281Y-7995176D02*
X8370328Y-7995176D01*
X8389376Y-8004700D01*
X8398900Y-8014224D01*
X8408424Y-8033271D01*
X8417948Y-8071367D01*
X8417948Y-8118986D01*
X8408424Y-8157081D01*
X8398900Y-8176128D01*
X8389376Y-8185652D01*
X8370328Y-8195176D01*
X8351281Y-8195176D01*
X8332233Y-8185652D01*
X8322709Y-8176128D01*
X8313186Y-8157081D01*
X8303662Y-8118986D01*
X8303662Y-8071367D01*
X8313186Y-8033271D01*
X8322709Y-8014224D01*
X8332233Y-8004700D01*
X8351281Y-7995176D01*
X8503662Y-8195176D02*
X8503662Y-8061843D01*
X8503662Y-8080890D02*
X8513186Y-8071367D01*
X8532233Y-8061843D01*
X8560805Y-8061843D01*
X8579852Y-8071367D01*
X8589376Y-8090414D01*
X8589376Y-8195176D01*
X8589376Y-8090414D02*
X8598900Y-8071367D01*
X8617948Y-8061843D01*
X8646519Y-8061843D01*
X8665567Y-8071367D01*
X8675090Y-8090414D01*
X8675090Y-8195176D01*
X8770329Y-8195176D02*
X8770329Y-8061843D01*
X8770329Y-8080890D02*
X8779852Y-8071367D01*
X8798900Y-8061843D01*
X8827471Y-8061843D01*
X8846519Y-8071367D01*
X8856043Y-8090414D01*
X8856043Y-8195176D01*
X8856043Y-8090414D02*
X8865567Y-8071367D01*
X8884614Y-8061843D01*
X8913186Y-8061843D01*
X8932233Y-8071367D01*
X8941757Y-8090414D01*
X8941757Y-8195176D01*
X9332233Y-7985652D02*
X9160805Y-8242795D01*
X9589376Y-7995176D02*
X9608424Y-7995176D01*
X9627471Y-8004700D01*
X9636995Y-8014224D01*
X9646519Y-8033271D01*
X9656043Y-8071367D01*
X9656043Y-8118986D01*
X9646519Y-8157081D01*
X9636995Y-8176128D01*
X9627471Y-8185652D01*
X9608424Y-8195176D01*
X9589376Y-8195176D01*
X9570329Y-8185652D01*
X9560805Y-8176128D01*
X9551281Y-8157081D01*
X9541757Y-8118986D01*
X9541757Y-8071367D01*
X9551281Y-8033271D01*
X9560805Y-8014224D01*
X9570329Y-8004700D01*
X9589376Y-7995176D01*
X9741757Y-8176128D02*
X9751281Y-8185652D01*
X9741757Y-8195176D01*
X9732233Y-8185652D01*
X9741757Y-8176128D01*
X9741757Y-8195176D01*
X9941757Y-8195176D02*
X9827471Y-8195176D01*
X9884614Y-8195176D02*
X9884614Y-7995176D01*
X9865567Y-8023748D01*
X9846519Y-8042795D01*
X9827471Y-8052319D01*
X10132233Y-8195176D02*
X10017948Y-8195176D01*
X10075090Y-8195176D02*
X10075090Y-7995176D01*
X10056043Y-8023748D01*
X10036995Y-8042795D01*
X10017948Y-8052319D01*
X10246519Y-8080890D02*
X10227471Y-8071367D01*
X10217948Y-8061843D01*
X10208424Y-8042795D01*
X10208424Y-8033271D01*
X10217948Y-8014224D01*
X10227471Y-8004700D01*
X10246519Y-7995176D01*
X10284614Y-7995176D01*
X10303662Y-8004700D01*
X10313186Y-8014224D01*
X10322710Y-8033271D01*
X10322710Y-8042795D01*
X10313186Y-8061843D01*
X10303662Y-8071367D01*
X10284614Y-8080890D01*
X10246519Y-8080890D01*
X10227471Y-8090414D01*
X10217948Y-8099938D01*
X10208424Y-8118986D01*
X10208424Y-8157081D01*
X10217948Y-8176128D01*
X10227471Y-8185652D01*
X10246519Y-8195176D01*
X10284614Y-8195176D01*
X10303662Y-8185652D01*
X10313186Y-8176128D01*
X10322710Y-8157081D01*
X10322710Y-8118986D01*
X10313186Y-8099938D01*
X10303662Y-8090414D01*
X10284614Y-8080890D01*
X10513186Y-8195176D02*
X10398900Y-8195176D01*
X10456043Y-8195176D02*
X10456043Y-7995176D01*
X10436995Y-8023748D01*
X10417948Y-8042795D01*
X10398900Y-8052319D01*
X10589376Y-7995176D02*
X10589376Y-8033271D01*
X10665567Y-7995176D02*
X10665567Y-8033271D01*
X10960805Y-8271367D02*
X10951281Y-8261843D01*
X10932233Y-8233271D01*
X10922710Y-8214224D01*
X10913186Y-8185652D01*
X10903662Y-8138033D01*
X10903662Y-8099938D01*
X10913186Y-8052319D01*
X10922710Y-8023748D01*
X10932233Y-8004700D01*
X10951281Y-7976128D01*
X10960805Y-7966605D01*
X11122710Y-8061843D02*
X11122710Y-8195176D01*
X11075090Y-7985652D02*
X11027471Y-8128509D01*
X11151281Y-8128509D01*
X11379852Y-8195176D02*
X11379852Y-7995176D01*
X11465567Y-8195176D02*
X11465567Y-8090414D01*
X11456043Y-8071367D01*
X11436995Y-8061843D01*
X11408424Y-8061843D01*
X11389376Y-8071367D01*
X11379852Y-8080890D01*
X11589376Y-8195176D02*
X11570328Y-8185652D01*
X11560805Y-8176128D01*
X11551281Y-8157081D01*
X11551281Y-8099938D01*
X11560805Y-8080890D01*
X11570328Y-8071367D01*
X11589376Y-8061843D01*
X11617948Y-8061843D01*
X11636995Y-8071367D01*
X11646519Y-8080890D01*
X11656043Y-8099938D01*
X11656043Y-8157081D01*
X11646519Y-8176128D01*
X11636995Y-8185652D01*
X11617948Y-8195176D01*
X11589376Y-8195176D01*
X11770328Y-8195176D02*
X11751281Y-8185652D01*
X11741757Y-8166605D01*
X11741757Y-7995176D01*
X11922709Y-8185652D02*
X11903662Y-8195176D01*
X11865567Y-8195176D01*
X11846519Y-8185652D01*
X11836995Y-8166605D01*
X11836995Y-8090414D01*
X11846519Y-8071367D01*
X11865567Y-8061843D01*
X11903662Y-8061843D01*
X11922709Y-8071367D01*
X11932233Y-8090414D01*
X11932233Y-8109462D01*
X11836995Y-8128509D01*
X12008424Y-8185652D02*
X12027471Y-8195176D01*
X12065567Y-8195176D01*
X12084614Y-8185652D01*
X12094138Y-8166605D01*
X12094138Y-8157081D01*
X12084614Y-8138033D01*
X12065567Y-8128509D01*
X12036995Y-8128509D01*
X12017948Y-8118986D01*
X12008424Y-8099938D01*
X12008424Y-8090414D01*
X12017948Y-8071367D01*
X12036995Y-8061843D01*
X12065567Y-8061843D01*
X12084614Y-8071367D01*
X12160805Y-8271367D02*
X12170328Y-8261843D01*
X12189376Y-8233271D01*
X12198900Y-8214224D01*
X12208424Y-8185652D01*
X12217948Y-8138033D01*
X12217948Y-8099938D01*
X12208424Y-8052319D01*
X12198900Y-8023748D01*
X12189376Y-8004700D01*
X12170328Y-7976128D01*
X12160805Y-7966605D01*
M02*
