G04 #@! TF.GenerationSoftware,KiCad,Pcbnew,(6.0.9)*
G04 #@! TF.CreationDate,2022-12-03T14:04:53+01:00*
G04 #@! TF.ProjectId,rf_phase_shifter_2_45GHz,72665f70-6861-4736-955f-736869667465,1.0.0*
G04 #@! TF.SameCoordinates,Original*
G04 #@! TF.FileFunction,Copper,L2,Bot*
G04 #@! TF.FilePolarity,Positive*
%FSLAX46Y46*%
G04 Gerber Fmt 4.6, Leading zero omitted, Abs format (unit mm)*
G04 Created by KiCad (PCBNEW (6.0.9)) date 2022-12-03 14:04:53*
%MOMM*%
%LPD*%
G01*
G04 APERTURE LIST*
G04 #@! TA.AperFunction,SMDPad,CuDef*
%ADD10R,1.600000X5.000000*%
G04 #@! TD*
G04 #@! TA.AperFunction,SMDPad,CuDef*
%ADD11R,5.000000X1.600000*%
G04 #@! TD*
G04 #@! TA.AperFunction,ViaPad*
%ADD12C,0.800000*%
G04 #@! TD*
G04 #@! TA.AperFunction,ViaPad*
%ADD13C,5.000000*%
G04 #@! TD*
G04 #@! TA.AperFunction,ViaPad*
%ADD14C,0.900000*%
G04 #@! TD*
G04 #@! TA.AperFunction,Conductor*
%ADD15C,0.650000*%
G04 #@! TD*
G04 APERTURE END LIST*
D10*
X81685000Y-66654000D03*
X87225000Y-66654000D03*
X87225000Y-47646000D03*
X81685000Y-47646000D03*
D11*
X76602000Y-59920000D03*
X76602000Y-54380000D03*
D12*
X80010000Y-67818000D03*
X80010000Y-48768000D03*
D13*
X92202000Y-47752000D03*
X76708000Y-66548000D03*
X92202000Y-66548000D03*
D12*
X77724000Y-52832000D03*
X75438000Y-61468000D03*
X76581000Y-61468000D03*
X76581000Y-52832000D03*
X77724000Y-61468000D03*
X75438000Y-52832000D03*
D14*
X92710000Y-51181000D03*
D12*
X80010000Y-47625000D03*
D14*
X85204600Y-53848000D03*
X92710000Y-62738000D03*
X86563200Y-57150000D03*
D12*
X88900000Y-48768000D03*
X80010000Y-65532000D03*
D14*
X93624400Y-57810400D03*
D13*
X76708000Y-47752000D03*
D12*
X88900000Y-65532000D03*
X88900000Y-67818000D03*
D14*
X93624400Y-51206400D03*
X92710000Y-57785000D03*
D12*
X80010000Y-66675000D03*
X88900000Y-46482000D03*
X88900000Y-47625000D03*
D14*
X85204600Y-60452000D03*
D12*
X88900000Y-66675000D03*
X80010000Y-46482000D03*
D14*
X85398403Y-57167137D03*
X92710000Y-56134000D03*
X93218000Y-54991000D03*
X83185000Y-58293000D03*
X93218000Y-61595000D03*
D15*
X83185000Y-58293000D02*
X90170000Y-58293000D01*
X93218000Y-61595000D02*
X91567000Y-61595000D01*
X90170000Y-58293000D02*
X90424000Y-58039000D01*
X91567000Y-54991000D02*
X90424000Y-56134000D01*
X91567000Y-61595000D02*
X90424000Y-60452000D01*
X90424000Y-56134000D02*
X90424000Y-58039000D01*
X90424000Y-60452000D02*
X90424000Y-58547000D01*
X93218000Y-54991000D02*
X91567000Y-54991000D01*
X90170000Y-58293000D02*
X90424000Y-58547000D01*
X90424000Y-58039000D02*
X90424000Y-58547000D01*
G04 #@! TA.AperFunction,Conductor*
G36*
X80319121Y-45232502D02*
G01*
X80365614Y-45286158D01*
X80377000Y-45338500D01*
X80377000Y-47373885D01*
X80381475Y-47389124D01*
X80382865Y-47390329D01*
X80390548Y-47392000D01*
X82974884Y-47392000D01*
X82990123Y-47387525D01*
X82991328Y-47386135D01*
X82992999Y-47378452D01*
X82992999Y-45338500D01*
X83013001Y-45270379D01*
X83066657Y-45223886D01*
X83118999Y-45212500D01*
X85791000Y-45212500D01*
X85859121Y-45232502D01*
X85905614Y-45286158D01*
X85917000Y-45338500D01*
X85917000Y-47373885D01*
X85921475Y-47389124D01*
X85922865Y-47390329D01*
X85930548Y-47392000D01*
X88514884Y-47392000D01*
X88530123Y-47387525D01*
X88531328Y-47386135D01*
X88532999Y-47378452D01*
X88532999Y-45338500D01*
X88553001Y-45270379D01*
X88606657Y-45223886D01*
X88658999Y-45212500D01*
X94615500Y-45212500D01*
X94683621Y-45232502D01*
X94730114Y-45286158D01*
X94741500Y-45338500D01*
X94741500Y-68961500D01*
X94721498Y-69029621D01*
X94667842Y-69076114D01*
X94615500Y-69087500D01*
X88659000Y-69087500D01*
X88590879Y-69067498D01*
X88544386Y-69013842D01*
X88533000Y-68961500D01*
X88533000Y-66926115D01*
X88528525Y-66910876D01*
X88527135Y-66909671D01*
X88519452Y-66908000D01*
X85935116Y-66908000D01*
X85919877Y-66912475D01*
X85918672Y-66913865D01*
X85917001Y-66921548D01*
X85917001Y-68961500D01*
X85896999Y-69029621D01*
X85843343Y-69076114D01*
X85791001Y-69087500D01*
X83119000Y-69087500D01*
X83050879Y-69067498D01*
X83004386Y-69013842D01*
X82993000Y-68961500D01*
X82993000Y-66926115D01*
X82988525Y-66910876D01*
X82987135Y-66909671D01*
X82979452Y-66908000D01*
X80395116Y-66908000D01*
X80379877Y-66912475D01*
X80378672Y-66913865D01*
X80377001Y-66921548D01*
X80377001Y-68961500D01*
X80356999Y-69029621D01*
X80303343Y-69076114D01*
X80251001Y-69087500D01*
X74294500Y-69087500D01*
X74226379Y-69067498D01*
X74179886Y-69013842D01*
X74168500Y-68961500D01*
X74168500Y-66381885D01*
X80377000Y-66381885D01*
X80381475Y-66397124D01*
X80382865Y-66398329D01*
X80390548Y-66400000D01*
X81412885Y-66400000D01*
X81428124Y-66395525D01*
X81429329Y-66394135D01*
X81431000Y-66386452D01*
X81431000Y-66381885D01*
X81939000Y-66381885D01*
X81943475Y-66397124D01*
X81944865Y-66398329D01*
X81952548Y-66400000D01*
X82974884Y-66400000D01*
X82990123Y-66395525D01*
X82991328Y-66394135D01*
X82992999Y-66386452D01*
X82992999Y-66381885D01*
X85917000Y-66381885D01*
X85921475Y-66397124D01*
X85922865Y-66398329D01*
X85930548Y-66400000D01*
X86952885Y-66400000D01*
X86968124Y-66395525D01*
X86969329Y-66394135D01*
X86971000Y-66386452D01*
X86971000Y-66381885D01*
X87479000Y-66381885D01*
X87483475Y-66397124D01*
X87484865Y-66398329D01*
X87492548Y-66400000D01*
X88514884Y-66400000D01*
X88530123Y-66395525D01*
X88531328Y-66394135D01*
X88532999Y-66386452D01*
X88532999Y-64109331D01*
X88532629Y-64102510D01*
X88527105Y-64051648D01*
X88523479Y-64036396D01*
X88478324Y-63915946D01*
X88469786Y-63900351D01*
X88393285Y-63798276D01*
X88380724Y-63785715D01*
X88278649Y-63709214D01*
X88263054Y-63700676D01*
X88142606Y-63655522D01*
X88127351Y-63651895D01*
X88076486Y-63646369D01*
X88069672Y-63646000D01*
X87497115Y-63646000D01*
X87481876Y-63650475D01*
X87480671Y-63651865D01*
X87479000Y-63659548D01*
X87479000Y-66381885D01*
X86971000Y-66381885D01*
X86971000Y-63664116D01*
X86966525Y-63648877D01*
X86965135Y-63647672D01*
X86957452Y-63646001D01*
X86380331Y-63646001D01*
X86373510Y-63646371D01*
X86322648Y-63651895D01*
X86307396Y-63655521D01*
X86186946Y-63700676D01*
X86171351Y-63709214D01*
X86069276Y-63785715D01*
X86056715Y-63798276D01*
X85980214Y-63900351D01*
X85971676Y-63915946D01*
X85926522Y-64036394D01*
X85922895Y-64051649D01*
X85917369Y-64102514D01*
X85917000Y-64109328D01*
X85917000Y-66381885D01*
X82992999Y-66381885D01*
X82992999Y-64109331D01*
X82992629Y-64102510D01*
X82987105Y-64051648D01*
X82983479Y-64036396D01*
X82938324Y-63915946D01*
X82929786Y-63900351D01*
X82853285Y-63798276D01*
X82840724Y-63785715D01*
X82738649Y-63709214D01*
X82723054Y-63700676D01*
X82602606Y-63655522D01*
X82587351Y-63651895D01*
X82536486Y-63646369D01*
X82529672Y-63646000D01*
X81957115Y-63646000D01*
X81941876Y-63650475D01*
X81940671Y-63651865D01*
X81939000Y-63659548D01*
X81939000Y-66381885D01*
X81431000Y-66381885D01*
X81431000Y-63664116D01*
X81426525Y-63648877D01*
X81425135Y-63647672D01*
X81417452Y-63646001D01*
X80840331Y-63646001D01*
X80833510Y-63646371D01*
X80782648Y-63651895D01*
X80767396Y-63655521D01*
X80646946Y-63700676D01*
X80631351Y-63709214D01*
X80529276Y-63785715D01*
X80516715Y-63798276D01*
X80440214Y-63900351D01*
X80431676Y-63915946D01*
X80386522Y-64036394D01*
X80382895Y-64051649D01*
X80377369Y-64102514D01*
X80377000Y-64109328D01*
X80377000Y-66381885D01*
X74168500Y-66381885D01*
X74168500Y-61354000D01*
X74188502Y-61285879D01*
X74242158Y-61239386D01*
X74294500Y-61228000D01*
X76329885Y-61228000D01*
X76345124Y-61223525D01*
X76346329Y-61222135D01*
X76348000Y-61214452D01*
X76348000Y-61209884D01*
X76856000Y-61209884D01*
X76860475Y-61225123D01*
X76861865Y-61226328D01*
X76869548Y-61227999D01*
X79146669Y-61227999D01*
X79153490Y-61227629D01*
X79204352Y-61222105D01*
X79219604Y-61218479D01*
X79340054Y-61173324D01*
X79355649Y-61164786D01*
X79457724Y-61088285D01*
X79470285Y-61075724D01*
X79546786Y-60973649D01*
X79555324Y-60958054D01*
X79600478Y-60837606D01*
X79604105Y-60822351D01*
X79609631Y-60771486D01*
X79610000Y-60764672D01*
X79610000Y-60192115D01*
X79605525Y-60176876D01*
X79604135Y-60175671D01*
X79596452Y-60174000D01*
X76874115Y-60174000D01*
X76858876Y-60178475D01*
X76857671Y-60179865D01*
X76856000Y-60187548D01*
X76856000Y-61209884D01*
X76348000Y-61209884D01*
X76348000Y-59647885D01*
X76856000Y-59647885D01*
X76860475Y-59663124D01*
X76861865Y-59664329D01*
X76869548Y-59666000D01*
X79591884Y-59666000D01*
X79607123Y-59661525D01*
X79608328Y-59660135D01*
X79609999Y-59652452D01*
X79609999Y-59075331D01*
X79609629Y-59068510D01*
X79604105Y-59017648D01*
X79600479Y-59002396D01*
X79555324Y-58881946D01*
X79546786Y-58866351D01*
X79470285Y-58764276D01*
X79457724Y-58751715D01*
X79355649Y-58675214D01*
X79340054Y-58666676D01*
X79219606Y-58621522D01*
X79204351Y-58617895D01*
X79153486Y-58612369D01*
X79146672Y-58612000D01*
X76874115Y-58612000D01*
X76858876Y-58616475D01*
X76857671Y-58617865D01*
X76856000Y-58625548D01*
X76856000Y-59647885D01*
X76348000Y-59647885D01*
X76348000Y-58630116D01*
X76343525Y-58614877D01*
X76342135Y-58613672D01*
X76334452Y-58612001D01*
X74294500Y-58612001D01*
X74226379Y-58591999D01*
X74179886Y-58538343D01*
X74168500Y-58486001D01*
X74168500Y-58285568D01*
X82475365Y-58285568D01*
X82494076Y-58455055D01*
X82552676Y-58615185D01*
X82556912Y-58621488D01*
X82556913Y-58621491D01*
X82643540Y-58750407D01*
X82643543Y-58750410D01*
X82647780Y-58756716D01*
X82773899Y-58871475D01*
X82923752Y-58952838D01*
X83088686Y-58996108D01*
X83175596Y-58997473D01*
X83251582Y-58998667D01*
X83251585Y-58998667D01*
X83259181Y-58998786D01*
X83266586Y-58997090D01*
X83266587Y-58997090D01*
X83327472Y-58983145D01*
X83425393Y-58960719D01*
X83574086Y-58885935D01*
X83630699Y-58872500D01*
X89718500Y-58872500D01*
X89786621Y-58892502D01*
X89833114Y-58946158D01*
X89844500Y-58998500D01*
X89844500Y-60405762D01*
X89843422Y-60422208D01*
X89839500Y-60452000D01*
X89844500Y-60489980D01*
X89859416Y-60603280D01*
X89917808Y-60744250D01*
X90010696Y-60865304D01*
X90017242Y-60870327D01*
X90017245Y-60870330D01*
X90034543Y-60883603D01*
X90046935Y-60894471D01*
X91124532Y-61972069D01*
X91135399Y-61984459D01*
X91153696Y-62008304D01*
X91184086Y-62031623D01*
X91184087Y-62031624D01*
X91219394Y-62058716D01*
X91274750Y-62101192D01*
X91415720Y-62159584D01*
X91521235Y-62173475D01*
X91567000Y-62179500D01*
X91575188Y-62178422D01*
X91575189Y-62178422D01*
X91596792Y-62175578D01*
X91613238Y-62174500D01*
X92776787Y-62174500D01*
X92836909Y-62189769D01*
X92956752Y-62254838D01*
X93121686Y-62298108D01*
X93208596Y-62299473D01*
X93284582Y-62300667D01*
X93284585Y-62300667D01*
X93292181Y-62300786D01*
X93299586Y-62299090D01*
X93299587Y-62299090D01*
X93360472Y-62285145D01*
X93458393Y-62262719D01*
X93534560Y-62224411D01*
X93603945Y-62189515D01*
X93603948Y-62189513D01*
X93610728Y-62186103D01*
X93740389Y-62075361D01*
X93839892Y-61936888D01*
X93903492Y-61778677D01*
X93927518Y-61609862D01*
X93927674Y-61595000D01*
X93907189Y-61425719D01*
X93846916Y-61266211D01*
X93820654Y-61228000D01*
X93754636Y-61131943D01*
X93754635Y-61131942D01*
X93750334Y-61125684D01*
X93744663Y-61120631D01*
X93628693Y-61017305D01*
X93628690Y-61017303D01*
X93623021Y-61012252D01*
X93602650Y-61001466D01*
X93479037Y-60936016D01*
X93479035Y-60936015D01*
X93472324Y-60932462D01*
X93464959Y-60930612D01*
X93314317Y-60892773D01*
X93314313Y-60892773D01*
X93306946Y-60890922D01*
X93299347Y-60890882D01*
X93299345Y-60890882D01*
X93228429Y-60890511D01*
X93136432Y-60890029D01*
X93129052Y-60891801D01*
X93129050Y-60891801D01*
X92978006Y-60928063D01*
X92978002Y-60928064D01*
X92970627Y-60929835D01*
X92843408Y-60995498D01*
X92831845Y-61001466D01*
X92774055Y-61015500D01*
X91859228Y-61015500D01*
X91791107Y-60995498D01*
X91770133Y-60978596D01*
X91040405Y-60248869D01*
X91006380Y-60186556D01*
X91003500Y-60159773D01*
X91003500Y-58593238D01*
X91004578Y-58576792D01*
X91007422Y-58555189D01*
X91007422Y-58555188D01*
X91008500Y-58547000D01*
X91004578Y-58517208D01*
X91003500Y-58500762D01*
X91003500Y-58085238D01*
X91004578Y-58068792D01*
X91007422Y-58047189D01*
X91007422Y-58047188D01*
X91008500Y-58039000D01*
X91004578Y-58009208D01*
X91003500Y-57992762D01*
X91003500Y-56426227D01*
X91023502Y-56358106D01*
X91040405Y-56337131D01*
X91770133Y-55607404D01*
X91832445Y-55573379D01*
X91859228Y-55570500D01*
X92776787Y-55570500D01*
X92836909Y-55585769D01*
X92956752Y-55650838D01*
X93121686Y-55694108D01*
X93208596Y-55695473D01*
X93284582Y-55696667D01*
X93284585Y-55696667D01*
X93292181Y-55696786D01*
X93299586Y-55695090D01*
X93299587Y-55695090D01*
X93409643Y-55669884D01*
X93458393Y-55658719D01*
X93534561Y-55620411D01*
X93603945Y-55585515D01*
X93603948Y-55585513D01*
X93610728Y-55582103D01*
X93740389Y-55471361D01*
X93839892Y-55332888D01*
X93903492Y-55174677D01*
X93927518Y-55005862D01*
X93927674Y-54991000D01*
X93907189Y-54821719D01*
X93846916Y-54662211D01*
X93829504Y-54636876D01*
X93754636Y-54527943D01*
X93754635Y-54527942D01*
X93750334Y-54521684D01*
X93714588Y-54489835D01*
X93628693Y-54413305D01*
X93628690Y-54413303D01*
X93623021Y-54408252D01*
X93602650Y-54397466D01*
X93479037Y-54332016D01*
X93479035Y-54332015D01*
X93472324Y-54328462D01*
X93464959Y-54326612D01*
X93314317Y-54288773D01*
X93314313Y-54288773D01*
X93306946Y-54286922D01*
X93299347Y-54286882D01*
X93299345Y-54286882D01*
X93228429Y-54286511D01*
X93136432Y-54286029D01*
X93129052Y-54287801D01*
X93129050Y-54287801D01*
X92978006Y-54324063D01*
X92978002Y-54324064D01*
X92970627Y-54325835D01*
X92963882Y-54329316D01*
X92963883Y-54329316D01*
X92831845Y-54397466D01*
X92774055Y-54411500D01*
X91613238Y-54411500D01*
X91596792Y-54410422D01*
X91575189Y-54407578D01*
X91575188Y-54407578D01*
X91567000Y-54406500D01*
X91529020Y-54411500D01*
X91415720Y-54426416D01*
X91274750Y-54484808D01*
X91153696Y-54577696D01*
X91148674Y-54584241D01*
X91135400Y-54601540D01*
X91124532Y-54613931D01*
X90046935Y-55691529D01*
X90034543Y-55702397D01*
X90017245Y-55715670D01*
X90017242Y-55715673D01*
X90010696Y-55720696D01*
X89917808Y-55841750D01*
X89859416Y-55982720D01*
X89839500Y-56134000D01*
X89840578Y-56142188D01*
X89840578Y-56142189D01*
X89843422Y-56163792D01*
X89844500Y-56180238D01*
X89844500Y-57587500D01*
X89824498Y-57655621D01*
X89770842Y-57702114D01*
X89718500Y-57713500D01*
X83627453Y-57713500D01*
X83568494Y-57698854D01*
X83446037Y-57634016D01*
X83446035Y-57634015D01*
X83439324Y-57630462D01*
X83431959Y-57628612D01*
X83281317Y-57590773D01*
X83281313Y-57590773D01*
X83273946Y-57588922D01*
X83266347Y-57588882D01*
X83266345Y-57588882D01*
X83195429Y-57588511D01*
X83103432Y-57588029D01*
X83096052Y-57589801D01*
X83096050Y-57589801D01*
X82945006Y-57626063D01*
X82945002Y-57626064D01*
X82937627Y-57627835D01*
X82786104Y-57706042D01*
X82780382Y-57711034D01*
X82780380Y-57711035D01*
X82663336Y-57813139D01*
X82657609Y-57818135D01*
X82559562Y-57957643D01*
X82497622Y-58116511D01*
X82475365Y-58285568D01*
X74168500Y-58285568D01*
X74168500Y-55814000D01*
X74188502Y-55745879D01*
X74242158Y-55699386D01*
X74294500Y-55688000D01*
X76329885Y-55688000D01*
X76345124Y-55683525D01*
X76346329Y-55682135D01*
X76348000Y-55674452D01*
X76348000Y-55669884D01*
X76856000Y-55669884D01*
X76860475Y-55685123D01*
X76861865Y-55686328D01*
X76869548Y-55687999D01*
X79146669Y-55687999D01*
X79153490Y-55687629D01*
X79204352Y-55682105D01*
X79219604Y-55678479D01*
X79340054Y-55633324D01*
X79355649Y-55624786D01*
X79457724Y-55548285D01*
X79470285Y-55535724D01*
X79546786Y-55433649D01*
X79555324Y-55418054D01*
X79600478Y-55297606D01*
X79604105Y-55282351D01*
X79609631Y-55231486D01*
X79610000Y-55224672D01*
X79610000Y-54652115D01*
X79605525Y-54636876D01*
X79604135Y-54635671D01*
X79596452Y-54634000D01*
X76874115Y-54634000D01*
X76858876Y-54638475D01*
X76857671Y-54639865D01*
X76856000Y-54647548D01*
X76856000Y-55669884D01*
X76348000Y-55669884D01*
X76348000Y-54107885D01*
X76856000Y-54107885D01*
X76860475Y-54123124D01*
X76861865Y-54124329D01*
X76869548Y-54126000D01*
X79591884Y-54126000D01*
X79607123Y-54121525D01*
X79608328Y-54120135D01*
X79609999Y-54112452D01*
X79609999Y-53535331D01*
X79609629Y-53528510D01*
X79604105Y-53477648D01*
X79600479Y-53462396D01*
X79555324Y-53341946D01*
X79546786Y-53326351D01*
X79470285Y-53224276D01*
X79457724Y-53211715D01*
X79355649Y-53135214D01*
X79340054Y-53126676D01*
X79219606Y-53081522D01*
X79204351Y-53077895D01*
X79153486Y-53072369D01*
X79146672Y-53072000D01*
X76874115Y-53072000D01*
X76858876Y-53076475D01*
X76857671Y-53077865D01*
X76856000Y-53085548D01*
X76856000Y-54107885D01*
X76348000Y-54107885D01*
X76348000Y-53090116D01*
X76343525Y-53074877D01*
X76342135Y-53073672D01*
X76334452Y-53072001D01*
X74294500Y-53072001D01*
X74226379Y-53051999D01*
X74179886Y-52998343D01*
X74168500Y-52946001D01*
X74168500Y-50190669D01*
X80377001Y-50190669D01*
X80377371Y-50197490D01*
X80382895Y-50248352D01*
X80386521Y-50263604D01*
X80431676Y-50384054D01*
X80440214Y-50399649D01*
X80516715Y-50501724D01*
X80529276Y-50514285D01*
X80631351Y-50590786D01*
X80646946Y-50599324D01*
X80767394Y-50644478D01*
X80782649Y-50648105D01*
X80833514Y-50653631D01*
X80840328Y-50654000D01*
X81412885Y-50654000D01*
X81428124Y-50649525D01*
X81429329Y-50648135D01*
X81431000Y-50640452D01*
X81431000Y-50635884D01*
X81939000Y-50635884D01*
X81943475Y-50651123D01*
X81944865Y-50652328D01*
X81952548Y-50653999D01*
X82529669Y-50653999D01*
X82536490Y-50653629D01*
X82587352Y-50648105D01*
X82602604Y-50644479D01*
X82723054Y-50599324D01*
X82738649Y-50590786D01*
X82840724Y-50514285D01*
X82853285Y-50501724D01*
X82929786Y-50399649D01*
X82938324Y-50384054D01*
X82983478Y-50263606D01*
X82987105Y-50248351D01*
X82992631Y-50197486D01*
X82993000Y-50190672D01*
X82993000Y-50190669D01*
X85917001Y-50190669D01*
X85917371Y-50197490D01*
X85922895Y-50248352D01*
X85926521Y-50263604D01*
X85971676Y-50384054D01*
X85980214Y-50399649D01*
X86056715Y-50501724D01*
X86069276Y-50514285D01*
X86171351Y-50590786D01*
X86186946Y-50599324D01*
X86307394Y-50644478D01*
X86322649Y-50648105D01*
X86373514Y-50653631D01*
X86380328Y-50654000D01*
X86952885Y-50654000D01*
X86968124Y-50649525D01*
X86969329Y-50648135D01*
X86971000Y-50640452D01*
X86971000Y-50635884D01*
X87479000Y-50635884D01*
X87483475Y-50651123D01*
X87484865Y-50652328D01*
X87492548Y-50653999D01*
X88069669Y-50653999D01*
X88076490Y-50653629D01*
X88127352Y-50648105D01*
X88142604Y-50644479D01*
X88263054Y-50599324D01*
X88278649Y-50590786D01*
X88380724Y-50514285D01*
X88393285Y-50501724D01*
X88469786Y-50399649D01*
X88478324Y-50384054D01*
X88523478Y-50263606D01*
X88527105Y-50248351D01*
X88532631Y-50197486D01*
X88533000Y-50190672D01*
X88533000Y-47918115D01*
X88528525Y-47902876D01*
X88527135Y-47901671D01*
X88519452Y-47900000D01*
X87497115Y-47900000D01*
X87481876Y-47904475D01*
X87480671Y-47905865D01*
X87479000Y-47913548D01*
X87479000Y-50635884D01*
X86971000Y-50635884D01*
X86971000Y-47918115D01*
X86966525Y-47902876D01*
X86965135Y-47901671D01*
X86957452Y-47900000D01*
X85935116Y-47900000D01*
X85919877Y-47904475D01*
X85918672Y-47905865D01*
X85917001Y-47913548D01*
X85917001Y-50190669D01*
X82993000Y-50190669D01*
X82993000Y-47918115D01*
X82988525Y-47902876D01*
X82987135Y-47901671D01*
X82979452Y-47900000D01*
X81957115Y-47900000D01*
X81941876Y-47904475D01*
X81940671Y-47905865D01*
X81939000Y-47913548D01*
X81939000Y-50635884D01*
X81431000Y-50635884D01*
X81431000Y-47918115D01*
X81426525Y-47902876D01*
X81425135Y-47901671D01*
X81417452Y-47900000D01*
X80395116Y-47900000D01*
X80379877Y-47904475D01*
X80378672Y-47905865D01*
X80377001Y-47913548D01*
X80377001Y-50190669D01*
X74168500Y-50190669D01*
X74168500Y-45338500D01*
X74188502Y-45270379D01*
X74242158Y-45223886D01*
X74294500Y-45212500D01*
X80251000Y-45212500D01*
X80319121Y-45232502D01*
G37*
G04 #@! TD.AperFunction*
M02*
