G04 #@! TF.GenerationSoftware,KiCad,Pcbnew,5.1.10-88a1d61d58~88~ubuntu18.04.1*
G04 #@! TF.CreationDate,2021-11-13T13:18:12+01:00*
G04 #@! TF.ProjectId,rf_phase_shifter_2_45GHz,72665f70-6861-4736-955f-736869667465,1.0.0*
G04 #@! TF.SameCoordinates,Original*
G04 #@! TF.FileFunction,Legend,Top*
G04 #@! TF.FilePolarity,Positive*
%FSLAX46Y46*%
G04 Gerber Fmt 4.6, Leading zero omitted, Abs format (unit mm)*
G04 Created by KiCad (PCBNEW 5.1.10-88a1d61d58~88~ubuntu18.04.1) date 2021-11-13 13:18:12*
%MOMM*%
%LPD*%
G01*
G04 APERTURE LIST*
%ADD10C,0.150000*%
%ADD11C,0.120000*%
%ADD12C,0.100000*%
%ADD13C,0.250000*%
%ADD14R,0.600000X0.700000*%
%ADD15R,0.330000X0.350000*%
%ADD16R,5.000000X1.200000*%
%ADD17R,5.000000X1.600000*%
%ADD18R,1.200000X5.000000*%
%ADD19R,1.600000X5.000000*%
%ADD20R,0.700000X0.600000*%
G04 APERTURE END LIST*
D10*
X89949976Y-65064666D02*
X90426166Y-65064666D01*
X89854738Y-65350380D02*
X90188071Y-64350380D01*
X90521404Y-65350380D01*
X90854738Y-64683714D02*
X90854738Y-65350380D01*
X90854738Y-64778952D02*
X90902357Y-64731333D01*
X90997595Y-64683714D01*
X91140452Y-64683714D01*
X91235690Y-64731333D01*
X91283309Y-64826571D01*
X91283309Y-65350380D01*
X92188071Y-65350380D02*
X92188071Y-64826571D01*
X92140452Y-64731333D01*
X92045214Y-64683714D01*
X91854738Y-64683714D01*
X91759500Y-64731333D01*
X92188071Y-65302761D02*
X92092833Y-65350380D01*
X91854738Y-65350380D01*
X91759500Y-65302761D01*
X91711880Y-65207523D01*
X91711880Y-65112285D01*
X91759500Y-65017047D01*
X91854738Y-64969428D01*
X92092833Y-64969428D01*
X92188071Y-64921809D01*
X92807119Y-65350380D02*
X92711880Y-65302761D01*
X92664261Y-65207523D01*
X92664261Y-64350380D01*
X93330928Y-65350380D02*
X93235690Y-65302761D01*
X93188071Y-65255142D01*
X93140452Y-65159904D01*
X93140452Y-64874190D01*
X93188071Y-64778952D01*
X93235690Y-64731333D01*
X93330928Y-64683714D01*
X93473785Y-64683714D01*
X93569023Y-64731333D01*
X93616642Y-64778952D01*
X93664261Y-64874190D01*
X93664261Y-65159904D01*
X93616642Y-65255142D01*
X93569023Y-65302761D01*
X93473785Y-65350380D01*
X93330928Y-65350380D01*
X94521404Y-64683714D02*
X94521404Y-65493238D01*
X94473785Y-65588476D01*
X94426166Y-65636095D01*
X94330928Y-65683714D01*
X94188071Y-65683714D01*
X94092833Y-65636095D01*
X94521404Y-65302761D02*
X94426166Y-65350380D01*
X94235690Y-65350380D01*
X94140452Y-65302761D01*
X94092833Y-65255142D01*
X94045214Y-65159904D01*
X94045214Y-64874190D01*
X94092833Y-64778952D01*
X94140452Y-64731333D01*
X94235690Y-64683714D01*
X94426166Y-64683714D01*
X94521404Y-64731333D01*
X96330928Y-65350380D02*
X95997595Y-64874190D01*
X95759500Y-65350380D02*
X95759500Y-64350380D01*
X96140452Y-64350380D01*
X96235690Y-64398000D01*
X96283309Y-64445619D01*
X96330928Y-64540857D01*
X96330928Y-64683714D01*
X96283309Y-64778952D01*
X96235690Y-64826571D01*
X96140452Y-64874190D01*
X95759500Y-64874190D01*
X97092833Y-64826571D02*
X96759500Y-64826571D01*
X96759500Y-65350380D02*
X96759500Y-64350380D01*
X97235690Y-64350380D01*
X98378547Y-64683714D02*
X98378547Y-65683714D01*
X98378547Y-64731333D02*
X98473785Y-64683714D01*
X98664261Y-64683714D01*
X98759500Y-64731333D01*
X98807119Y-64778952D01*
X98854738Y-64874190D01*
X98854738Y-65159904D01*
X98807119Y-65255142D01*
X98759500Y-65302761D01*
X98664261Y-65350380D01*
X98473785Y-65350380D01*
X98378547Y-65302761D01*
X99283309Y-65350380D02*
X99283309Y-64350380D01*
X99711880Y-65350380D02*
X99711880Y-64826571D01*
X99664261Y-64731333D01*
X99569023Y-64683714D01*
X99426166Y-64683714D01*
X99330928Y-64731333D01*
X99283309Y-64778952D01*
X100616642Y-65350380D02*
X100616642Y-64826571D01*
X100569023Y-64731333D01*
X100473785Y-64683714D01*
X100283309Y-64683714D01*
X100188071Y-64731333D01*
X100616642Y-65302761D02*
X100521404Y-65350380D01*
X100283309Y-65350380D01*
X100188071Y-65302761D01*
X100140452Y-65207523D01*
X100140452Y-65112285D01*
X100188071Y-65017047D01*
X100283309Y-64969428D01*
X100521404Y-64969428D01*
X100616642Y-64921809D01*
X101045214Y-65302761D02*
X101140452Y-65350380D01*
X101330928Y-65350380D01*
X101426166Y-65302761D01*
X101473785Y-65207523D01*
X101473785Y-65159904D01*
X101426166Y-65064666D01*
X101330928Y-65017047D01*
X101188071Y-65017047D01*
X101092833Y-64969428D01*
X101045214Y-64874190D01*
X101045214Y-64826571D01*
X101092833Y-64731333D01*
X101188071Y-64683714D01*
X101330928Y-64683714D01*
X101426166Y-64731333D01*
X102283309Y-65302761D02*
X102188071Y-65350380D01*
X101997595Y-65350380D01*
X101902357Y-65302761D01*
X101854738Y-65207523D01*
X101854738Y-64826571D01*
X101902357Y-64731333D01*
X101997595Y-64683714D01*
X102188071Y-64683714D01*
X102283309Y-64731333D01*
X102330928Y-64826571D01*
X102330928Y-64921809D01*
X101854738Y-65017047D01*
X89949976Y-66952761D02*
X90045214Y-67000380D01*
X90235690Y-67000380D01*
X90330928Y-66952761D01*
X90378547Y-66857523D01*
X90378547Y-66809904D01*
X90330928Y-66714666D01*
X90235690Y-66667047D01*
X90092833Y-66667047D01*
X89997595Y-66619428D01*
X89949976Y-66524190D01*
X89949976Y-66476571D01*
X89997595Y-66381333D01*
X90092833Y-66333714D01*
X90235690Y-66333714D01*
X90330928Y-66381333D01*
X90807119Y-67000380D02*
X90807119Y-66000380D01*
X91235690Y-67000380D02*
X91235690Y-66476571D01*
X91188071Y-66381333D01*
X91092833Y-66333714D01*
X90949976Y-66333714D01*
X90854738Y-66381333D01*
X90807119Y-66428952D01*
X91711880Y-67000380D02*
X91711880Y-66333714D01*
X91711880Y-66000380D02*
X91664261Y-66048000D01*
X91711880Y-66095619D01*
X91759500Y-66048000D01*
X91711880Y-66000380D01*
X91711880Y-66095619D01*
X92045214Y-66333714D02*
X92426166Y-66333714D01*
X92188071Y-67000380D02*
X92188071Y-66143238D01*
X92235690Y-66048000D01*
X92330928Y-66000380D01*
X92426166Y-66000380D01*
X92616642Y-66333714D02*
X92997595Y-66333714D01*
X92759500Y-66000380D02*
X92759500Y-66857523D01*
X92807119Y-66952761D01*
X92902357Y-67000380D01*
X92997595Y-67000380D01*
X93711880Y-66952761D02*
X93616642Y-67000380D01*
X93426166Y-67000380D01*
X93330928Y-66952761D01*
X93283309Y-66857523D01*
X93283309Y-66476571D01*
X93330928Y-66381333D01*
X93426166Y-66333714D01*
X93616642Y-66333714D01*
X93711880Y-66381333D01*
X93759500Y-66476571D01*
X93759500Y-66571809D01*
X93283309Y-66667047D01*
X94188071Y-67000380D02*
X94188071Y-66333714D01*
X94188071Y-66524190D02*
X94235690Y-66428952D01*
X94283309Y-66381333D01*
X94378547Y-66333714D01*
X94473785Y-66333714D01*
X95521404Y-66095619D02*
X95569023Y-66048000D01*
X95664261Y-66000380D01*
X95902357Y-66000380D01*
X95997595Y-66048000D01*
X96045214Y-66095619D01*
X96092833Y-66190857D01*
X96092833Y-66286095D01*
X96045214Y-66428952D01*
X95473785Y-67000380D01*
X96092833Y-67000380D01*
X96521404Y-66905142D02*
X96569023Y-66952761D01*
X96521404Y-67000380D01*
X96473785Y-66952761D01*
X96521404Y-66905142D01*
X96521404Y-67000380D01*
X97426166Y-66333714D02*
X97426166Y-67000380D01*
X97188071Y-65952761D02*
X96949976Y-66667047D01*
X97569023Y-66667047D01*
X98426166Y-66000380D02*
X97949976Y-66000380D01*
X97902357Y-66476571D01*
X97949976Y-66428952D01*
X98045214Y-66381333D01*
X98283309Y-66381333D01*
X98378547Y-66428952D01*
X98426166Y-66476571D01*
X98473785Y-66571809D01*
X98473785Y-66809904D01*
X98426166Y-66905142D01*
X98378547Y-66952761D01*
X98283309Y-67000380D01*
X98045214Y-67000380D01*
X97949976Y-66952761D01*
X97902357Y-66905142D01*
X100188071Y-66048000D02*
X100092833Y-66000380D01*
X99949976Y-66000380D01*
X99807119Y-66048000D01*
X99711880Y-66143238D01*
X99664261Y-66238476D01*
X99616642Y-66428952D01*
X99616642Y-66571809D01*
X99664261Y-66762285D01*
X99711880Y-66857523D01*
X99807119Y-66952761D01*
X99949976Y-67000380D01*
X100045214Y-67000380D01*
X100188071Y-66952761D01*
X100235690Y-66905142D01*
X100235690Y-66571809D01*
X100045214Y-66571809D01*
X100664261Y-67000380D02*
X100664261Y-66000380D01*
X100664261Y-66476571D02*
X101235690Y-66476571D01*
X101235690Y-67000380D02*
X101235690Y-66000380D01*
X101616642Y-66333714D02*
X102140452Y-66333714D01*
X101616642Y-67000380D01*
X102140452Y-67000380D01*
X89997595Y-68650380D02*
X89997595Y-67650380D01*
X90330928Y-68364666D01*
X90664261Y-67650380D01*
X90664261Y-68650380D01*
X91569023Y-68650380D02*
X91569023Y-68126571D01*
X91521404Y-68031333D01*
X91426166Y-67983714D01*
X91235690Y-67983714D01*
X91140452Y-68031333D01*
X91569023Y-68602761D02*
X91473785Y-68650380D01*
X91235690Y-68650380D01*
X91140452Y-68602761D01*
X91092833Y-68507523D01*
X91092833Y-68412285D01*
X91140452Y-68317047D01*
X91235690Y-68269428D01*
X91473785Y-68269428D01*
X91569023Y-68221809D01*
X92045214Y-68650380D02*
X92045214Y-67983714D01*
X92045214Y-68174190D02*
X92092833Y-68078952D01*
X92140452Y-68031333D01*
X92235690Y-67983714D01*
X92330928Y-67983714D01*
X93092833Y-68602761D02*
X92997595Y-68650380D01*
X92807119Y-68650380D01*
X92711880Y-68602761D01*
X92664261Y-68555142D01*
X92616642Y-68459904D01*
X92616642Y-68174190D01*
X92664261Y-68078952D01*
X92711880Y-68031333D01*
X92807119Y-67983714D01*
X92997595Y-67983714D01*
X93092833Y-68031333D01*
X93521404Y-68650380D02*
X93521404Y-67983714D01*
X93521404Y-67650380D02*
X93473785Y-67698000D01*
X93521404Y-67745619D01*
X93569023Y-67698000D01*
X93521404Y-67650380D01*
X93521404Y-67745619D01*
X93997595Y-67983714D02*
X93997595Y-68650380D01*
X93997595Y-68078952D02*
X94045214Y-68031333D01*
X94140452Y-67983714D01*
X94283309Y-67983714D01*
X94378547Y-68031333D01*
X94426166Y-68126571D01*
X94426166Y-68650380D01*
X95569023Y-67650380D02*
X95807119Y-68650380D01*
X95997595Y-67936095D01*
X96188071Y-68650380D01*
X96426166Y-67650380D01*
X97235690Y-68650380D02*
X97235690Y-68126571D01*
X97188071Y-68031333D01*
X97092833Y-67983714D01*
X96902357Y-67983714D01*
X96807119Y-68031333D01*
X97235690Y-68602761D02*
X97140452Y-68650380D01*
X96902357Y-68650380D01*
X96807119Y-68602761D01*
X96759500Y-68507523D01*
X96759500Y-68412285D01*
X96807119Y-68317047D01*
X96902357Y-68269428D01*
X97140452Y-68269428D01*
X97235690Y-68221809D01*
X98140452Y-68602761D02*
X98045214Y-68650380D01*
X97854738Y-68650380D01*
X97759500Y-68602761D01*
X97711880Y-68555142D01*
X97664261Y-68459904D01*
X97664261Y-68174190D01*
X97711880Y-68078952D01*
X97759500Y-68031333D01*
X97854738Y-67983714D01*
X98045214Y-67983714D01*
X98140452Y-68031333D01*
X98569023Y-68650380D02*
X98569023Y-67650380D01*
X98997595Y-68650380D02*
X98997595Y-68126571D01*
X98949976Y-68031333D01*
X98854738Y-67983714D01*
X98711880Y-67983714D01*
X98616642Y-68031333D01*
X98569023Y-68078952D01*
X99616642Y-68650380D02*
X99521404Y-68602761D01*
X99473785Y-68555142D01*
X99426166Y-68459904D01*
X99426166Y-68174190D01*
X99473785Y-68078952D01*
X99521404Y-68031333D01*
X99616642Y-67983714D01*
X99759500Y-67983714D01*
X99854738Y-68031333D01*
X99902357Y-68078952D01*
X99949976Y-68174190D01*
X99949976Y-68459904D01*
X99902357Y-68555142D01*
X99854738Y-68602761D01*
X99759500Y-68650380D01*
X99616642Y-68650380D01*
X100283309Y-67983714D02*
X100473785Y-68650380D01*
X100664261Y-68174190D01*
X100854738Y-68650380D01*
X101045214Y-67983714D01*
X101426166Y-68650380D02*
X101426166Y-67983714D01*
X101426166Y-67650380D02*
X101378547Y-67698000D01*
X101426166Y-67745619D01*
X101473785Y-67698000D01*
X101426166Y-67650380D01*
X101426166Y-67745619D01*
X102330928Y-68650380D02*
X102330928Y-68126571D01*
X102283309Y-68031333D01*
X102188071Y-67983714D01*
X101997595Y-67983714D01*
X101902357Y-68031333D01*
X102330928Y-68602761D02*
X102235690Y-68650380D01*
X101997595Y-68650380D01*
X101902357Y-68602761D01*
X101854738Y-68507523D01*
X101854738Y-68412285D01*
X101902357Y-68317047D01*
X101997595Y-68269428D01*
X102235690Y-68269428D01*
X102330928Y-68221809D01*
X102807119Y-68650380D02*
X102807119Y-67650380D01*
X102902357Y-68269428D02*
X103188071Y-68650380D01*
X103188071Y-67983714D02*
X102807119Y-68364666D01*
X103664261Y-68602761D02*
X103664261Y-68650380D01*
X103616642Y-68745619D01*
X103569023Y-68793238D01*
X104854738Y-68650380D02*
X104854738Y-67650380D01*
X105235690Y-67650380D01*
X105330928Y-67698000D01*
X105378547Y-67745619D01*
X105426166Y-67840857D01*
X105426166Y-67983714D01*
X105378547Y-68078952D01*
X105330928Y-68126571D01*
X105235690Y-68174190D01*
X104854738Y-68174190D01*
X105997595Y-68650380D02*
X105902357Y-68602761D01*
X105854738Y-68555142D01*
X105807119Y-68459904D01*
X105807119Y-68174190D01*
X105854738Y-68078952D01*
X105902357Y-68031333D01*
X105997595Y-67983714D01*
X106140452Y-67983714D01*
X106235690Y-68031333D01*
X106283309Y-68078952D01*
X106330928Y-68174190D01*
X106330928Y-68459904D01*
X106283309Y-68555142D01*
X106235690Y-68602761D01*
X106140452Y-68650380D01*
X105997595Y-68650380D01*
X106902357Y-68650380D02*
X106807119Y-68602761D01*
X106759500Y-68507523D01*
X106759500Y-67650380D01*
X107711880Y-68650380D02*
X107711880Y-68126571D01*
X107664261Y-68031333D01*
X107569023Y-67983714D01*
X107378547Y-67983714D01*
X107283309Y-68031333D01*
X107711880Y-68602761D02*
X107616642Y-68650380D01*
X107378547Y-68650380D01*
X107283309Y-68602761D01*
X107235690Y-68507523D01*
X107235690Y-68412285D01*
X107283309Y-68317047D01*
X107378547Y-68269428D01*
X107616642Y-68269428D01*
X107711880Y-68221809D01*
X108188071Y-67983714D02*
X108188071Y-68650380D01*
X108188071Y-68078952D02*
X108235690Y-68031333D01*
X108330928Y-67983714D01*
X108473785Y-67983714D01*
X108569023Y-68031333D01*
X108616642Y-68126571D01*
X108616642Y-68650380D01*
X109521404Y-68650380D02*
X109521404Y-67650380D01*
X109521404Y-68602761D02*
X109426166Y-68650380D01*
X109235690Y-68650380D01*
X109140452Y-68602761D01*
X109092833Y-68555142D01*
X109045214Y-68459904D01*
X109045214Y-68174190D01*
X109092833Y-68078952D01*
X109140452Y-68031333D01*
X109235690Y-67983714D01*
X109426166Y-67983714D01*
X109521404Y-68031333D01*
X79938571Y-57459428D02*
X79986190Y-57316571D01*
X80033809Y-57268952D01*
X80129047Y-57221333D01*
X80271904Y-57221333D01*
X80367142Y-57268952D01*
X80414761Y-57316571D01*
X80462380Y-57411809D01*
X80462380Y-57792761D01*
X79462380Y-57792761D01*
X79462380Y-57459428D01*
X79510000Y-57364190D01*
X79557619Y-57316571D01*
X79652857Y-57268952D01*
X79748095Y-57268952D01*
X79843333Y-57316571D01*
X79890952Y-57364190D01*
X79938571Y-57459428D01*
X79938571Y-57792761D01*
X80462380Y-56792761D02*
X79462380Y-56792761D01*
X80176666Y-56364190D02*
X80176666Y-55888000D01*
X80462380Y-56459428D02*
X79462380Y-56126095D01*
X80462380Y-55792761D01*
X80414761Y-55507047D02*
X80462380Y-55364190D01*
X80462380Y-55126095D01*
X80414761Y-55030857D01*
X80367142Y-54983238D01*
X80271904Y-54935619D01*
X80176666Y-54935619D01*
X80081428Y-54983238D01*
X80033809Y-55030857D01*
X79986190Y-55126095D01*
X79938571Y-55316571D01*
X79890952Y-55411809D01*
X79843333Y-55459428D01*
X79748095Y-55507047D01*
X79652857Y-55507047D01*
X79557619Y-55459428D01*
X79510000Y-55411809D01*
X79462380Y-55316571D01*
X79462380Y-55078476D01*
X79510000Y-54935619D01*
X89932000Y-50506380D02*
X90122476Y-50506380D01*
X90217714Y-50554000D01*
X90312952Y-50649238D01*
X90360571Y-50839714D01*
X90360571Y-51173047D01*
X90312952Y-51363523D01*
X90217714Y-51458761D01*
X90122476Y-51506380D01*
X89932000Y-51506380D01*
X89836761Y-51458761D01*
X89741523Y-51363523D01*
X89693904Y-51173047D01*
X89693904Y-50839714D01*
X89741523Y-50649238D01*
X89836761Y-50554000D01*
X89932000Y-50506380D01*
X90789142Y-50506380D02*
X90789142Y-51315904D01*
X90836761Y-51411142D01*
X90884380Y-51458761D01*
X90979619Y-51506380D01*
X91170095Y-51506380D01*
X91265333Y-51458761D01*
X91312952Y-51411142D01*
X91360571Y-51315904D01*
X91360571Y-50506380D01*
X91693904Y-50506380D02*
X92265333Y-50506380D01*
X91979619Y-51506380D02*
X91979619Y-50506380D01*
X78978190Y-64714380D02*
X78978190Y-63714380D01*
X79454380Y-64714380D02*
X79454380Y-63714380D01*
X80025809Y-64714380D01*
X80025809Y-63714380D01*
D11*
X112218700Y-61179000D02*
X110368700Y-61179000D01*
X112218700Y-59979000D02*
X110368700Y-59979000D01*
X110368700Y-59979000D02*
X110368700Y-61179000D01*
D12*
X84973000Y-57928000D02*
X86223000Y-57928000D01*
X84973000Y-59928000D02*
X86223000Y-59928000D01*
X84598000Y-58278000D02*
X84598000Y-58278000D01*
X84498000Y-58278000D02*
X84498000Y-58278000D01*
X84498000Y-58278000D02*
G75*
G02*
X84598000Y-58278000I50000J0D01*
G01*
X84598000Y-58278000D02*
G75*
G02*
X84498000Y-58278000I-50000J0D01*
G01*
D13*
X79667000Y-58928000D02*
G75*
G03*
X79667000Y-58928000I-125000J0D01*
G01*
D10*
X74207000Y-62928000D02*
X78907000Y-62928000D01*
X78907000Y-62928000D02*
X78907000Y-54928000D01*
X74207000Y-54928000D02*
X78907000Y-54928000D01*
D13*
X84580000Y-63079000D02*
G75*
G03*
X84580000Y-63079000I-125000J0D01*
G01*
D10*
X88455000Y-68414000D02*
X88455000Y-63714000D01*
X88455000Y-63714000D02*
X80455000Y-63714000D01*
X80455000Y-68414000D02*
X80455000Y-63714000D01*
D13*
X84580000Y-54777000D02*
G75*
G03*
X84580000Y-54777000I-125000J0D01*
G01*
D10*
X80455000Y-49442000D02*
X80455000Y-54142000D01*
X80455000Y-54142000D02*
X88455000Y-54142000D01*
X88455000Y-49442000D02*
X88455000Y-54142000D01*
D11*
X86895400Y-62392779D02*
X86895400Y-62067221D01*
X85875400Y-62392779D02*
X85875400Y-62067221D01*
X85875400Y-55463221D02*
X85875400Y-55788779D01*
X86895400Y-55463221D02*
X86895400Y-55788779D01*
X112218700Y-57877000D02*
X110368700Y-57877000D01*
X112218700Y-56677000D02*
X110368700Y-56677000D01*
X110368700Y-56677000D02*
X110368700Y-57877000D01*
X104073400Y-62879200D02*
X104073400Y-61029200D01*
X105273400Y-62879200D02*
X105273400Y-61029200D01*
X105273400Y-61029200D02*
X104073400Y-61029200D01*
X105273400Y-54976800D02*
X105273400Y-56826800D01*
X104073400Y-54976800D02*
X104073400Y-56826800D01*
X104073400Y-56826800D02*
X105273400Y-56826800D01*
X84965000Y-62370580D02*
X84965000Y-62089420D01*
X83945000Y-62370580D02*
X83945000Y-62089420D01*
X84965000Y-55766580D02*
X84965000Y-55485420D01*
X83945000Y-55766580D02*
X83945000Y-55485420D01*
D10*
X112110780Y-62968095D02*
X111110780Y-62968095D01*
X111110780Y-62730000D01*
X111158400Y-62587142D01*
X111253638Y-62491904D01*
X111348876Y-62444285D01*
X111539352Y-62396666D01*
X111682209Y-62396666D01*
X111872685Y-62444285D01*
X111967923Y-62491904D01*
X112063161Y-62587142D01*
X112110780Y-62730000D01*
X112110780Y-62968095D01*
X111444114Y-61539523D02*
X112110780Y-61539523D01*
X111063161Y-61777619D02*
X111777447Y-62015714D01*
X111777447Y-61396666D01*
X106707133Y-62190380D02*
X107278561Y-62190380D01*
X106992847Y-63190380D02*
X106992847Y-62190380D01*
X108088085Y-63190380D02*
X107611895Y-63190380D01*
X107611895Y-62190380D01*
X108849990Y-62523714D02*
X108849990Y-63190380D01*
X108611895Y-62142761D02*
X108373800Y-62857047D01*
X108992847Y-62857047D01*
X106763933Y-54570380D02*
X107335361Y-54570380D01*
X107049647Y-55570380D02*
X107049647Y-54570380D01*
X108144885Y-55570380D02*
X107668695Y-55570380D01*
X107668695Y-54570380D01*
X108382980Y-54570380D02*
X109002028Y-54570380D01*
X108668695Y-54951333D01*
X108811552Y-54951333D01*
X108906790Y-54998952D01*
X108954409Y-55046571D01*
X109002028Y-55141809D01*
X109002028Y-55379904D01*
X108954409Y-55475142D01*
X108906790Y-55522761D01*
X108811552Y-55570380D01*
X108525838Y-55570380D01*
X108430600Y-55522761D01*
X108382980Y-55475142D01*
X94003633Y-62444380D02*
X94575061Y-62444380D01*
X94289347Y-63444380D02*
X94289347Y-62444380D01*
X95384585Y-63444380D02*
X94908395Y-63444380D01*
X94908395Y-62444380D01*
X95670300Y-62539619D02*
X95717919Y-62492000D01*
X95813157Y-62444380D01*
X96051252Y-62444380D01*
X96146490Y-62492000D01*
X96194109Y-62539619D01*
X96241728Y-62634857D01*
X96241728Y-62730095D01*
X96194109Y-62872952D01*
X95622680Y-63444380D01*
X96241728Y-63444380D01*
X94003633Y-54570380D02*
X94575061Y-54570380D01*
X94289347Y-55570380D02*
X94289347Y-54570380D01*
X95384585Y-55570380D02*
X94908395Y-55570380D01*
X94908395Y-54570380D01*
X96241728Y-55570380D02*
X95670300Y-55570380D01*
X95956014Y-55570380D02*
X95956014Y-54570380D01*
X95860776Y-54713238D01*
X95765538Y-54808476D01*
X95670300Y-54856095D01*
X82065904Y-57840571D02*
X81732571Y-57840571D01*
X81732571Y-58364380D02*
X81732571Y-57364380D01*
X82208761Y-57364380D01*
X83065904Y-58364380D02*
X82589714Y-58364380D01*
X82589714Y-57364380D01*
X83923047Y-58364380D02*
X83351619Y-58364380D01*
X83637333Y-58364380D02*
X83637333Y-57364380D01*
X83542095Y-57507238D01*
X83446857Y-57602476D01*
X83351619Y-57650095D01*
X78091309Y-53554380D02*
X78091309Y-54268666D01*
X78043690Y-54411523D01*
X77948452Y-54506761D01*
X77805595Y-54554380D01*
X77710357Y-54554380D01*
X78472261Y-53554380D02*
X79091309Y-53554380D01*
X78757976Y-53935333D01*
X78900833Y-53935333D01*
X78996071Y-53982952D01*
X79043690Y-54030571D01*
X79091309Y-54125809D01*
X79091309Y-54363904D01*
X79043690Y-54459142D01*
X78996071Y-54506761D01*
X78900833Y-54554380D01*
X78615119Y-54554380D01*
X78519880Y-54506761D01*
X78472261Y-54459142D01*
X80500023Y-62444380D02*
X80500023Y-63158666D01*
X80452404Y-63301523D01*
X80357166Y-63396761D01*
X80214309Y-63444380D01*
X80119071Y-63444380D01*
X80928595Y-62539619D02*
X80976214Y-62492000D01*
X81071452Y-62444380D01*
X81309547Y-62444380D01*
X81404785Y-62492000D01*
X81452404Y-62539619D01*
X81500023Y-62634857D01*
X81500023Y-62730095D01*
X81452404Y-62872952D01*
X80880976Y-63444380D01*
X81500023Y-63444380D01*
X90029309Y-48982380D02*
X90029309Y-49696666D01*
X89981690Y-49839523D01*
X89886452Y-49934761D01*
X89743595Y-49982380D01*
X89648357Y-49982380D01*
X91029309Y-49982380D02*
X90457880Y-49982380D01*
X90743595Y-49982380D02*
X90743595Y-48982380D01*
X90648357Y-49125238D01*
X90553119Y-49220476D01*
X90457880Y-49268095D01*
X87869733Y-62428380D02*
X87393542Y-62428380D01*
X87393542Y-61428380D01*
X88155447Y-61523619D02*
X88203066Y-61476000D01*
X88298304Y-61428380D01*
X88536400Y-61428380D01*
X88631638Y-61476000D01*
X88679257Y-61523619D01*
X88726876Y-61618857D01*
X88726876Y-61714095D01*
X88679257Y-61856952D01*
X88107828Y-62428380D01*
X88726876Y-62428380D01*
X87869733Y-56332380D02*
X87393542Y-56332380D01*
X87393542Y-55332380D01*
X88726876Y-56332380D02*
X88155447Y-56332380D01*
X88441161Y-56332380D02*
X88441161Y-55332380D01*
X88345923Y-55475238D01*
X88250685Y-55570476D01*
X88155447Y-55618095D01*
X112110780Y-56364095D02*
X111110780Y-56364095D01*
X111110780Y-56126000D01*
X111158400Y-55983142D01*
X111253638Y-55887904D01*
X111348876Y-55840285D01*
X111539352Y-55792666D01*
X111682209Y-55792666D01*
X111872685Y-55840285D01*
X111967923Y-55887904D01*
X112063161Y-55983142D01*
X112110780Y-56126000D01*
X112110780Y-56364095D01*
X111110780Y-55459333D02*
X111110780Y-54840285D01*
X111491733Y-55173619D01*
X111491733Y-55030761D01*
X111539352Y-54935523D01*
X111586971Y-54887904D01*
X111682209Y-54840285D01*
X111920304Y-54840285D01*
X112015542Y-54887904D01*
X112063161Y-54935523D01*
X112110780Y-55030761D01*
X112110780Y-55316476D01*
X112063161Y-55411714D01*
X112015542Y-55459333D01*
X102055704Y-63393580D02*
X102055704Y-62393580D01*
X102293800Y-62393580D01*
X102436657Y-62441200D01*
X102531895Y-62536438D01*
X102579514Y-62631676D01*
X102627133Y-62822152D01*
X102627133Y-62965009D01*
X102579514Y-63155485D01*
X102531895Y-63250723D01*
X102436657Y-63345961D01*
X102293800Y-63393580D01*
X102055704Y-63393580D01*
X103008085Y-62488819D02*
X103055704Y-62441200D01*
X103150942Y-62393580D01*
X103389038Y-62393580D01*
X103484276Y-62441200D01*
X103531895Y-62488819D01*
X103579514Y-62584057D01*
X103579514Y-62679295D01*
X103531895Y-62822152D01*
X102960466Y-63393580D01*
X103579514Y-63393580D01*
X102309704Y-55379880D02*
X102309704Y-54379880D01*
X102547800Y-54379880D01*
X102690657Y-54427500D01*
X102785895Y-54522738D01*
X102833514Y-54617976D01*
X102881133Y-54808452D01*
X102881133Y-54951309D01*
X102833514Y-55141785D01*
X102785895Y-55237023D01*
X102690657Y-55332261D01*
X102547800Y-55379880D01*
X102309704Y-55379880D01*
X103833514Y-55379880D02*
X103262085Y-55379880D01*
X103547800Y-55379880D02*
X103547800Y-54379880D01*
X103452561Y-54522738D01*
X103357323Y-54617976D01*
X103262085Y-54665595D01*
X83415142Y-62396666D02*
X83462761Y-62444285D01*
X83510380Y-62587142D01*
X83510380Y-62682380D01*
X83462761Y-62825238D01*
X83367523Y-62920476D01*
X83272285Y-62968095D01*
X83081809Y-63015714D01*
X82938952Y-63015714D01*
X82748476Y-62968095D01*
X82653238Y-62920476D01*
X82558000Y-62825238D01*
X82510380Y-62682380D01*
X82510380Y-62587142D01*
X82558000Y-62444285D01*
X82605619Y-62396666D01*
X82605619Y-62015714D02*
X82558000Y-61968095D01*
X82510380Y-61872857D01*
X82510380Y-61634761D01*
X82558000Y-61539523D01*
X82605619Y-61491904D01*
X82700857Y-61444285D01*
X82796095Y-61444285D01*
X82938952Y-61491904D01*
X83510380Y-62063333D01*
X83510380Y-61444285D01*
X83415142Y-55792666D02*
X83462761Y-55840285D01*
X83510380Y-55983142D01*
X83510380Y-56078380D01*
X83462761Y-56221238D01*
X83367523Y-56316476D01*
X83272285Y-56364095D01*
X83081809Y-56411714D01*
X82938952Y-56411714D01*
X82748476Y-56364095D01*
X82653238Y-56316476D01*
X82558000Y-56221238D01*
X82510380Y-56078380D01*
X82510380Y-55983142D01*
X82558000Y-55840285D01*
X82605619Y-55792666D01*
X83510380Y-54840285D02*
X83510380Y-55411714D01*
X83510380Y-55126000D02*
X82510380Y-55126000D01*
X82653238Y-55221238D01*
X82748476Y-55316476D01*
X82796095Y-55411714D01*
%LPC*%
D14*
X110818700Y-60579000D03*
X112218700Y-60579000D03*
D15*
X85103000Y-58278000D03*
X85103000Y-58928000D03*
X85103000Y-59578000D03*
X86093000Y-59578000D03*
X86093000Y-58928000D03*
X86093000Y-58278000D03*
D16*
X75967000Y-58928000D03*
D17*
X75967000Y-61698000D03*
X75967000Y-56158000D03*
D18*
X84455000Y-66654000D03*
D19*
X87225000Y-66654000D03*
X81685000Y-66654000D03*
D18*
X84455000Y-51202000D03*
D19*
X81685000Y-51202000D03*
X87225000Y-51202000D03*
G36*
G01*
X86641650Y-61880000D02*
X86129150Y-61880000D01*
G75*
G02*
X85910400Y-61661250I0J218750D01*
G01*
X85910400Y-61223750D01*
G75*
G02*
X86129150Y-61005000I218750J0D01*
G01*
X86641650Y-61005000D01*
G75*
G02*
X86860400Y-61223750I0J-218750D01*
G01*
X86860400Y-61661250D01*
G75*
G02*
X86641650Y-61880000I-218750J0D01*
G01*
G37*
G36*
G01*
X86641650Y-63455000D02*
X86129150Y-63455000D01*
G75*
G02*
X85910400Y-63236250I0J218750D01*
G01*
X85910400Y-62798750D01*
G75*
G02*
X86129150Y-62580000I218750J0D01*
G01*
X86641650Y-62580000D01*
G75*
G02*
X86860400Y-62798750I0J-218750D01*
G01*
X86860400Y-63236250D01*
G75*
G02*
X86641650Y-63455000I-218750J0D01*
G01*
G37*
G36*
G01*
X86129150Y-55976000D02*
X86641650Y-55976000D01*
G75*
G02*
X86860400Y-56194750I0J-218750D01*
G01*
X86860400Y-56632250D01*
G75*
G02*
X86641650Y-56851000I-218750J0D01*
G01*
X86129150Y-56851000D01*
G75*
G02*
X85910400Y-56632250I0J218750D01*
G01*
X85910400Y-56194750D01*
G75*
G02*
X86129150Y-55976000I218750J0D01*
G01*
G37*
G36*
G01*
X86129150Y-54401000D02*
X86641650Y-54401000D01*
G75*
G02*
X86860400Y-54619750I0J-218750D01*
G01*
X86860400Y-55057250D01*
G75*
G02*
X86641650Y-55276000I-218750J0D01*
G01*
X86129150Y-55276000D01*
G75*
G02*
X85910400Y-55057250I0J218750D01*
G01*
X85910400Y-54619750D01*
G75*
G02*
X86129150Y-54401000I218750J0D01*
G01*
G37*
D14*
X110818700Y-57277000D03*
X112218700Y-57277000D03*
D20*
X104673400Y-61479200D03*
X104673400Y-62879200D03*
X104673400Y-56376800D03*
X104673400Y-54976800D03*
G36*
G01*
X84705000Y-61905000D02*
X84205000Y-61905000D01*
G75*
G02*
X83980000Y-61680000I0J225000D01*
G01*
X83980000Y-61230000D01*
G75*
G02*
X84205000Y-61005000I225000J0D01*
G01*
X84705000Y-61005000D01*
G75*
G02*
X84930000Y-61230000I0J-225000D01*
G01*
X84930000Y-61680000D01*
G75*
G02*
X84705000Y-61905000I-225000J0D01*
G01*
G37*
G36*
G01*
X84705000Y-63455000D02*
X84205000Y-63455000D01*
G75*
G02*
X83980000Y-63230000I0J225000D01*
G01*
X83980000Y-62780000D01*
G75*
G02*
X84205000Y-62555000I225000J0D01*
G01*
X84705000Y-62555000D01*
G75*
G02*
X84930000Y-62780000I0J-225000D01*
G01*
X84930000Y-63230000D01*
G75*
G02*
X84705000Y-63455000I-225000J0D01*
G01*
G37*
G36*
G01*
X84705000Y-55301000D02*
X84205000Y-55301000D01*
G75*
G02*
X83980000Y-55076000I0J225000D01*
G01*
X83980000Y-54626000D01*
G75*
G02*
X84205000Y-54401000I225000J0D01*
G01*
X84705000Y-54401000D01*
G75*
G02*
X84930000Y-54626000I0J-225000D01*
G01*
X84930000Y-55076000D01*
G75*
G02*
X84705000Y-55301000I-225000J0D01*
G01*
G37*
G36*
G01*
X84705000Y-56851000D02*
X84205000Y-56851000D01*
G75*
G02*
X83980000Y-56626000I0J225000D01*
G01*
X83980000Y-56176000D01*
G75*
G02*
X84205000Y-55951000I225000J0D01*
G01*
X84705000Y-55951000D01*
G75*
G02*
X84930000Y-56176000I0J-225000D01*
G01*
X84930000Y-56626000D01*
G75*
G02*
X84705000Y-56851000I-225000J0D01*
G01*
G37*
M02*
