G04 #@! TF.GenerationSoftware,KiCad,Pcbnew,(6.0.9)*
G04 #@! TF.CreationDate,2022-12-03T14:04:53+01:00*
G04 #@! TF.ProjectId,rf_phase_shifter_2_45GHz,72665f70-6861-4736-955f-736869667465,1.0.0*
G04 #@! TF.SameCoordinates,Original*
G04 #@! TF.FileFunction,Legend,Top*
G04 #@! TF.FilePolarity,Positive*
%FSLAX46Y46*%
G04 Gerber Fmt 4.6, Leading zero omitted, Abs format (unit mm)*
G04 Created by KiCad (PCBNEW (6.0.9)) date 2022-12-03 14:04:53*
%MOMM*%
%LPD*%
G01*
G04 APERTURE LIST*
G04 Aperture macros list*
%AMRoundRect*
0 Rectangle with rounded corners*
0 $1 Rounding radius*
0 $2 $3 $4 $5 $6 $7 $8 $9 X,Y pos of 4 corners*
0 Add a 4 corners polygon primitive as box body*
4,1,4,$2,$3,$4,$5,$6,$7,$8,$9,$2,$3,0*
0 Add four circle primitives for the rounded corners*
1,1,$1+$1,$2,$3*
1,1,$1+$1,$4,$5*
1,1,$1+$1,$6,$7*
1,1,$1+$1,$8,$9*
0 Add four rect primitives between the rounded corners*
20,1,$1+$1,$2,$3,$4,$5,0*
20,1,$1+$1,$4,$5,$6,$7,0*
20,1,$1+$1,$6,$7,$8,$9,0*
20,1,$1+$1,$8,$9,$2,$3,0*%
G04 Aperture macros list end*
%ADD10C,0.150000*%
%ADD11C,0.120000*%
%ADD12C,0.100000*%
%ADD13C,0.250000*%
%ADD14RoundRect,0.225000X0.250000X-0.225000X0.250000X0.225000X-0.250000X0.225000X-0.250000X-0.225000X0*%
%ADD15R,0.330000X0.350000*%
%ADD16R,1.200000X5.000000*%
%ADD17R,1.600000X5.000000*%
%ADD18R,0.600000X0.700000*%
%ADD19R,5.000000X1.200000*%
%ADD20R,5.000000X1.600000*%
%ADD21RoundRect,0.225000X0.225000X0.250000X-0.225000X0.250000X-0.225000X-0.250000X0.225000X-0.250000X0*%
%ADD22RoundRect,0.200000X-0.200000X-0.275000X0.200000X-0.275000X0.200000X0.275000X-0.200000X0.275000X0*%
%ADD23RoundRect,0.218750X-0.256250X0.218750X-0.256250X-0.218750X0.256250X-0.218750X0.256250X0.218750X0*%
%ADD24RoundRect,0.218750X0.256250X-0.218750X0.256250X0.218750X-0.256250X0.218750X-0.256250X-0.218750X0*%
G04 APERTURE END LIST*
D10*
X78978190Y-64968380D02*
X78978190Y-63968380D01*
X79454380Y-64968380D02*
X79454380Y-63968380D01*
X80025809Y-64968380D01*
X80025809Y-63968380D01*
X80446571Y-55681428D02*
X80494190Y-55538571D01*
X80541809Y-55490952D01*
X80637047Y-55443333D01*
X80779904Y-55443333D01*
X80875142Y-55490952D01*
X80922761Y-55538571D01*
X80970380Y-55633809D01*
X80970380Y-56014761D01*
X79970380Y-56014761D01*
X79970380Y-55681428D01*
X80018000Y-55586190D01*
X80065619Y-55538571D01*
X80160857Y-55490952D01*
X80256095Y-55490952D01*
X80351333Y-55538571D01*
X80398952Y-55586190D01*
X80446571Y-55681428D01*
X80446571Y-56014761D01*
X80970380Y-55014761D02*
X79970380Y-55014761D01*
X80684666Y-54586190D02*
X80684666Y-54110000D01*
X80970380Y-54681428D02*
X79970380Y-54348095D01*
X80970380Y-54014761D01*
X80922761Y-53729047D02*
X80970380Y-53586190D01*
X80970380Y-53348095D01*
X80922761Y-53252857D01*
X80875142Y-53205238D01*
X80779904Y-53157619D01*
X80684666Y-53157619D01*
X80589428Y-53205238D01*
X80541809Y-53252857D01*
X80494190Y-53348095D01*
X80446571Y-53538571D01*
X80398952Y-53633809D01*
X80351333Y-53681428D01*
X80256095Y-53729047D01*
X80160857Y-53729047D01*
X80065619Y-53681428D01*
X80018000Y-53633809D01*
X79970380Y-53538571D01*
X79970380Y-53300476D01*
X80018000Y-53157619D01*
X79010000Y-51014380D02*
X79200476Y-51014380D01*
X79295714Y-51062000D01*
X79390952Y-51157238D01*
X79438571Y-51347714D01*
X79438571Y-51681047D01*
X79390952Y-51871523D01*
X79295714Y-51966761D01*
X79200476Y-52014380D01*
X79010000Y-52014380D01*
X78914761Y-51966761D01*
X78819523Y-51871523D01*
X78771904Y-51681047D01*
X78771904Y-51347714D01*
X78819523Y-51157238D01*
X78914761Y-51062000D01*
X79010000Y-51014380D01*
X79867142Y-51014380D02*
X79867142Y-51823904D01*
X79914761Y-51919142D01*
X79962380Y-51966761D01*
X80057619Y-52014380D01*
X80248095Y-52014380D01*
X80343333Y-51966761D01*
X80390952Y-51919142D01*
X80438571Y-51823904D01*
X80438571Y-51014380D01*
X80771904Y-51014380D02*
X81343333Y-51014380D01*
X81057619Y-52014380D02*
X81057619Y-51014380D01*
X83415142Y-52236666D02*
X83462761Y-52284285D01*
X83510380Y-52427142D01*
X83510380Y-52522380D01*
X83462761Y-52665238D01*
X83367523Y-52760476D01*
X83272285Y-52808095D01*
X83081809Y-52855714D01*
X82938952Y-52855714D01*
X82748476Y-52808095D01*
X82653238Y-52760476D01*
X82558000Y-52665238D01*
X82510380Y-52522380D01*
X82510380Y-52427142D01*
X82558000Y-52284285D01*
X82605619Y-52236666D01*
X83510380Y-51284285D02*
X83510380Y-51855714D01*
X83510380Y-51570000D02*
X82510380Y-51570000D01*
X82653238Y-51665238D01*
X82748476Y-51760476D01*
X82796095Y-51855714D01*
X83208904Y-54538571D02*
X82875571Y-54538571D01*
X82875571Y-55062380D02*
X82875571Y-54062380D01*
X83351761Y-54062380D01*
X84208904Y-55062380D02*
X83732714Y-55062380D01*
X83732714Y-54062380D01*
X85066047Y-55062380D02*
X84494619Y-55062380D01*
X84780333Y-55062380D02*
X84780333Y-54062380D01*
X84685095Y-54205238D01*
X84589857Y-54300476D01*
X84494619Y-54348095D01*
X83415142Y-62396666D02*
X83462761Y-62444285D01*
X83510380Y-62587142D01*
X83510380Y-62682380D01*
X83462761Y-62825238D01*
X83367523Y-62920476D01*
X83272285Y-62968095D01*
X83081809Y-63015714D01*
X82938952Y-63015714D01*
X82748476Y-62968095D01*
X82653238Y-62920476D01*
X82558000Y-62825238D01*
X82510380Y-62682380D01*
X82510380Y-62587142D01*
X82558000Y-62444285D01*
X82605619Y-62396666D01*
X82605619Y-62015714D02*
X82558000Y-61968095D01*
X82510380Y-61872857D01*
X82510380Y-61634761D01*
X82558000Y-61539523D01*
X82605619Y-61491904D01*
X82700857Y-61444285D01*
X82796095Y-61444285D01*
X82938952Y-61491904D01*
X83510380Y-62063333D01*
X83510380Y-61444285D01*
X79230023Y-62444380D02*
X79230023Y-63158666D01*
X79182404Y-63301523D01*
X79087166Y-63396761D01*
X78944309Y-63444380D01*
X78849071Y-63444380D01*
X79658595Y-62539619D02*
X79706214Y-62492000D01*
X79801452Y-62444380D01*
X80039547Y-62444380D01*
X80134785Y-62492000D01*
X80182404Y-62539619D01*
X80230023Y-62634857D01*
X80230023Y-62730095D01*
X80182404Y-62872952D01*
X79610976Y-63444380D01*
X80230023Y-63444380D01*
X79234309Y-49490380D02*
X79234309Y-50204666D01*
X79186690Y-50347523D01*
X79091452Y-50442761D01*
X78948595Y-50490380D01*
X78853357Y-50490380D01*
X80234309Y-50490380D02*
X79662880Y-50490380D01*
X79948595Y-50490380D02*
X79948595Y-49490380D01*
X79853357Y-49633238D01*
X79758119Y-49728476D01*
X79662880Y-49776095D01*
X79970380Y-60846690D02*
X80684666Y-60846690D01*
X80827523Y-60894309D01*
X80922761Y-60989547D01*
X80970380Y-61132404D01*
X80970380Y-61227642D01*
X79970380Y-60465738D02*
X79970380Y-59846690D01*
X80351333Y-60180023D01*
X80351333Y-60037166D01*
X80398952Y-59941928D01*
X80446571Y-59894309D01*
X80541809Y-59846690D01*
X80779904Y-59846690D01*
X80875142Y-59894309D01*
X80922761Y-59941928D01*
X80970380Y-60037166D01*
X80970380Y-60322880D01*
X80922761Y-60418119D01*
X80875142Y-60465738D01*
X90447904Y-64714380D02*
X90447904Y-63714380D01*
X90686000Y-63714380D01*
X90828857Y-63762000D01*
X90924095Y-63857238D01*
X90971714Y-63952476D01*
X91019333Y-64142952D01*
X91019333Y-64285809D01*
X90971714Y-64476285D01*
X90924095Y-64571523D01*
X90828857Y-64666761D01*
X90686000Y-64714380D01*
X90447904Y-64714380D01*
X91876476Y-64047714D02*
X91876476Y-64714380D01*
X91638380Y-63666761D02*
X91400285Y-64381047D01*
X92019333Y-64381047D01*
X83382142Y-57316666D02*
X83429761Y-57364285D01*
X83477380Y-57507142D01*
X83477380Y-57602380D01*
X83429761Y-57745238D01*
X83334523Y-57840476D01*
X83239285Y-57888095D01*
X83048809Y-57935714D01*
X82905952Y-57935714D01*
X82715476Y-57888095D01*
X82620238Y-57840476D01*
X82525000Y-57745238D01*
X82477380Y-57602380D01*
X82477380Y-57507142D01*
X82525000Y-57364285D01*
X82572619Y-57316666D01*
X82477380Y-56983333D02*
X82477380Y-56364285D01*
X82858333Y-56697619D01*
X82858333Y-56554761D01*
X82905952Y-56459523D01*
X82953571Y-56411904D01*
X83048809Y-56364285D01*
X83286904Y-56364285D01*
X83382142Y-56411904D01*
X83429761Y-56459523D01*
X83477380Y-56554761D01*
X83477380Y-56840476D01*
X83429761Y-56935714D01*
X83382142Y-56983333D01*
X90320904Y-50714380D02*
X90320904Y-49714380D01*
X90559000Y-49714380D01*
X90701857Y-49762000D01*
X90797095Y-49857238D01*
X90844714Y-49952476D01*
X90892333Y-50142952D01*
X90892333Y-50285809D01*
X90844714Y-50476285D01*
X90797095Y-50571523D01*
X90701857Y-50666761D01*
X90559000Y-50714380D01*
X90320904Y-50714380D01*
X91844714Y-50714380D02*
X91273285Y-50714380D01*
X91559000Y-50714380D02*
X91559000Y-49714380D01*
X91463761Y-49857238D01*
X91368523Y-49952476D01*
X91273285Y-50000095D01*
X83081904Y-59618571D02*
X82748571Y-59618571D01*
X82748571Y-60142380D02*
X82748571Y-59142380D01*
X83224761Y-59142380D01*
X84081904Y-60142380D02*
X83605714Y-60142380D01*
X83605714Y-59142380D01*
X84367619Y-59237619D02*
X84415238Y-59190000D01*
X84510476Y-59142380D01*
X84748571Y-59142380D01*
X84843809Y-59190000D01*
X84891428Y-59237619D01*
X84939047Y-59332857D01*
X84939047Y-59428095D01*
X84891428Y-59570952D01*
X84320000Y-60142380D01*
X84939047Y-60142380D01*
D11*
X83945000Y-52210580D02*
X83945000Y-51929420D01*
X84965000Y-52210580D02*
X84965000Y-51929420D01*
D12*
X86116000Y-52848000D02*
X87366000Y-52848000D01*
X85641000Y-53198000D02*
X85641000Y-53198000D01*
X85741000Y-53198000D02*
X85741000Y-53198000D01*
X86116000Y-54848000D02*
X87366000Y-54848000D01*
X85641000Y-53198000D02*
G75*
G03*
X85741000Y-53198000I50000J0D01*
G01*
X85741000Y-53198000D02*
G75*
G03*
X85641000Y-53198000I-50000J0D01*
G01*
D11*
X83945000Y-62370580D02*
X83945000Y-62089420D01*
X84965000Y-62370580D02*
X84965000Y-62089420D01*
D10*
X88455000Y-68414000D02*
X88455000Y-63714000D01*
X80455000Y-68414000D02*
X80455000Y-63714000D01*
X88455000Y-63714000D02*
X80455000Y-63714000D01*
D13*
X84580000Y-63079000D02*
G75*
G03*
X84580000Y-63079000I-125000J0D01*
G01*
D10*
X80455000Y-50586000D02*
X88455000Y-50586000D01*
X88455000Y-45886000D02*
X88455000Y-50586000D01*
X80455000Y-45886000D02*
X80455000Y-50586000D01*
D13*
X84580000Y-51221000D02*
G75*
G03*
X84580000Y-51221000I-125000J0D01*
G01*
D11*
X91759000Y-55534000D02*
X89909000Y-55534000D01*
X89909000Y-55534000D02*
X89909000Y-56734000D01*
X91759000Y-56734000D02*
X89909000Y-56734000D01*
D10*
X79542000Y-61150000D02*
X79542000Y-53150000D01*
X74842000Y-53150000D02*
X79542000Y-53150000D01*
X74842000Y-61150000D02*
X79542000Y-61150000D01*
D13*
X80302000Y-57150000D02*
G75*
G03*
X80302000Y-57150000I-125000J0D01*
G01*
D11*
X86881580Y-58422000D02*
X86600420Y-58422000D01*
X86881580Y-57402000D02*
X86600420Y-57402000D01*
X86881580Y-51818000D02*
X86600420Y-51818000D01*
X86881580Y-50798000D02*
X86600420Y-50798000D01*
X86881580Y-63502000D02*
X86600420Y-63502000D01*
X86881580Y-62482000D02*
X86600420Y-62482000D01*
X91759000Y-62138000D02*
X89909000Y-62138000D01*
X91759000Y-63338000D02*
X89909000Y-63338000D01*
X89909000Y-62138000D02*
X89909000Y-63338000D01*
X91075742Y-59167500D02*
X91550258Y-59167500D01*
X91075742Y-60212500D02*
X91550258Y-60212500D01*
X91075742Y-53608500D02*
X91550258Y-53608500D01*
X91075742Y-52563500D02*
X91550258Y-52563500D01*
X88517000Y-61813221D02*
X88517000Y-62138779D01*
X89537000Y-61813221D02*
X89537000Y-62138779D01*
X86881580Y-56898000D02*
X86600420Y-56898000D01*
X86881580Y-55878000D02*
X86600420Y-55878000D01*
X94109000Y-53226580D02*
X94109000Y-52945420D01*
X93089000Y-53226580D02*
X93089000Y-52945420D01*
X84965000Y-57290580D02*
X84965000Y-57009420D01*
X83945000Y-57290580D02*
X83945000Y-57009420D01*
X91759000Y-58766000D02*
X89909000Y-58766000D01*
X89909000Y-57566000D02*
X89909000Y-58766000D01*
X91759000Y-57566000D02*
X89909000Y-57566000D01*
X91759000Y-52162000D02*
X89909000Y-52162000D01*
X89909000Y-50962000D02*
X89909000Y-52162000D01*
X91759000Y-50962000D02*
X89909000Y-50962000D01*
X88517000Y-59090779D02*
X88517000Y-58765221D01*
X89537000Y-59090779D02*
X89537000Y-58765221D01*
X88517000Y-55209221D02*
X88517000Y-55534779D01*
X89537000Y-55209221D02*
X89537000Y-55534779D01*
D12*
X86116000Y-59452000D02*
X87366000Y-59452000D01*
X86116000Y-61452000D02*
X87366000Y-61452000D01*
X85641000Y-59802000D02*
X85641000Y-59802000D01*
X85741000Y-59802000D02*
X85741000Y-59802000D01*
X85741000Y-59802000D02*
G75*
G03*
X85641000Y-59802000I-50000J0D01*
G01*
X85641000Y-59802000D02*
G75*
G03*
X85741000Y-59802000I50000J0D01*
G01*
D11*
X91075742Y-54087500D02*
X91550258Y-54087500D01*
X91075742Y-55132500D02*
X91550258Y-55132500D01*
X88517000Y-52486779D02*
X88517000Y-52161221D01*
X89537000Y-52486779D02*
X89537000Y-52161221D01*
X93089000Y-59830580D02*
X93089000Y-59549420D01*
X94109000Y-59830580D02*
X94109000Y-59549420D01*
X91075742Y-61736500D02*
X91550258Y-61736500D01*
X91075742Y-60691500D02*
X91550258Y-60691500D01*
%LPC*%
D14*
X84455000Y-52845000D03*
X84455000Y-51295000D03*
D15*
X86246000Y-53198000D03*
X86246000Y-53848000D03*
X86246000Y-54498000D03*
X87236000Y-54498000D03*
X87236000Y-53848000D03*
X87236000Y-53198000D03*
D14*
X84455000Y-63005000D03*
X84455000Y-61455000D03*
D16*
X84455000Y-66654000D03*
D17*
X81685000Y-66654000D03*
X87225000Y-66654000D03*
D16*
X84455000Y-47646000D03*
D17*
X87225000Y-47646000D03*
X81685000Y-47646000D03*
D18*
X90359000Y-56134000D03*
X91759000Y-56134000D03*
D19*
X76602000Y-57150000D03*
D20*
X76602000Y-54380000D03*
X76602000Y-59920000D03*
D21*
X87516000Y-57912000D03*
X85966000Y-57912000D03*
X87516000Y-51308000D03*
X85966000Y-51308000D03*
X87516000Y-62992000D03*
X85966000Y-62992000D03*
D18*
X90359000Y-62738000D03*
X91759000Y-62738000D03*
D22*
X90488000Y-59690000D03*
X92138000Y-59690000D03*
X90488000Y-53086000D03*
X92138000Y-53086000D03*
D23*
X89027000Y-61188500D03*
X89027000Y-62763500D03*
D21*
X87516000Y-56388000D03*
X85966000Y-56388000D03*
D14*
X93599000Y-53861000D03*
X93599000Y-52311000D03*
X84455000Y-57925000D03*
X84455000Y-56375000D03*
D18*
X90359000Y-58166000D03*
X91759000Y-58166000D03*
X90359000Y-51562000D03*
X91759000Y-51562000D03*
D24*
X89027000Y-59715500D03*
X89027000Y-58140500D03*
D23*
X89027000Y-54584500D03*
X89027000Y-56159500D03*
D15*
X86246000Y-59802000D03*
X86246000Y-60452000D03*
X86246000Y-61102000D03*
X87236000Y-61102000D03*
X87236000Y-60452000D03*
X87236000Y-59802000D03*
D22*
X90488000Y-54610000D03*
X92138000Y-54610000D03*
D24*
X89027000Y-53111500D03*
X89027000Y-51536500D03*
D14*
X93599000Y-60465000D03*
X93599000Y-58915000D03*
D22*
X90488000Y-61214000D03*
X92138000Y-61214000D03*
M02*
