%TF.GenerationSoftware,KiCad,Pcbnew,(6.0.9)*%
%TF.CreationDate,2022-12-03T14:05:31+01:00*%
%TF.ProjectId,rf_phase_shifter_2_45GHz,72665f70-6861-4736-955f-736869667465,1.0.0*%
%TF.SameCoordinates,Original*%
%TF.FileFunction,Drillmap*%
%TF.FilePolarity,Positive*%
%FSLAX45Y45*%
G04 Gerber Fmt 4.5, Leading zero omitted, Abs format (unit mm)*
G04 Created by KiCad (PCBNEW (6.0.9)) date 2022-12-03 14:05:31*
%MOMM*%
%LPD*%
G01*
G04 APERTURE LIST*
%ADD10C,0.050000*%
%ADD11C,0.200000*%
G04 APERTURE END LIST*
D10*
X7391400Y-6934200D02*
X9499600Y-6934200D01*
X7391400Y-4495800D02*
X7391400Y-6934200D01*
X9499600Y-4495800D02*
X7391400Y-4495800D01*
X9499600Y-6934200D02*
X9499600Y-4495800D01*
D11*
X7646519Y-7247176D02*
X7646519Y-7047176D01*
X7694138Y-7047176D01*
X7722709Y-7056700D01*
X7741757Y-7075748D01*
X7751281Y-7094795D01*
X7760805Y-7132890D01*
X7760805Y-7161462D01*
X7751281Y-7199557D01*
X7741757Y-7218605D01*
X7722709Y-7237652D01*
X7694138Y-7247176D01*
X7646519Y-7247176D01*
X7846519Y-7247176D02*
X7846519Y-7113843D01*
X7846519Y-7151938D02*
X7856043Y-7132890D01*
X7865567Y-7123367D01*
X7884614Y-7113843D01*
X7903662Y-7113843D01*
X7970328Y-7247176D02*
X7970328Y-7113843D01*
X7970328Y-7047176D02*
X7960805Y-7056700D01*
X7970328Y-7066224D01*
X7979852Y-7056700D01*
X7970328Y-7047176D01*
X7970328Y-7066224D01*
X8094138Y-7247176D02*
X8075090Y-7237652D01*
X8065567Y-7218605D01*
X8065567Y-7047176D01*
X8198900Y-7247176D02*
X8179852Y-7237652D01*
X8170328Y-7218605D01*
X8170328Y-7047176D01*
X8427471Y-7247176D02*
X8427471Y-7047176D01*
X8494138Y-7190033D01*
X8560805Y-7047176D01*
X8560805Y-7247176D01*
X8741757Y-7247176D02*
X8741757Y-7142414D01*
X8732233Y-7123367D01*
X8713186Y-7113843D01*
X8675090Y-7113843D01*
X8656043Y-7123367D01*
X8741757Y-7237652D02*
X8722710Y-7247176D01*
X8675090Y-7247176D01*
X8656043Y-7237652D01*
X8646519Y-7218605D01*
X8646519Y-7199557D01*
X8656043Y-7180509D01*
X8675090Y-7170986D01*
X8722710Y-7170986D01*
X8741757Y-7161462D01*
X8836995Y-7113843D02*
X8836995Y-7313843D01*
X8836995Y-7123367D02*
X8856043Y-7113843D01*
X8894138Y-7113843D01*
X8913186Y-7123367D01*
X8922710Y-7132890D01*
X8932233Y-7151938D01*
X8932233Y-7209081D01*
X8922710Y-7228128D01*
X8913186Y-7237652D01*
X8894138Y-7247176D01*
X8856043Y-7247176D01*
X8836995Y-7237652D01*
X9017948Y-7228128D02*
X9027471Y-7237652D01*
X9017948Y-7247176D01*
X9008424Y-7237652D01*
X9017948Y-7228128D01*
X9017948Y-7247176D01*
X9017948Y-7123367D02*
X9027471Y-7132890D01*
X9017948Y-7142414D01*
X9008424Y-7132890D01*
X9017948Y-7123367D01*
X9017948Y-7142414D01*
M02*
