G04 #@! TF.GenerationSoftware,KiCad,Pcbnew,(6.0.9)*
G04 #@! TF.CreationDate,2022-12-03T14:04:53+01:00*
G04 #@! TF.ProjectId,rf_phase_shifter_2_45GHz,72665f70-6861-4736-955f-736869667465,1.0.0*
G04 #@! TF.SameCoordinates,Original*
G04 #@! TF.FileFunction,Legend,Bot*
G04 #@! TF.FilePolarity,Positive*
%FSLAX46Y46*%
G04 Gerber Fmt 4.6, Leading zero omitted, Abs format (unit mm)*
G04 Created by KiCad (PCBNEW (6.0.9)) date 2022-12-03 14:04:53*
%MOMM*%
%LPD*%
G01*
G04 APERTURE LIST*
%ADD10C,0.150000*%
%ADD11R,1.600000X5.000000*%
%ADD12R,5.000000X1.600000*%
G04 APERTURE END LIST*
D10*
X84544333Y-63720023D02*
X84544333Y-63243833D01*
X84258619Y-63815261D02*
X85258619Y-63481928D01*
X84258619Y-63148595D01*
X84925285Y-62815261D02*
X84258619Y-62815261D01*
X84830047Y-62815261D02*
X84877666Y-62767642D01*
X84925285Y-62672404D01*
X84925285Y-62529547D01*
X84877666Y-62434309D01*
X84782428Y-62386690D01*
X84258619Y-62386690D01*
X84258619Y-61481928D02*
X84782428Y-61481928D01*
X84877666Y-61529547D01*
X84925285Y-61624785D01*
X84925285Y-61815261D01*
X84877666Y-61910500D01*
X84306238Y-61481928D02*
X84258619Y-61577166D01*
X84258619Y-61815261D01*
X84306238Y-61910500D01*
X84401476Y-61958119D01*
X84496714Y-61958119D01*
X84591952Y-61910500D01*
X84639571Y-61815261D01*
X84639571Y-61577166D01*
X84687190Y-61481928D01*
X84258619Y-60862880D02*
X84306238Y-60958119D01*
X84401476Y-61005738D01*
X85258619Y-61005738D01*
X84258619Y-60339071D02*
X84306238Y-60434309D01*
X84353857Y-60481928D01*
X84449095Y-60529547D01*
X84734809Y-60529547D01*
X84830047Y-60481928D01*
X84877666Y-60434309D01*
X84925285Y-60339071D01*
X84925285Y-60196214D01*
X84877666Y-60100976D01*
X84830047Y-60053357D01*
X84734809Y-60005738D01*
X84449095Y-60005738D01*
X84353857Y-60053357D01*
X84306238Y-60100976D01*
X84258619Y-60196214D01*
X84258619Y-60339071D01*
X84925285Y-59148595D02*
X84115761Y-59148595D01*
X84020523Y-59196214D01*
X83972904Y-59243833D01*
X83925285Y-59339071D01*
X83925285Y-59481928D01*
X83972904Y-59577166D01*
X84306238Y-59148595D02*
X84258619Y-59243833D01*
X84258619Y-59434309D01*
X84306238Y-59529547D01*
X84353857Y-59577166D01*
X84449095Y-59624785D01*
X84734809Y-59624785D01*
X84830047Y-59577166D01*
X84877666Y-59529547D01*
X84925285Y-59434309D01*
X84925285Y-59243833D01*
X84877666Y-59148595D01*
X84258619Y-57339071D02*
X84734809Y-57672404D01*
X84258619Y-57910500D02*
X85258619Y-57910500D01*
X85258619Y-57529547D01*
X85211000Y-57434309D01*
X85163380Y-57386690D01*
X85068142Y-57339071D01*
X84925285Y-57339071D01*
X84830047Y-57386690D01*
X84782428Y-57434309D01*
X84734809Y-57529547D01*
X84734809Y-57910500D01*
X84782428Y-56577166D02*
X84782428Y-56910500D01*
X84258619Y-56910500D02*
X85258619Y-56910500D01*
X85258619Y-56434309D01*
X84925285Y-55291452D02*
X83925285Y-55291452D01*
X84877666Y-55291452D02*
X84925285Y-55196214D01*
X84925285Y-55005738D01*
X84877666Y-54910500D01*
X84830047Y-54862880D01*
X84734809Y-54815261D01*
X84449095Y-54815261D01*
X84353857Y-54862880D01*
X84306238Y-54910500D01*
X84258619Y-55005738D01*
X84258619Y-55196214D01*
X84306238Y-55291452D01*
X84258619Y-54386690D02*
X85258619Y-54386690D01*
X84258619Y-53958119D02*
X84782428Y-53958119D01*
X84877666Y-54005738D01*
X84925285Y-54100976D01*
X84925285Y-54243833D01*
X84877666Y-54339071D01*
X84830047Y-54386690D01*
X84258619Y-53053357D02*
X84782428Y-53053357D01*
X84877666Y-53100976D01*
X84925285Y-53196214D01*
X84925285Y-53386690D01*
X84877666Y-53481928D01*
X84306238Y-53053357D02*
X84258619Y-53148595D01*
X84258619Y-53386690D01*
X84306238Y-53481928D01*
X84401476Y-53529547D01*
X84496714Y-53529547D01*
X84591952Y-53481928D01*
X84639571Y-53386690D01*
X84639571Y-53148595D01*
X84687190Y-53053357D01*
X84306238Y-52624785D02*
X84258619Y-52529547D01*
X84258619Y-52339071D01*
X84306238Y-52243833D01*
X84401476Y-52196214D01*
X84449095Y-52196214D01*
X84544333Y-52243833D01*
X84591952Y-52339071D01*
X84591952Y-52481928D01*
X84639571Y-52577166D01*
X84734809Y-52624785D01*
X84782428Y-52624785D01*
X84877666Y-52577166D01*
X84925285Y-52481928D01*
X84925285Y-52339071D01*
X84877666Y-52243833D01*
X84306238Y-51386690D02*
X84258619Y-51481928D01*
X84258619Y-51672404D01*
X84306238Y-51767642D01*
X84401476Y-51815261D01*
X84782428Y-51815261D01*
X84877666Y-51767642D01*
X84925285Y-51672404D01*
X84925285Y-51481928D01*
X84877666Y-51386690D01*
X84782428Y-51339071D01*
X84687190Y-51339071D01*
X84591952Y-51815261D01*
X82696238Y-63720023D02*
X82648619Y-63624785D01*
X82648619Y-63434309D01*
X82696238Y-63339071D01*
X82791476Y-63291452D01*
X82839095Y-63291452D01*
X82934333Y-63339071D01*
X82981952Y-63434309D01*
X82981952Y-63577166D01*
X83029571Y-63672404D01*
X83124809Y-63720023D01*
X83172428Y-63720023D01*
X83267666Y-63672404D01*
X83315285Y-63577166D01*
X83315285Y-63434309D01*
X83267666Y-63339071D01*
X82648619Y-62862880D02*
X83648619Y-62862880D01*
X82648619Y-62434309D02*
X83172428Y-62434309D01*
X83267666Y-62481928D01*
X83315285Y-62577166D01*
X83315285Y-62720023D01*
X83267666Y-62815261D01*
X83220047Y-62862880D01*
X82648619Y-61958119D02*
X83315285Y-61958119D01*
X83648619Y-61958119D02*
X83601000Y-62005738D01*
X83553380Y-61958119D01*
X83601000Y-61910500D01*
X83648619Y-61958119D01*
X83553380Y-61958119D01*
X83315285Y-61624785D02*
X83315285Y-61243833D01*
X82648619Y-61481928D02*
X83505761Y-61481928D01*
X83601000Y-61434309D01*
X83648619Y-61339071D01*
X83648619Y-61243833D01*
X83315285Y-61053357D02*
X83315285Y-60672404D01*
X83648619Y-60910500D02*
X82791476Y-60910500D01*
X82696238Y-60862880D01*
X82648619Y-60767642D01*
X82648619Y-60672404D01*
X82696238Y-59958119D02*
X82648619Y-60053357D01*
X82648619Y-60243833D01*
X82696238Y-60339071D01*
X82791476Y-60386690D01*
X83172428Y-60386690D01*
X83267666Y-60339071D01*
X83315285Y-60243833D01*
X83315285Y-60053357D01*
X83267666Y-59958119D01*
X83172428Y-59910500D01*
X83077190Y-59910500D01*
X82981952Y-60386690D01*
X82648619Y-59481928D02*
X83315285Y-59481928D01*
X83124809Y-59481928D02*
X83220047Y-59434309D01*
X83267666Y-59386690D01*
X83315285Y-59291452D01*
X83315285Y-59196214D01*
X83553380Y-58148595D02*
X83601000Y-58100976D01*
X83648619Y-58005738D01*
X83648619Y-57767642D01*
X83601000Y-57672404D01*
X83553380Y-57624785D01*
X83458142Y-57577166D01*
X83362904Y-57577166D01*
X83220047Y-57624785D01*
X82648619Y-58196214D01*
X82648619Y-57577166D01*
X82743857Y-57148595D02*
X82696238Y-57100976D01*
X82648619Y-57148595D01*
X82696238Y-57196214D01*
X82743857Y-57148595D01*
X82648619Y-57148595D01*
X83315285Y-56243833D02*
X82648619Y-56243833D01*
X83696238Y-56481928D02*
X82981952Y-56720023D01*
X82981952Y-56100976D01*
X83648619Y-55243833D02*
X83648619Y-55720023D01*
X83172428Y-55767642D01*
X83220047Y-55720023D01*
X83267666Y-55624785D01*
X83267666Y-55386690D01*
X83220047Y-55291452D01*
X83172428Y-55243833D01*
X83077190Y-55196214D01*
X82839095Y-55196214D01*
X82743857Y-55243833D01*
X82696238Y-55291452D01*
X82648619Y-55386690D01*
X82648619Y-55624785D01*
X82696238Y-55720023D01*
X82743857Y-55767642D01*
X83601000Y-53481928D02*
X83648619Y-53577166D01*
X83648619Y-53720023D01*
X83601000Y-53862880D01*
X83505761Y-53958119D01*
X83410523Y-54005738D01*
X83220047Y-54053357D01*
X83077190Y-54053357D01*
X82886714Y-54005738D01*
X82791476Y-53958119D01*
X82696238Y-53862880D01*
X82648619Y-53720023D01*
X82648619Y-53624785D01*
X82696238Y-53481928D01*
X82743857Y-53434309D01*
X83077190Y-53434309D01*
X83077190Y-53624785D01*
X82648619Y-53005738D02*
X83648619Y-53005738D01*
X83172428Y-53005738D02*
X83172428Y-52434309D01*
X82648619Y-52434309D02*
X83648619Y-52434309D01*
X83315285Y-52053357D02*
X83315285Y-51529547D01*
X82648619Y-52053357D01*
X82648619Y-51529547D01*
X81038619Y-63672404D02*
X82038619Y-63672404D01*
X81324333Y-63339071D01*
X82038619Y-63005738D01*
X81038619Y-63005738D01*
X81038619Y-62100976D02*
X81562428Y-62100976D01*
X81657666Y-62148595D01*
X81705285Y-62243833D01*
X81705285Y-62434309D01*
X81657666Y-62529547D01*
X81086238Y-62100976D02*
X81038619Y-62196214D01*
X81038619Y-62434309D01*
X81086238Y-62529547D01*
X81181476Y-62577166D01*
X81276714Y-62577166D01*
X81371952Y-62529547D01*
X81419571Y-62434309D01*
X81419571Y-62196214D01*
X81467190Y-62100976D01*
X81038619Y-61624785D02*
X81705285Y-61624785D01*
X81514809Y-61624785D02*
X81610047Y-61577166D01*
X81657666Y-61529547D01*
X81705285Y-61434309D01*
X81705285Y-61339071D01*
X81086238Y-60577166D02*
X81038619Y-60672404D01*
X81038619Y-60862880D01*
X81086238Y-60958119D01*
X81133857Y-61005738D01*
X81229095Y-61053357D01*
X81514809Y-61053357D01*
X81610047Y-61005738D01*
X81657666Y-60958119D01*
X81705285Y-60862880D01*
X81705285Y-60672404D01*
X81657666Y-60577166D01*
X81038619Y-60148595D02*
X81705285Y-60148595D01*
X82038619Y-60148595D02*
X81991000Y-60196214D01*
X81943380Y-60148595D01*
X81991000Y-60100976D01*
X82038619Y-60148595D01*
X81943380Y-60148595D01*
X81705285Y-59672404D02*
X81038619Y-59672404D01*
X81610047Y-59672404D02*
X81657666Y-59624785D01*
X81705285Y-59529547D01*
X81705285Y-59386690D01*
X81657666Y-59291452D01*
X81562428Y-59243833D01*
X81038619Y-59243833D01*
X82038619Y-58100976D02*
X81038619Y-57862880D01*
X81752904Y-57672404D01*
X81038619Y-57481928D01*
X82038619Y-57243833D01*
X81038619Y-56434309D02*
X81562428Y-56434309D01*
X81657666Y-56481928D01*
X81705285Y-56577166D01*
X81705285Y-56767642D01*
X81657666Y-56862880D01*
X81086238Y-56434309D02*
X81038619Y-56529547D01*
X81038619Y-56767642D01*
X81086238Y-56862880D01*
X81181476Y-56910500D01*
X81276714Y-56910500D01*
X81371952Y-56862880D01*
X81419571Y-56767642D01*
X81419571Y-56529547D01*
X81467190Y-56434309D01*
X81086238Y-55529547D02*
X81038619Y-55624785D01*
X81038619Y-55815261D01*
X81086238Y-55910500D01*
X81133857Y-55958119D01*
X81229095Y-56005738D01*
X81514809Y-56005738D01*
X81610047Y-55958119D01*
X81657666Y-55910500D01*
X81705285Y-55815261D01*
X81705285Y-55624785D01*
X81657666Y-55529547D01*
X81038619Y-55100976D02*
X82038619Y-55100976D01*
X81038619Y-54672404D02*
X81562428Y-54672404D01*
X81657666Y-54720023D01*
X81705285Y-54815261D01*
X81705285Y-54958119D01*
X81657666Y-55053357D01*
X81610047Y-55100976D01*
X81038619Y-54053357D02*
X81086238Y-54148595D01*
X81133857Y-54196214D01*
X81229095Y-54243833D01*
X81514809Y-54243833D01*
X81610047Y-54196214D01*
X81657666Y-54148595D01*
X81705285Y-54053357D01*
X81705285Y-53910500D01*
X81657666Y-53815261D01*
X81610047Y-53767642D01*
X81514809Y-53720023D01*
X81229095Y-53720023D01*
X81133857Y-53767642D01*
X81086238Y-53815261D01*
X81038619Y-53910500D01*
X81038619Y-54053357D01*
X81705285Y-53386690D02*
X81038619Y-53196214D01*
X81514809Y-53005738D01*
X81038619Y-52815261D01*
X81705285Y-52624785D01*
X81038619Y-52243833D02*
X81705285Y-52243833D01*
X82038619Y-52243833D02*
X81991000Y-52291452D01*
X81943380Y-52243833D01*
X81991000Y-52196214D01*
X82038619Y-52243833D01*
X81943380Y-52243833D01*
X81038619Y-51339071D02*
X81562428Y-51339071D01*
X81657666Y-51386690D01*
X81705285Y-51481928D01*
X81705285Y-51672404D01*
X81657666Y-51767642D01*
X81086238Y-51339071D02*
X81038619Y-51434309D01*
X81038619Y-51672404D01*
X81086238Y-51767642D01*
X81181476Y-51815261D01*
X81276714Y-51815261D01*
X81371952Y-51767642D01*
X81419571Y-51672404D01*
X81419571Y-51434309D01*
X81467190Y-51339071D01*
X81038619Y-50862880D02*
X82038619Y-50862880D01*
X81419571Y-50767642D02*
X81038619Y-50481928D01*
X81705285Y-50481928D02*
X81324333Y-50862880D01*
X81086238Y-50005738D02*
X81038619Y-50005738D01*
X80943380Y-50053357D01*
X80895761Y-50100976D01*
X79428619Y-63672404D02*
X80428619Y-63672404D01*
X80428619Y-63291452D01*
X80381000Y-63196214D01*
X80333380Y-63148595D01*
X80238142Y-63100976D01*
X80095285Y-63100976D01*
X80000047Y-63148595D01*
X79952428Y-63196214D01*
X79904809Y-63291452D01*
X79904809Y-63672404D01*
X79428619Y-62529547D02*
X79476238Y-62624785D01*
X79523857Y-62672404D01*
X79619095Y-62720023D01*
X79904809Y-62720023D01*
X80000047Y-62672404D01*
X80047666Y-62624785D01*
X80095285Y-62529547D01*
X80095285Y-62386690D01*
X80047666Y-62291452D01*
X80000047Y-62243833D01*
X79904809Y-62196214D01*
X79619095Y-62196214D01*
X79523857Y-62243833D01*
X79476238Y-62291452D01*
X79428619Y-62386690D01*
X79428619Y-62529547D01*
X79428619Y-61624785D02*
X79476238Y-61720023D01*
X79571476Y-61767642D01*
X80428619Y-61767642D01*
X79428619Y-60815261D02*
X79952428Y-60815261D01*
X80047666Y-60862880D01*
X80095285Y-60958119D01*
X80095285Y-61148595D01*
X80047666Y-61243833D01*
X79476238Y-60815261D02*
X79428619Y-60910500D01*
X79428619Y-61148595D01*
X79476238Y-61243833D01*
X79571476Y-61291452D01*
X79666714Y-61291452D01*
X79761952Y-61243833D01*
X79809571Y-61148595D01*
X79809571Y-60910500D01*
X79857190Y-60815261D01*
X80095285Y-60339071D02*
X79428619Y-60339071D01*
X80000047Y-60339071D02*
X80047666Y-60291452D01*
X80095285Y-60196214D01*
X80095285Y-60053357D01*
X80047666Y-59958119D01*
X79952428Y-59910500D01*
X79428619Y-59910500D01*
X79428619Y-59005738D02*
X80428619Y-59005738D01*
X79476238Y-59005738D02*
X79428619Y-59100976D01*
X79428619Y-59291452D01*
X79476238Y-59386690D01*
X79523857Y-59434309D01*
X79619095Y-59481928D01*
X79904809Y-59481928D01*
X80000047Y-59434309D01*
X80047666Y-59386690D01*
X80095285Y-59291452D01*
X80095285Y-59100976D01*
X80047666Y-59005738D01*
X91670095Y-56586380D02*
X91670095Y-55586380D01*
X91432000Y-55586380D01*
X91289142Y-55634000D01*
X91193904Y-55729238D01*
X91146285Y-55824476D01*
X91098666Y-56014952D01*
X91098666Y-56157809D01*
X91146285Y-56348285D01*
X91193904Y-56443523D01*
X91289142Y-56538761D01*
X91432000Y-56586380D01*
X91670095Y-56586380D01*
X90717714Y-55681619D02*
X90670095Y-55634000D01*
X90574857Y-55586380D01*
X90336761Y-55586380D01*
X90241523Y-55634000D01*
X90193904Y-55681619D01*
X90146285Y-55776857D01*
X90146285Y-55872095D01*
X90193904Y-56014952D01*
X90765333Y-56586380D01*
X90146285Y-56586380D01*
X87034666Y-58269142D02*
X87082285Y-58316761D01*
X87225142Y-58364380D01*
X87320380Y-58364380D01*
X87463238Y-58316761D01*
X87558476Y-58221523D01*
X87606095Y-58126285D01*
X87653714Y-57935809D01*
X87653714Y-57792952D01*
X87606095Y-57602476D01*
X87558476Y-57507238D01*
X87463238Y-57412000D01*
X87320380Y-57364380D01*
X87225142Y-57364380D01*
X87082285Y-57412000D01*
X87034666Y-57459619D01*
X86177523Y-57364380D02*
X86368000Y-57364380D01*
X86463238Y-57412000D01*
X86510857Y-57459619D01*
X86606095Y-57602476D01*
X86653714Y-57792952D01*
X86653714Y-58173904D01*
X86606095Y-58269142D01*
X86558476Y-58316761D01*
X86463238Y-58364380D01*
X86272761Y-58364380D01*
X86177523Y-58316761D01*
X86129904Y-58269142D01*
X86082285Y-58173904D01*
X86082285Y-57935809D01*
X86129904Y-57840571D01*
X86177523Y-57792952D01*
X86272761Y-57745333D01*
X86463238Y-57745333D01*
X86558476Y-57792952D01*
X86606095Y-57840571D01*
X86653714Y-57935809D01*
X86907666Y-51665142D02*
X86955285Y-51712761D01*
X87098142Y-51760380D01*
X87193380Y-51760380D01*
X87336238Y-51712761D01*
X87431476Y-51617523D01*
X87479095Y-51522285D01*
X87526714Y-51331809D01*
X87526714Y-51188952D01*
X87479095Y-50998476D01*
X87431476Y-50903238D01*
X87336238Y-50808000D01*
X87193380Y-50760380D01*
X87098142Y-50760380D01*
X86955285Y-50808000D01*
X86907666Y-50855619D01*
X86050523Y-51093714D02*
X86050523Y-51760380D01*
X86288619Y-50712761D02*
X86526714Y-51427047D01*
X85907666Y-51427047D01*
X86907666Y-63349142D02*
X86955285Y-63396761D01*
X87098142Y-63444380D01*
X87193380Y-63444380D01*
X87336238Y-63396761D01*
X87431476Y-63301523D01*
X87479095Y-63206285D01*
X87526714Y-63015809D01*
X87526714Y-62872952D01*
X87479095Y-62682476D01*
X87431476Y-62587238D01*
X87336238Y-62492000D01*
X87193380Y-62444380D01*
X87098142Y-62444380D01*
X86955285Y-62492000D01*
X86907666Y-62539619D01*
X86574333Y-62444380D02*
X85907666Y-62444380D01*
X86336238Y-63444380D01*
X91479666Y-60142380D02*
X91813000Y-59666190D01*
X92051095Y-60142380D02*
X92051095Y-59142380D01*
X91670142Y-59142380D01*
X91574904Y-59190000D01*
X91527285Y-59237619D01*
X91479666Y-59332857D01*
X91479666Y-59475714D01*
X91527285Y-59570952D01*
X91574904Y-59618571D01*
X91670142Y-59666190D01*
X92051095Y-59666190D01*
X91146333Y-59142380D02*
X90527285Y-59142380D01*
X90860619Y-59523333D01*
X90717761Y-59523333D01*
X90622523Y-59570952D01*
X90574904Y-59618571D01*
X90527285Y-59713809D01*
X90527285Y-59951904D01*
X90574904Y-60047142D01*
X90622523Y-60094761D01*
X90717761Y-60142380D01*
X91003476Y-60142380D01*
X91098714Y-60094761D01*
X91146333Y-60047142D01*
X91606666Y-53538380D02*
X91940000Y-53062190D01*
X92178095Y-53538380D02*
X92178095Y-52538380D01*
X91797142Y-52538380D01*
X91701904Y-52586000D01*
X91654285Y-52633619D01*
X91606666Y-52728857D01*
X91606666Y-52871714D01*
X91654285Y-52966952D01*
X91701904Y-53014571D01*
X91797142Y-53062190D01*
X92178095Y-53062190D01*
X90654285Y-53538380D02*
X91225714Y-53538380D01*
X90940000Y-53538380D02*
X90940000Y-52538380D01*
X91035238Y-52681238D01*
X91130476Y-52776476D01*
X91225714Y-52824095D01*
X89606380Y-61646554D02*
X89606380Y-61170363D01*
X88606380Y-61170363D01*
X88939714Y-62408459D02*
X89606380Y-62408459D01*
X88558761Y-62170363D02*
X89273047Y-61932268D01*
X89273047Y-62551316D01*
X87034666Y-56745142D02*
X87082285Y-56792761D01*
X87225142Y-56840380D01*
X87320380Y-56840380D01*
X87463238Y-56792761D01*
X87558476Y-56697523D01*
X87606095Y-56602285D01*
X87653714Y-56411809D01*
X87653714Y-56268952D01*
X87606095Y-56078476D01*
X87558476Y-55983238D01*
X87463238Y-55888000D01*
X87320380Y-55840380D01*
X87225142Y-55840380D01*
X87082285Y-55888000D01*
X87034666Y-55935619D01*
X86129904Y-55840380D02*
X86606095Y-55840380D01*
X86653714Y-56316571D01*
X86606095Y-56268952D01*
X86510857Y-56221333D01*
X86272761Y-56221333D01*
X86177523Y-56268952D01*
X86129904Y-56316571D01*
X86082285Y-56411809D01*
X86082285Y-56649904D01*
X86129904Y-56745142D01*
X86177523Y-56792761D01*
X86272761Y-56840380D01*
X86510857Y-56840380D01*
X86606095Y-56792761D01*
X86653714Y-56745142D01*
X94083142Y-52919333D02*
X94130761Y-52871714D01*
X94178380Y-52728857D01*
X94178380Y-52633619D01*
X94130761Y-52490761D01*
X94035523Y-52395523D01*
X93940285Y-52347904D01*
X93749809Y-52300285D01*
X93606952Y-52300285D01*
X93416476Y-52347904D01*
X93321238Y-52395523D01*
X93226000Y-52490761D01*
X93178380Y-52633619D01*
X93178380Y-52728857D01*
X93226000Y-52871714D01*
X93273619Y-52919333D01*
X93606952Y-53490761D02*
X93559333Y-53395523D01*
X93511714Y-53347904D01*
X93416476Y-53300285D01*
X93368857Y-53300285D01*
X93273619Y-53347904D01*
X93226000Y-53395523D01*
X93178380Y-53490761D01*
X93178380Y-53681238D01*
X93226000Y-53776476D01*
X93273619Y-53824095D01*
X93368857Y-53871714D01*
X93416476Y-53871714D01*
X93511714Y-53824095D01*
X93559333Y-53776476D01*
X93606952Y-53681238D01*
X93606952Y-53490761D01*
X93654571Y-53395523D01*
X93702190Y-53347904D01*
X93797428Y-53300285D01*
X93987904Y-53300285D01*
X94083142Y-53347904D01*
X94130761Y-53395523D01*
X94178380Y-53490761D01*
X94178380Y-53681238D01*
X94130761Y-53776476D01*
X94083142Y-53824095D01*
X93987904Y-53871714D01*
X93797428Y-53871714D01*
X93702190Y-53824095D01*
X93654571Y-53776476D01*
X93606952Y-53681238D01*
X91797095Y-58618380D02*
X91797095Y-57618380D01*
X91559000Y-57618380D01*
X91416142Y-57666000D01*
X91320904Y-57761238D01*
X91273285Y-57856476D01*
X91225666Y-58046952D01*
X91225666Y-58189809D01*
X91273285Y-58380285D01*
X91320904Y-58475523D01*
X91416142Y-58570761D01*
X91559000Y-58618380D01*
X91797095Y-58618380D01*
X90892333Y-57618380D02*
X90273285Y-57618380D01*
X90606619Y-57999333D01*
X90463761Y-57999333D01*
X90368523Y-58046952D01*
X90320904Y-58094571D01*
X90273285Y-58189809D01*
X90273285Y-58427904D01*
X90320904Y-58523142D01*
X90368523Y-58570761D01*
X90463761Y-58618380D01*
X90749476Y-58618380D01*
X90844714Y-58570761D01*
X90892333Y-58523142D01*
X89606380Y-58761333D02*
X89606380Y-58285142D01*
X88606380Y-58285142D01*
X88606380Y-58999428D02*
X88606380Y-59618476D01*
X88987333Y-59285142D01*
X88987333Y-59428000D01*
X89034952Y-59523238D01*
X89082571Y-59570857D01*
X89177809Y-59618476D01*
X89415904Y-59618476D01*
X89511142Y-59570857D01*
X89558761Y-59523238D01*
X89606380Y-59428000D01*
X89606380Y-59142285D01*
X89558761Y-59047047D01*
X89511142Y-58999428D01*
X89606380Y-55205333D02*
X89606380Y-54729142D01*
X88606380Y-54729142D01*
X88701619Y-55491047D02*
X88654000Y-55538666D01*
X88606380Y-55633904D01*
X88606380Y-55872000D01*
X88654000Y-55967238D01*
X88701619Y-56014857D01*
X88796857Y-56062476D01*
X88892095Y-56062476D01*
X89034952Y-56014857D01*
X89606380Y-55443428D01*
X89606380Y-56062476D01*
X91606666Y-55062380D02*
X91940000Y-54586190D01*
X92178095Y-55062380D02*
X92178095Y-54062380D01*
X91797142Y-54062380D01*
X91701904Y-54110000D01*
X91654285Y-54157619D01*
X91606666Y-54252857D01*
X91606666Y-54395714D01*
X91654285Y-54490952D01*
X91701904Y-54538571D01*
X91797142Y-54586190D01*
X92178095Y-54586190D01*
X91225714Y-54157619D02*
X91178095Y-54110000D01*
X91082857Y-54062380D01*
X90844761Y-54062380D01*
X90749523Y-54110000D01*
X90701904Y-54157619D01*
X90654285Y-54252857D01*
X90654285Y-54348095D01*
X90701904Y-54490952D01*
X91273333Y-55062380D01*
X90654285Y-55062380D01*
X89606380Y-52157333D02*
X89606380Y-51681142D01*
X88606380Y-51681142D01*
X89606380Y-53014476D02*
X89606380Y-52443047D01*
X89606380Y-52728761D02*
X88606380Y-52728761D01*
X88749238Y-52633523D01*
X88844476Y-52538285D01*
X88892095Y-52443047D01*
X94083142Y-59523333D02*
X94130761Y-59475714D01*
X94178380Y-59332857D01*
X94178380Y-59237619D01*
X94130761Y-59094761D01*
X94035523Y-58999523D01*
X93940285Y-58951904D01*
X93749809Y-58904285D01*
X93606952Y-58904285D01*
X93416476Y-58951904D01*
X93321238Y-58999523D01*
X93226000Y-59094761D01*
X93178380Y-59237619D01*
X93178380Y-59332857D01*
X93226000Y-59475714D01*
X93273619Y-59523333D01*
X94178380Y-59999523D02*
X94178380Y-60190000D01*
X94130761Y-60285238D01*
X94083142Y-60332857D01*
X93940285Y-60428095D01*
X93749809Y-60475714D01*
X93368857Y-60475714D01*
X93273619Y-60428095D01*
X93226000Y-60380476D01*
X93178380Y-60285238D01*
X93178380Y-60094761D01*
X93226000Y-59999523D01*
X93273619Y-59951904D01*
X93368857Y-59904285D01*
X93606952Y-59904285D01*
X93702190Y-59951904D01*
X93749809Y-59999523D01*
X93797428Y-60094761D01*
X93797428Y-60285238D01*
X93749809Y-60380476D01*
X93702190Y-60428095D01*
X93606952Y-60475714D01*
X91479666Y-61666380D02*
X91813000Y-61190190D01*
X92051095Y-61666380D02*
X92051095Y-60666380D01*
X91670142Y-60666380D01*
X91574904Y-60714000D01*
X91527285Y-60761619D01*
X91479666Y-60856857D01*
X91479666Y-60999714D01*
X91527285Y-61094952D01*
X91574904Y-61142571D01*
X91670142Y-61190190D01*
X92051095Y-61190190D01*
X90622523Y-60999714D02*
X90622523Y-61666380D01*
X90860619Y-60618761D02*
X91098714Y-61333047D01*
X90479666Y-61333047D01*
%LPC*%
D11*
X81685000Y-66654000D03*
X87225000Y-66654000D03*
X87225000Y-47646000D03*
X81685000Y-47646000D03*
D12*
X76602000Y-59920000D03*
X76602000Y-54380000D03*
M02*
